<svg viewBox="0 0 180 180" fill="none" xmlns="http://www.w3.org/2000/svg">
    <style>
        path {
            fill: #631b3a;
        }

        @media (prefers-color-scheme: dark) {
            path {
                fill: #ffffff;
            }
        }
    </style>
    <path
        d="M2.10938 177.538V2.46094L16.6988 26.1686V153.829L2.10938 177.538ZM25.1366 177.538V2.46094L39.727 35.2878V144.711L25.1366 177.538ZM48.1639 177.538V2.46094L62.7533 44.4051V135.591L48.1639 177.537V177.538ZM71.1912 177.538V2.46094L85.7815 53.5243V126.473L71.1912 177.538ZM94.2185 177.538V2.46094L108.808 62.6435V117.355L94.2185 177.538ZM117.247 177.538V2.46094L131.836 71.7618V108.237L117.247 177.538ZM140.273 177.538V2.46094L154.862 80.8801V99.1175L140.273 177.538ZM163.301 177.538V2.46094L177.891 89.9992L163.301 177.538Z"
    />
</svg>
