<svg width="385" height="385" viewBox="0 0 385 385" fill="none" xmlns="http://www.w3.org/2000/svg">
<path d="M381.084 352.848H380.084V384.848H381.084V352.848Z" fill="black"/>
<path d="M373 352.848H372V384.848H373V352.848Z" fill="black"/>
<path d="M364.913 352.848H363.913V384.848H364.913V352.848Z" fill="black"/>
<path d="M356.825 352.848H355.825V384.848H356.825V352.848Z" fill="black"/>
<path d="M348.738 352.848H347.738V384.848H348.738V352.848Z" fill="black"/>
<path d="M340.651 352.848H339.651V384.848H340.651V352.848Z" fill="black"/>
<path d="M332.564 352.848H331.564V384.848H332.564V352.848Z" fill="black"/>
<path d="M324.476 352.848H323.476V384.848H324.476V352.848Z" fill="black"/>
<path d="M316.389 352.848H315.389V384.848H316.389V352.848Z" fill="black"/>
<path d="M308.302 352.848H307.302V384.848H308.302V352.848Z" fill="black"/>
<path d="M300.214 352.848H299.214V384.848H300.214V352.848Z" fill="black"/>
<path d="M292.127 352.848H291.127V384.848H292.127V352.848Z" fill="black"/>
<path d="M284.044 352.848H283.043V384.848H284.044V352.848Z" fill="black"/>
<path d="M275.956 352.848H274.956V384.848H275.956V352.848Z" fill="black"/>
<path d="M267.869 352.848H266.869V384.848H267.869V352.848Z" fill="black"/>
<path d="M259.782 352.848H258.782V384.848H259.782V352.848Z" fill="black"/>
<path d="M251.694 352.848H250.694V384.848H251.694V352.848Z" fill="black"/>
<path d="M243.607 352.848H242.607V384.848H243.607V352.848Z" fill="black"/>
<path d="M235.52 352.848H234.52V384.848H235.52V352.848Z" fill="black"/>
<path d="M227.433 352.848H226.433V384.848H227.433V352.848Z" fill="black"/>
<path d="M219.345 352.848H218.345V384.848H219.345V352.848Z" fill="black"/>
<path d="M211.258 352.848H210.258V384.848H211.258V352.848Z" fill="black"/>
<path d="M203.171 352.848H202.171V384.848H203.171V352.848Z" fill="black"/>
<path d="M195.083 352.848H194.083V384.848H195.083V352.848Z" fill="black"/>
<path d="M187 352.848H186V384.848H187V352.848Z" fill="black"/>
<path d="M178.912 352.848H177.912V384.848H178.912V352.848Z" fill="black"/>
<path d="M170.825 352.848H169.825V384.848H170.825V352.848Z" fill="black"/>
<path d="M162.738 352.848H161.738V384.848H162.738V352.848Z" fill="black"/>
<path d="M154.651 352.848H153.651V384.848H154.651V352.848Z" fill="black"/>
<path d="M146.563 352.848H145.563V384.848H146.563V352.848Z" fill="black"/>
<path d="M138.476 352.848H137.476V384.848H138.476V352.848Z" fill="black"/>
<path d="M130.389 352.848H129.389V384.848H130.389V352.848Z" fill="black"/>
<path d="M122.301 352.848H121.301V384.848H122.301V352.848Z" fill="black"/>
<path d="M114.214 352.848H113.214V384.848H114.214V352.848Z" fill="black"/>
<path d="M106.127 352.848H105.127V384.848H106.127V352.848Z" fill="black"/>
<path d="M98.0433 352.848H97.0433V384.848H98.0433V352.848Z" fill="black"/>
<path d="M89.956 352.848H88.956V384.848H89.956V352.848Z" fill="black"/>
<path d="M81.8687 352.848H80.8687V384.848H81.8687V352.848Z" fill="black"/>
<path d="M73.7814 352.848H72.7814V384.848H73.7814V352.848Z" fill="black"/>
<path d="M65.6941 352.848H64.6941V384.848H65.6941V352.848Z" fill="black"/>
<path d="M57.6068 352.848H56.6068V384.848H57.6068V352.848Z" fill="black"/>
<path d="M49.5196 352.848H48.5196V384.848H49.5196V352.848Z" fill="black"/>
<path d="M41.4323 352.848H40.4323V384.848H41.4323V352.848Z" fill="black"/>
<path d="M33.345 352.848H32.345V384.848H33.345V352.848Z" fill="black"/>
<path d="M25.2577 352.848H24.2577V384.848H25.2577V352.848Z" fill="black"/>
<path d="M17.1704 352.848H16.1704V384.848H17.1704V352.848Z" fill="black"/>
<path d="M9.08315 352.848H8.08315V384.848H9.08315V352.848Z" fill="black"/>
<path d="M381.785 320.848H379.385V352.848H381.785V320.848Z" fill="black"/>
<path d="M373.684 320.848H371.313V352.848H373.684V320.848Z" fill="black"/>
<path d="M365.582 320.848H363.244V352.848H365.582V320.848Z" fill="black"/>
<path d="M357.48 320.848H355.171V352.848H357.48V320.848Z" fill="black"/>
<path d="M349.378 320.848H347.098V352.848H349.378V320.848Z" fill="black"/>
<path d="M341.273 320.848H339.025V352.848H341.273V320.848Z" fill="black"/>
<path d="M333.174 320.848H330.956V352.848H333.174V320.848Z" fill="black"/>
<path d="M325.069 320.848H322.884V352.848H325.069V320.848Z" fill="black"/>
<path d="M316.967 320.848H314.811V352.848H316.967V320.848Z" fill="black"/>
<path d="M308.865 320.848H306.738V352.848H308.865V320.848Z" fill="black"/>
<path d="M300.764 320.848H298.669V352.848H300.764V320.848Z" fill="black"/>
<path d="M292.662 320.848H290.596V352.848H292.662V320.848Z" fill="black"/>
<path d="M284.56 320.848H282.523V352.848H284.56V320.848Z" fill="black"/>
<path d="M276.458 320.848H274.454V352.848H276.458V320.848Z" fill="black"/>
<path d="M268.356 320.848H266.382V352.848H268.356V320.848Z" fill="black"/>
<path d="M260.251 320.848H258.309V352.848H260.251V320.848Z" fill="black"/>
<path d="M252.149 320.848H250.236V352.848H252.149V320.848Z" fill="black"/>
<path d="M244.051 320.848H242.167V352.848H244.051V320.848Z" fill="black"/>
<path d="M235.945 320.848H234.094V352.848H235.945V320.848Z" fill="black"/>
<path d="M227.843 320.848H226.022V352.848H227.843V320.848Z" fill="black"/>
<path d="M219.742 320.848H217.949V352.848H219.742V320.848Z" fill="black"/>
<path d="M211.64 320.848H209.88V352.848H211.64V320.848Z" fill="black"/>
<path d="M203.538 320.848H201.807V352.848H203.538V320.848Z" fill="black"/>
<path d="M195.432 320.848H193.734V352.848H195.432V320.848Z" fill="black"/>
<path d="M187.334 320.848H185.665V352.848H187.334V320.848Z" fill="black"/>
<path d="M179.232 320.848H177.592V352.848H179.232V320.848Z" fill="black"/>
<path d="M171.127 320.848H169.52V352.848H171.127V320.848Z" fill="black"/>
<path d="M163.025 320.848H161.447V352.848H163.025V320.848Z" fill="black"/>
<path d="M154.927 320.848H153.378V352.848H154.927V320.848Z" fill="black"/>
<path d="M146.822 320.848H145.305V352.848H146.822V320.848Z" fill="black"/>
<path d="M138.72 320.848H137.232V352.848H138.72V320.848Z" fill="black"/>
<path d="M130.618 320.848H129.16V352.848H130.618V320.848Z" fill="black"/>
<path d="M122.516 320.848H121.091V352.848H122.516V320.848Z" fill="black"/>
<path d="M114.414 320.848H113.018V352.848H114.414V320.848Z" fill="black"/>
<path d="M106.309 320.848H104.945V352.848H106.309V320.848Z" fill="black"/>
<path d="M98.2105 320.848H96.876V352.848H98.2105V320.848Z" fill="black"/>
<path d="M90.1087 320.848H88.8033V352.848H90.1087V320.848Z" fill="black"/>
<path d="M82.0032 320.848H80.7305V352.848H82.0032V320.848Z" fill="black"/>
<path d="M73.9014 320.848H72.6578V352.848H73.9014V320.848Z" fill="black"/>
<path d="M65.8032 320.848H64.5887V352.848H65.8032V320.848Z" fill="black"/>
<path d="M57.6978 320.848H56.5159V352.848H57.6978V320.848Z" fill="black"/>
<path d="M49.5959 320.848H48.4432V352.848H49.5959V320.848Z" fill="black"/>
<path d="M41.4905 320.848H40.3705V352.848H41.4905V320.848Z" fill="black"/>
<path d="M33.3923 320.848H32.3014V352.848H33.3923V320.848Z" fill="black"/>
<path d="M25.2904 320.848H24.2286V352.848H25.2904V320.848Z" fill="black"/>
<path d="M17.185 320.848H16.1559V352.848H17.185V320.848Z" fill="black"/>
<path d="M9.08315 320.848H8.08315V352.848H9.08315V320.848Z" fill="black"/>
<path d="M382.484 288.848H378.684V320.848H382.484V288.848Z" fill="black"/>
<path d="M374.367 288.848H370.629V320.848H374.367V288.848Z" fill="black"/>
<path d="M366.251 288.848H362.571V320.848H366.251V288.848Z" fill="black"/>
<path d="M358.134 288.848H354.516V320.848H358.134V288.848Z" fill="black"/>
<path d="M350.014 288.848H346.458V320.848H350.014V288.848Z" fill="black"/>
<path d="M341.898 288.848H338.404V320.848H341.898V288.848Z" fill="black"/>
<path d="M333.782 288.848H330.345V320.848H333.782V288.848Z" fill="black"/>
<path d="M325.665 288.848H322.291V320.848H325.665V288.848Z" fill="black"/>
<path d="M317.545 288.848H314.233V320.848H317.545V288.848Z" fill="black"/>
<path d="M309.429 288.848H306.178V320.848H309.429V288.848Z" fill="black"/>
<path d="M301.313 288.848H298.12V320.848H301.313V288.848Z" fill="black"/>
<path d="M293.196 288.848H290.065V320.848H293.196V288.848Z" fill="black"/>
<path d="M285.076 288.848H282.007V320.848H285.076V288.848Z" fill="black"/>
<path d="M276.956 288.848H273.949V320.848H276.956V288.848Z" fill="black"/>
<path d="M268.843 288.848H265.894V320.848H268.843V288.848Z" fill="black"/>
<path d="M260.723 288.848H257.836V320.848H260.723V288.848Z" fill="black"/>
<path d="M252.607 288.848H249.782V320.848H252.607V288.848Z" fill="black"/>
<path d="M244.487 288.848H241.723V320.848H244.487V288.848Z" fill="black"/>
<path d="M236.374 288.848H233.669V320.848H236.374V288.848Z" fill="black"/>
<path d="M228.254 288.848H225.611V320.848H228.254V288.848Z" fill="black"/>
<path d="M220.138 288.848H217.556V320.848H220.138V288.848Z" fill="black"/>
<path d="M212.018 288.848H209.498V320.848H212.018V288.848Z" fill="black"/>
<path d="M203.905 288.848H201.443V320.848H203.905V288.848Z" fill="black"/>
<path d="M195.785 288.848H193.385V320.848H195.785V288.848Z" fill="black"/>
<path d="M187.665 288.848H185.327V320.848H187.665V288.848Z" fill="black"/>
<path d="M179.552 288.848H177.272V320.848H179.552V288.848Z" fill="black"/>
<path d="M171.432 288.848H169.214V320.848H171.432V288.848Z" fill="black"/>
<path d="M163.316 288.848H161.16V320.848H163.316V288.848Z" fill="black"/>
<path d="M155.196 288.848H153.102V320.848H155.196V288.848Z" fill="black"/>
<path d="M147.083 288.848H145.047V320.848H147.083V288.848Z" fill="black"/>
<path d="M138.963 288.848H136.989V320.848H138.963V288.848Z" fill="black"/>
<path d="M130.847 288.848H128.934V320.848H130.847V288.848Z" fill="black"/>
<path d="M122.727 288.848H120.876V320.848H122.727V288.848Z" fill="black"/>
<path d="M114.614 288.848H112.821V320.848H114.614V288.848Z" fill="black"/>
<path d="M106.494 288.848H104.763V320.848H106.494V288.848Z" fill="black"/>
<path d="M98.3742 288.848H96.7051V320.848H98.3742V288.848Z" fill="black"/>
<path d="M90.2578 288.848H88.6505V320.848H90.2578V288.848Z" fill="black"/>
<path d="M82.1414 288.848H80.5923V320.848H82.1414V288.848Z" fill="black"/>
<path d="M74.0251 288.848H72.5378V320.848H74.0251V288.848Z" fill="black"/>
<path d="M65.905 288.848H64.4796V320.848H65.905V288.848Z" fill="black"/>
<path d="M57.7887 288.848H56.425V320.848H57.7887V288.848Z" fill="black"/>
<path d="M49.6723 288.848H48.3668V320.848H49.6723V288.848Z" fill="black"/>
<path d="M41.5559 288.848H40.3123V320.848H41.5559V288.848Z" fill="black"/>
<path d="M33.4359 288.848H32.2541V320.848H33.4359V288.848Z" fill="black"/>
<path d="M25.3195 288.848H24.1995V320.848H25.3195V288.848Z" fill="black"/>
<path d="M17.2032 288.848H16.1413V320.848H17.2032V288.848Z" fill="black"/>
<path d="M9.08315 288.848H8.08315V320.848H9.08315V288.848Z" fill="black"/>
<path d="M383.185 256.848H377.985V288.848H383.185V256.848Z" fill="black"/>
<path d="M375.055 256.848H369.945V288.848H375.055V256.848Z" fill="black"/>
<path d="M366.92 256.848H361.902V288.848H366.92V256.848Z" fill="black"/>
<path d="M358.789 256.848H353.862V288.848H358.789V256.848Z" fill="black"/>
<path d="M350.658 256.848H345.822V288.848H350.658V256.848Z" fill="black"/>
<path d="M342.52 256.848H337.778V288.848H342.52V256.848Z" fill="black"/>
<path d="M334.389 256.848H329.738V288.848H334.389V256.848Z" fill="black"/>
<path d="M326.254 256.848H321.694V288.848H326.254V256.848Z" fill="black"/>
<path d="M318.124 256.848H313.654V288.848H318.124V256.848Z" fill="black"/>
<path d="M309.993 256.848H305.614V288.848H309.993V256.848Z" fill="black"/>
<path d="M301.858 256.848H297.571V288.848H301.858V256.848Z" fill="black"/>
<path d="M293.727 256.848H289.531V288.848H293.727V256.848Z" fill="black"/>
<path d="M285.596 256.848H281.491V288.848H285.596V256.848Z" fill="black"/>
<path d="M277.462 256.848H273.447V288.848H277.462V256.848Z" fill="black"/>
<path d="M269.327 256.848H265.407V288.848H269.327V256.848Z" fill="black"/>
<path d="M261.196 256.848H257.367V288.848H261.196V256.848Z" fill="black"/>
<path d="M253.062 256.848H249.323V288.848H253.062V256.848Z" fill="black"/>
<path d="M244.931 256.848H241.283V288.848H244.931V256.848Z" fill="black"/>
<path d="M236.8 256.848H233.243V288.848H236.8V256.848Z" fill="black"/>
<path d="M228.665 256.848H225.2V288.848H228.665V256.848Z" fill="black"/>
<path d="M220.534 256.848H217.16V288.848H220.534V256.848Z" fill="black"/>
<path d="M212.4 256.848H209.116V288.848H212.4V256.848Z" fill="black"/>
<path d="M204.269 256.848H201.076V288.848H204.269V256.848Z" fill="black"/>
<path d="M196.138 256.848H193.036V288.848H196.138V256.848Z" fill="black"/>
<path d="M188 256.848H184.992V288.848H188V256.848Z" fill="black"/>
<path d="M179.869 256.848H176.952V288.848H179.869V256.848Z" fill="black"/>
<path d="M171.738 256.848H168.912V288.848H171.738V256.848Z" fill="black"/>
<path d="M163.603 256.848H160.869V288.848H163.603V256.848Z" fill="black"/>
<path d="M155.472 256.848H152.829V288.848H155.472V256.848Z" fill="black"/>
<path d="M147.342 256.848H144.789V288.848H147.342V256.848Z" fill="black"/>
<path d="M139.207 256.848H136.745V288.848H139.207V256.848Z" fill="black"/>
<path d="M131.076 256.848H128.705V288.848H131.076V256.848Z" fill="black"/>
<path d="M122.945 256.848H120.665V288.848H122.945V256.848Z" fill="black"/>
<path d="M114.807 256.848H112.621V288.848H114.807V256.848Z" fill="black"/>
<path d="M106.676 256.848H104.581V288.848H106.676V256.848Z" fill="black"/>
<path d="M98.5415 256.848H96.5378V288.848H98.5415V256.848Z" fill="black"/>
<path d="M90.4105 256.848H88.4978V288.848H90.4105V256.848Z" fill="black"/>
<path d="M82.2796 256.848H80.4578V288.848H82.2796V256.848Z" fill="black"/>
<path d="M74.1451 256.848H72.4141V288.848H74.1451V256.848Z" fill="black"/>
<path d="M66.0141 256.848H64.3741V288.848H66.0141V256.848Z" fill="black"/>
<path d="M57.8832 256.848H56.3341V288.848H57.8832V256.848Z" fill="black"/>
<path d="M49.7487 256.848H48.2905V288.848H49.7487V256.848Z" fill="black"/>
<path d="M41.6141 256.848H40.2505V288.848H41.6141V256.848Z" fill="black"/>
<path d="M33.4832 256.848H32.2105V288.848H33.4832V256.848Z" fill="black"/>
<path d="M25.3486 256.848H24.1668V288.848H25.3486V256.848Z" fill="black"/>
<path d="M17.2177 256.848H16.1268V288.848H17.2177V256.848Z" fill="black"/>
<path d="M9.08315 256.848H8.08315V288.848H9.08315V256.848Z" fill="black"/>
<path d="M383.884 224.848H377.284V256.848H383.884V224.848Z" fill="black"/>
<path d="M375.738 224.848H369.258V256.848H375.738V224.848Z" fill="black"/>
<path d="M367.589 224.848H361.233V256.848H367.589V224.848Z" fill="black"/>
<path d="M359.444 224.848H353.207V256.848H359.444V224.848Z" fill="black"/>
<path d="M351.294 224.848H345.182V256.848H351.294V224.848Z" fill="black"/>
<path d="M343.149 224.848H337.156V256.848H343.149V224.848Z" fill="black"/>
<path d="M334.996 224.848H329.127V256.848H334.996V224.848Z" fill="black"/>
<path d="M326.851 224.848H321.102V256.848H326.851V224.848Z" fill="black"/>
<path d="M318.702 224.848H313.076V256.848H318.702V224.848Z" fill="black"/>
<path d="M310.556 224.848H305.051V256.848H310.556V224.848Z" fill="black"/>
<path d="M302.407 224.848H297.025V256.848H302.407V224.848Z" fill="black"/>
<path d="M294.262 224.848H289V256.848H294.262V224.848Z" fill="black"/>
<path d="M286.109 224.848H280.971V256.848H286.109V224.848Z" fill="black"/>
<path d="M277.963 224.848H272.945V256.848H277.963V224.848Z" fill="black"/>
<path d="M269.814 224.848H264.92V256.848H269.814V224.848Z" fill="black"/>
<path d="M261.669 224.848H256.894V256.848H261.669V224.848Z" fill="black"/>
<path d="M253.52 224.848H248.869V256.848H253.52V224.848Z" fill="black"/>
<path d="M245.374 224.848H240.843V256.848H245.374V224.848Z" fill="black"/>
<path d="M237.222 224.848H232.814V256.848H237.222V224.848Z" fill="black"/>
<path d="M229.076 224.848H224.789V256.848H229.076V224.848Z" fill="black"/>
<path d="M220.927 224.848H216.763V256.848H220.927V224.848Z" fill="black"/>
<path d="M212.782 224.848H208.738V256.848H212.782V224.848Z" fill="black"/>
<path d="M204.632 224.848H200.712V256.848H204.632V224.848Z" fill="black"/>
<path d="M196.483 224.848H192.683V256.848H196.483V224.848Z" fill="black"/>
<path d="M188.338 224.848H184.658V256.848H188.338V224.848Z" fill="black"/>
<path d="M180.189 224.848H176.632V256.848H180.189V224.848Z" fill="black"/>
<path d="M172.043 224.848H168.607V256.848H172.043V224.848Z" fill="black"/>
<path d="M163.894 224.848H160.582V256.848H163.894V224.848Z" fill="black"/>
<path d="M155.749 224.848H152.556V256.848H155.749V224.848Z" fill="black"/>
<path d="M147.596 224.848H144.527V256.848H147.596V224.848Z" fill="black"/>
<path d="M139.451 224.848H136.501V256.848H139.451V224.848Z" fill="black"/>
<path d="M131.301 224.848H128.476V256.848H131.301V224.848Z" fill="black"/>
<path d="M123.156 224.848H120.451V256.848H123.156V224.848Z" fill="black"/>
<path d="M115.007 224.848H112.425V256.848H115.007V224.848Z" fill="black"/>
<path d="M106.861 224.848H104.4V256.848H106.861V224.848Z" fill="black"/>
<path d="M98.7087 224.848H96.3705V256.848H98.7087V224.848Z" fill="black"/>
<path d="M90.5633 224.848H88.3451V256.848H90.5633V224.848Z" fill="black"/>
<path d="M82.4142 224.848H80.3196V256.848H82.4142V224.848Z" fill="black"/>
<path d="M74.2687 224.848H72.2941V256.848H74.2687V224.848Z" fill="black"/>
<path d="M66.1196 224.848H64.2687V256.848H66.1196V224.848Z" fill="black"/>
<path d="M57.9741 224.848H56.2432V256.848H57.9741V224.848Z" fill="black"/>
<path d="M49.8214 224.848H48.2141V256.848H49.8214V224.848Z" fill="black"/>
<path d="M41.6759 224.848H40.1886V256.848H41.6759V224.848Z" fill="black"/>
<path d="M33.5268 224.848H32.1632V256.848H33.5268V224.848Z" fill="black"/>
<path d="M25.3814 224.848H24.1377V256.848H25.3814V224.848Z" fill="black"/>
<path d="M17.2323 224.848H16.1123V256.848H17.2323V224.848Z" fill="black"/>
<path d="M9.08315 224.848H8.08315V256.848H9.08315V224.848Z" fill="black"/>
<path d="M384.585 192.848H376.585V224.848H384.585V192.848Z" fill="black"/>
<path d="M376.422 192.848H368.574V224.848H376.422V192.848Z" fill="black"/>
<path d="M368.258 192.848H360.564V224.848H368.258V192.848Z" fill="black"/>
<path d="M360.095 192.848H352.553V224.848H360.095V192.848Z" fill="black"/>
<path d="M351.935 192.848H344.542V224.848H351.935V192.848Z" fill="black"/>
<path d="M343.771 192.848H336.531V224.848H343.771V192.848Z" fill="black"/>
<path d="M335.607 192.848H328.52V224.848H335.607V192.848Z" fill="black"/>
<path d="M327.444 192.848H320.509V224.848H327.444V192.848Z" fill="black"/>
<path d="M319.28 192.848H312.498V224.848H319.28V192.848Z" fill="black"/>
<path d="M311.116 192.848H304.487V224.848H311.116V192.848Z" fill="black"/>
<path d="M302.956 192.848H296.476V224.848H302.956V192.848Z" fill="black"/>
<path d="M294.793 192.848H288.465V224.848H294.793V192.848Z" fill="black"/>
<path d="M286.629 192.848H280.454V224.848H286.629V192.848Z" fill="black"/>
<path d="M278.465 192.848H272.443V224.848H278.465V192.848Z" fill="black"/>
<path d="M270.302 192.848H264.433V224.848H270.302V192.848Z" fill="black"/>
<path d="M262.138 192.848H256.422V224.848H262.138V192.848Z" fill="black"/>
<path d="M253.974 192.848H248.411V224.848H253.974V192.848Z" fill="black"/>
<path d="M245.814 192.848H240.4V224.848H245.814V192.848Z" fill="black"/>
<path d="M237.651 192.848H232.389V224.848H237.651V192.848Z" fill="black"/>
<path d="M229.487 192.848H224.378V224.848H229.487V192.848Z" fill="black"/>
<path d="M221.323 192.848H216.367V224.848H221.323V192.848Z" fill="black"/>
<path d="M213.16 192.848H208.356V224.848H213.16V192.848Z" fill="black"/>
<path d="M204.996 192.848H200.345V224.848H204.996V192.848Z" fill="black"/>
<path d="M196.836 192.848H192.334V224.848H196.836V192.848Z" fill="black"/>
<path d="M188.672 192.848H184.323V224.848H188.672V192.848Z" fill="black"/>
<path d="M180.509 192.848H176.312V224.848H180.509V192.848Z" fill="black"/>
<path d="M172.345 192.848H168.302V224.848H172.345V192.848Z" fill="black"/>
<path d="M164.182 192.848H160.291V224.848H164.182V192.848Z" fill="black"/>
<path d="M156.018 192.848H152.28V224.848H156.018V192.848Z" fill="black"/>
<path d="M147.854 192.848H144.269V224.848H147.854V192.848Z" fill="black"/>
<path d="M139.694 192.848H136.258V224.848H139.694V192.848Z" fill="black"/>
<path d="M131.531 192.848H128.247V224.848H131.531V192.848Z" fill="black"/>
<path d="M123.367 192.848H120.236V224.848H123.367V192.848Z" fill="black"/>
<path d="M115.203 192.848H112.225V224.848H115.203V192.848Z" fill="black"/>
<path d="M107.04 192.848H104.214V224.848H107.04V192.848Z" fill="black"/>
<path d="M98.876 192.848H96.2033V224.848H98.876V192.848Z" fill="black"/>
<path d="M90.7123 192.848H88.1923V224.848H90.7123V192.848Z" fill="black"/>
<path d="M82.5523 192.848H80.1814V224.848H82.5523V192.848Z" fill="black"/>
<path d="M74.3887 192.848H72.1705V224.848H74.3887V192.848Z" fill="black"/>
<path d="M66.225 192.848H64.1596V224.848H66.225V192.848Z" fill="black"/>
<path d="M58.0614 192.848H56.1487V224.848H58.0614V192.848Z" fill="black"/>
<path d="M49.8978 192.848H48.1377V224.848H49.8978V192.848Z" fill="black"/>
<path d="M41.7341 192.848H40.1268V224.848H41.7341V192.848Z" fill="black"/>
<path d="M33.5741 192.848H32.1159V224.848H33.5741V192.848Z" fill="black"/>
<path d="M25.4104 192.848H24.105V224.848H25.4104V192.848Z" fill="black"/>
<path d="M17.2468 192.848H16.0941V224.848H17.2468V192.848Z" fill="black"/>
<path d="M9.08315 192.848H8.08315V224.848H9.08315V192.848Z" fill="black"/>
<path d="M5.08315 0.847656H4.08315V32.8477H5.08315V0.847656Z" fill="black"/>
<path d="M13.1704 0.847656H12.1704V32.8477H13.1704V0.847656Z" fill="black"/>
<path d="M21.2577 0.847656H20.2577V32.8477H21.2577V0.847656Z" fill="black"/>
<path d="M29.345 0.847656H28.345V32.8477H29.345V0.847656Z" fill="black"/>
<path d="M37.4323 0.847656H36.4323V32.8477H37.4323V0.847656Z" fill="black"/>
<path d="M45.5196 0.847656H44.5196V32.8477H45.5196V0.847656Z" fill="black"/>
<path d="M53.6068 0.847656H52.6068V32.8477H53.6068V0.847656Z" fill="black"/>
<path d="M61.6941 0.847656H60.6941V32.8477H61.6941V0.847656Z" fill="black"/>
<path d="M69.7814 0.847656H68.7814V32.8477H69.7814V0.847656Z" fill="black"/>
<path d="M77.8687 0.847656H76.8687V32.8477H77.8687V0.847656Z" fill="black"/>
<path d="M85.956 0.847656H84.956V32.8477H85.956V0.847656Z" fill="black"/>
<path d="M94.0433 0.847656H93.0433V32.8477H94.0433V0.847656Z" fill="black"/>
<path d="M102.127 0.847656H101.127V32.8477H102.127V0.847656Z" fill="black"/>
<path d="M110.214 0.847656H109.214V32.8477H110.214V0.847656Z" fill="black"/>
<path d="M118.301 0.847656H117.301V32.8477H118.301V0.847656Z" fill="black"/>
<path d="M126.389 0.847656H125.389V32.8477H126.389V0.847656Z" fill="black"/>
<path d="M134.476 0.847656H133.476V32.8477H134.476V0.847656Z" fill="black"/>
<path d="M142.563 0.847656H141.563V32.8477H142.563V0.847656Z" fill="black"/>
<path d="M150.651 0.847656H149.651V32.8477H150.651V0.847656Z" fill="black"/>
<path d="M158.738 0.847656H157.738V32.8477H158.738V0.847656Z" fill="black"/>
<path d="M166.825 0.847656H165.825V32.8477H166.825V0.847656Z" fill="black"/>
<path d="M174.912 0.847656H173.912V32.8477H174.912V0.847656Z" fill="black"/>
<path d="M183 0.847656H182V32.8477H183V0.847656Z" fill="black"/>
<path d="M191.083 0.847656H190.083V32.8477H191.083V0.847656Z" fill="black"/>
<path d="M199.171 0.847656H198.171V32.8477H199.171V0.847656Z" fill="black"/>
<path d="M207.258 0.847656H206.258V32.8477H207.258V0.847656Z" fill="black"/>
<path d="M215.345 0.847656H214.345V32.8477H215.345V0.847656Z" fill="black"/>
<path d="M223.433 0.847656H222.433V32.8477H223.433V0.847656Z" fill="black"/>
<path d="M231.52 0.847656H230.52V32.8477H231.52V0.847656Z" fill="black"/>
<path d="M239.607 0.847656H238.607V32.8477H239.607V0.847656Z" fill="black"/>
<path d="M247.694 0.847656H246.694V32.8477H247.694V0.847656Z" fill="black"/>
<path d="M255.782 0.847656H254.782V32.8477H255.782V0.847656Z" fill="black"/>
<path d="M263.869 0.847656H262.869V32.8477H263.869V0.847656Z" fill="black"/>
<path d="M271.956 0.847656H270.956V32.8477H271.956V0.847656Z" fill="black"/>
<path d="M280.043 0.847656H279.043V32.8477H280.043V0.847656Z" fill="black"/>
<path d="M288.127 0.847656H287.127V32.8477H288.127V0.847656Z" fill="black"/>
<path d="M296.214 0.847656H295.214V32.8477H296.214V0.847656Z" fill="black"/>
<path d="M304.302 0.847656H303.302V32.8477H304.302V0.847656Z" fill="black"/>
<path d="M312.389 0.847656H311.389V32.8477H312.389V0.847656Z" fill="black"/>
<path d="M320.476 0.847656H319.476V32.8477H320.476V0.847656Z" fill="black"/>
<path d="M328.564 0.847656H327.564V32.8477H328.564V0.847656Z" fill="black"/>
<path d="M336.651 0.847656H335.651V32.8477H336.651V0.847656Z" fill="black"/>
<path d="M344.738 0.847656H343.738V32.8477H344.738V0.847656Z" fill="black"/>
<path d="M352.825 0.847656H351.825V32.8477H352.825V0.847656Z" fill="black"/>
<path d="M360.913 0.847656H359.913V32.8477H360.913V0.847656Z" fill="black"/>
<path d="M369 0.847656H368V32.8477H369V0.847656Z" fill="black"/>
<path d="M377.084 0.847656H376.084V32.8477H377.084V0.847656Z" fill="black"/>
<path d="M5.78497 32.8477H3.38496V64.8477H5.78497V32.8477Z" fill="black"/>
<path d="M13.8577 32.8477H11.4868V64.8477H13.8577V32.8477Z" fill="black"/>
<path d="M21.9268 32.8477H19.5886V64.8477H21.9268V32.8477Z" fill="black"/>
<path d="M29.9995 32.8477H27.6905V64.8477H29.9995V32.8477Z" fill="black"/>
<path d="M38.0723 32.8477H35.7923V64.8477H38.0723V32.8477Z" fill="black"/>
<path d="M46.1414 32.8477H43.8941V64.8477H46.1414V32.8477Z" fill="black"/>
<path d="M54.2178 32.8477H51.9996V64.8477H54.2178V32.8477Z" fill="black"/>
<path d="M62.2869 32.8477H60.1014V64.8477H62.2869V32.8477Z" fill="black"/>
<path d="M70.3596 32.8477H68.2032V64.8477H70.3596V32.8477Z" fill="black"/>
<path d="M78.4323 32.8477H76.3051V64.8477H78.4323V32.8477Z" fill="black"/>
<path d="M86.5014 32.8477H84.4069V64.8477H86.5014V32.8477Z" fill="black"/>
<path d="M94.5742 32.8477H92.5087V64.8477H94.5742V32.8477Z" fill="black"/>
<path d="M102.647 32.8477H100.611V64.8477H102.647V32.8477Z" fill="black"/>
<path d="M110.716 32.8477H108.712V64.8477H110.716V32.8477Z" fill="black"/>
<path d="M118.789 32.8477H116.814V64.8477H118.789V32.8477Z" fill="black"/>
<path d="M126.858 32.8477H124.916V64.8477H126.858V32.8477Z" fill="black"/>
<path d="M134.934 32.8477H133.021V64.8477H134.934V32.8477Z" fill="black"/>
<path d="M143.007 32.8477H141.123V64.8477H143.007V32.8477Z" fill="black"/>
<path d="M151.076 32.8477H149.225V64.8477H151.076V32.8477Z" fill="black"/>
<path d="M159.149 32.8477H157.327V64.8477H159.149V32.8477Z" fill="black"/>
<path d="M167.222 32.8477H165.429V64.8477H167.222V32.8477Z" fill="black"/>
<path d="M175.291 32.8477H173.531V64.8477H175.291V32.8477Z" fill="black"/>
<path d="M183.363 32.8477H181.632V64.8477H183.363V32.8477Z" fill="black"/>
<path d="M191.436 32.8477H189.734V64.8477H191.436V32.8477Z" fill="black"/>
<path d="M199.505 32.8477H197.836V64.8477H199.505V32.8477Z" fill="black"/>
<path d="M207.578 32.8477H205.938V64.8477H207.578V32.8477Z" fill="black"/>
<path d="M215.651 32.8477H214.043V64.8477H215.651V32.8477Z" fill="black"/>
<path d="M223.723 32.8477H222.145V64.8477H223.723V32.8477Z" fill="black"/>
<path d="M231.796 32.8477H230.247V64.8477H231.796V32.8477Z" fill="black"/>
<path d="M239.865 32.8477H238.349V64.8477H239.865V32.8477Z" fill="black"/>
<path d="M247.938 32.8477H246.451V64.8477H247.938V32.8477Z" fill="black"/>
<path d="M256.011 32.8477H254.553V64.8477H256.011V32.8477Z" fill="black"/>
<path d="M264.08 32.8477H262.654V64.8477H264.08V32.8477Z" fill="black"/>
<path d="M272.153 32.8477H270.756V64.8477H272.153V32.8477Z" fill="black"/>
<path d="M280.222 32.8477H278.858V64.8477H280.222V32.8477Z" fill="black"/>
<path d="M288.294 32.8477H286.96V64.8477H288.294V32.8477Z" fill="black"/>
<path d="M296.371 32.8477H295.065V64.8477H296.371V32.8477Z" fill="black"/>
<path d="M304.44 32.8477H303.167V64.8477H304.44V32.8477Z" fill="black"/>
<path d="M312.513 32.8477H311.269V64.8477H312.513V32.8477Z" fill="black"/>
<path d="M320.585 32.8477H319.371V64.8477H320.585V32.8477Z" fill="black"/>
<path d="M328.654 32.8477H327.473V64.8477H328.654V32.8477Z" fill="black"/>
<path d="M336.727 32.8477H335.574V64.8477H336.727V32.8477Z" fill="black"/>
<path d="M344.796 32.8477H343.676V64.8477H344.796V32.8477Z" fill="black"/>
<path d="M352.869 32.8477H351.778V64.8477H352.869V32.8477Z" fill="black"/>
<path d="M360.942 32.8477H359.88V64.8477H360.942V32.8477Z" fill="black"/>
<path d="M369.011 32.8477H367.982V64.8477H369.011V32.8477Z" fill="black"/>
<path d="M377.084 32.8477H376.084V64.8477H377.084V32.8477Z" fill="black"/>
<path d="M6.48315 64.8477H2.68315V96.8478H6.48315V64.8477Z" fill="black"/>
<path d="M14.5413 64.8477H10.8032V96.8478H14.5413V64.8477Z" fill="black"/>
<path d="M22.5995 64.8477H18.9195V96.8478H22.5995V64.8477Z" fill="black"/>
<path d="M30.6541 64.8477H27.0359V96.8478H30.6541V64.8477Z" fill="black"/>
<path d="M38.7123 64.8477H35.1559V96.8478H38.7123V64.8477Z" fill="black"/>
<path d="M46.7668 64.8477H43.2723V96.8478H46.7668V64.8477Z" fill="black"/>
<path d="M54.825 64.8477H51.3887V96.8478H54.825V64.8477Z" fill="black"/>
<path d="M62.8796 64.8477H59.505V96.8478H62.8796V64.8477Z" fill="black"/>
<path d="M70.9378 64.8477H67.625V96.8478H70.9378V64.8477Z" fill="black"/>
<path d="M78.9923 64.8477H75.7414V96.8478H78.9923V64.8477Z" fill="black"/>
<path d="M87.0505 64.8477H83.8578V96.8478H87.0505V64.8477Z" fill="black"/>
<path d="M95.1087 64.8477H91.9778V96.8478H95.1087V64.8477Z" fill="black"/>
<path d="M103.163 64.8477H100.094V96.8478H103.163V64.8477Z" fill="black"/>
<path d="M111.218 64.8477H108.211V96.8478H111.218V64.8477Z" fill="black"/>
<path d="M119.276 64.8477H116.327V96.8478H119.276V64.8477Z" fill="black"/>
<path d="M127.334 64.8477H124.447V96.8478H127.334V64.8477Z" fill="black"/>
<path d="M135.389 64.8477H132.563V96.8478H135.389V64.8477Z" fill="black"/>
<path d="M143.443 64.8477H140.68V96.8478H143.443V64.8477Z" fill="black"/>
<path d="M151.505 64.8477H148.8V96.8478H151.505V64.8477Z" fill="black"/>
<path d="M159.56 64.8477H156.916V96.8478H159.56V64.8477Z" fill="black"/>
<path d="M167.614 64.8477H165.032V96.8478H167.614V64.8477Z" fill="black"/>
<path d="M175.669 64.8477H173.149V96.8478H175.669V64.8477Z" fill="black"/>
<path d="M183.731 64.8477H181.269V96.8478H183.731V64.8477Z" fill="black"/>
<path d="M191.785 64.8477H189.385V96.8478H191.785V64.8477Z" fill="black"/>
<path d="M199.84 64.8477H197.502V96.8478H199.84V64.8477Z" fill="black"/>
<path d="M207.902 64.8477H205.622V96.8478H207.902V64.8477Z" fill="black"/>
<path d="M215.956 64.8477H213.738V96.8478H215.956V64.8477Z" fill="black"/>
<path d="M224.011 64.8477H221.854V96.8478H224.011V64.8477Z" fill="black"/>
<path d="M232.065 64.8477H229.971V96.8478H232.065V64.8477Z" fill="black"/>
<path d="M240.127 64.8477H238.091V96.8478H240.127V64.8477Z" fill="black"/>
<path d="M248.182 64.8477H246.207V96.8478H248.182V64.8477Z" fill="black"/>
<path d="M256.236 64.8477H254.323V96.8478H256.236V64.8477Z" fill="black"/>
<path d="M264.294 64.8477H262.443V96.8478H264.294V64.8477Z" fill="black"/>
<path d="M272.353 64.8477H270.56V96.8478H272.353V64.8477Z" fill="black"/>
<path d="M280.407 64.8477H278.676V96.8478H280.407V64.8477Z" fill="black"/>
<path d="M288.462 64.8477H286.793V96.8478H288.462V64.8477Z" fill="black"/>
<path d="M296.52 64.8477H294.913V96.8478H296.52V64.8477Z" fill="black"/>
<path d="M304.578 64.8477H303.029V96.8478H304.578V64.8477Z" fill="black"/>
<path d="M312.633 64.8477H311.145V96.8478H312.633V64.8477Z" fill="black"/>
<path d="M320.691 64.8477H319.265V96.8478H320.691V64.8477Z" fill="black"/>
<path d="M328.745 64.8477H327.382V96.8478H328.745V64.8477Z" fill="black"/>
<path d="M336.804 64.8477H335.498V96.8478H336.804V64.8477Z" fill="black"/>
<path d="M344.858 64.8477H343.615V96.8478H344.858V64.8477Z" fill="black"/>
<path d="M352.916 64.8477H351.734V96.8478H352.916V64.8477Z" fill="black"/>
<path d="M360.971 64.8477H359.851V96.8478H360.971V64.8477Z" fill="black"/>
<path d="M369.029 64.8477H367.967V96.8478H369.029V64.8477Z" fill="black"/>
<path d="M377.084 64.8477H376.084V96.8478H377.084V64.8477Z" fill="black"/>
<path d="M7.18497 96.8478H1.98496V128.848H7.18497V96.8478Z" fill="black"/>
<path d="M15.225 96.8478H10.1159V128.848H15.225V96.8478Z" fill="black"/>
<path d="M23.2686 96.8478H18.2504V128.848H23.2686V96.8478Z" fill="black"/>
<path d="M31.3086 96.8478H26.3814V128.848H31.3086V96.8478Z" fill="black"/>
<path d="M39.3523 96.8478H34.5159V128.848H39.3523V96.8478Z" fill="black"/>
<path d="M47.3887 96.8478H42.6468V128.848H47.3887V96.8478Z" fill="black"/>
<path d="M55.4323 96.8478H50.7814V128.848H55.4323V96.8478Z" fill="black"/>
<path d="M63.4723 96.8478H58.9123V128.848H63.4723V96.8478Z" fill="black"/>
<path d="M71.516 96.8478H67.0469V128.848H71.516V96.8478Z" fill="black"/>
<path d="M79.556 96.8478H75.1778V128.848H79.556V96.8478Z" fill="black"/>
<path d="M87.5996 96.8478H83.3123V128.848H87.5996V96.8478Z" fill="black"/>
<path d="M95.6396 96.8478H91.4433V128.848H95.6396V96.8478Z" fill="black"/>
<path d="M103.683 96.8478H99.5778V128.848H103.683V96.8478Z" fill="black"/>
<path d="M111.723 96.8478H107.709V128.848H111.723V96.8478Z" fill="black"/>
<path d="M119.763 96.8478H115.843V128.848H119.763V96.8478Z" fill="black"/>
<path d="M127.803 96.8478H123.974V128.848H127.803V96.8478Z" fill="black"/>
<path d="M135.843 96.8478H132.105V128.848H135.843V96.8478Z" fill="black"/>
<path d="M143.887 96.8478H140.24V128.848H143.887V96.8478Z" fill="black"/>
<path d="M151.927 96.8478H148.371V128.848H151.927V96.8478Z" fill="black"/>
<path d="M159.971 96.8478H156.505V128.848H159.971V96.8478Z" fill="black"/>
<path d="M168.011 96.8478H164.636V128.848H168.011V96.8478Z" fill="black"/>
<path d="M176.054 96.8478H172.771V128.848H176.054V96.8478Z" fill="black"/>
<path d="M184.094 96.8478H180.902V128.848H184.094V96.8478Z" fill="black"/>
<path d="M192.138 96.8478H189.036V128.848H192.138V96.8478Z" fill="black"/>
<path d="M200.174 96.8478H197.167V128.848H200.174V96.8478Z" fill="black"/>
<path d="M208.218 96.8478H205.302V128.848H208.218V96.8478Z" fill="black"/>
<path d="M216.258 96.8478H213.433V128.848H216.258V96.8478Z" fill="black"/>
<path d="M224.302 96.8478H221.567V128.848H224.302V96.8478Z" fill="black"/>
<path d="M232.342 96.8478H229.698V128.848H232.342V96.8478Z" fill="black"/>
<path d="M240.385 96.8478H237.833V128.848H240.385V96.8478Z" fill="black"/>
<path d="M248.425 96.8478H245.963V128.848H248.425V96.8478Z" fill="black"/>
<path d="M256.465 96.8478H254.094V128.848H256.465V96.8478Z" fill="black"/>
<path d="M264.509 96.8478H262.229V128.848H264.509V96.8478Z" fill="black"/>
<path d="M272.545 96.8478H270.36V128.848H272.545V96.8478Z" fill="black"/>
<path d="M280.589 96.8478H278.494V128.848H280.589V96.8478Z" fill="black"/>
<path d="M288.629 96.8478H286.625V128.848H288.629V96.8478Z" fill="black"/>
<path d="M296.673 96.8478H294.76V128.848H296.673V96.8478Z" fill="black"/>
<path d="M304.713 96.8478H302.891V128.848H304.713V96.8478Z" fill="black"/>
<path d="M312.756 96.8478H311.025V128.848H312.756V96.8478Z" fill="black"/>
<path d="M320.796 96.8478H319.156V128.848H320.796V96.8478Z" fill="black"/>
<path d="M328.84 96.8478H327.291V128.848H328.84V96.8478Z" fill="black"/>
<path d="M336.88 96.8478H335.422V128.848H336.88V96.8478Z" fill="black"/>
<path d="M344.92 96.8478H343.556V128.848H344.92V96.8478Z" fill="black"/>
<path d="M352.96 96.8478H351.687V128.848H352.96V96.8478Z" fill="black"/>
<path d="M361.004 96.8478H359.822V128.848H361.004V96.8478Z" fill="black"/>
<path d="M369.044 96.8478H367.953V128.848H369.044V96.8478Z" fill="black"/>
<path d="M377.084 96.8478H376.084V128.848H377.084V96.8478Z" fill="black"/>
<path d="M7.88679 128.848H1.28678V160.848H7.88679V128.848Z" fill="black"/>
<path d="M15.9123 128.848H9.43224V160.848H15.9123V128.848Z" fill="black"/>
<path d="M23.9377 128.848H17.5813V160.848H23.9377V128.848Z" fill="black"/>
<path d="M31.9632 128.848H25.7268V160.848H31.9632V128.848Z" fill="black"/>
<path d="M39.9886 128.848H33.8759V160.848H39.9886V128.848Z" fill="black"/>
<path d="M48.0177 128.848H42.025V160.848H48.0177V128.848Z" fill="black"/>
<path d="M56.0396 128.848H50.1705V160.848H56.0396V128.848Z" fill="black"/>
<path d="M64.0687 128.848H58.3196V160.848H64.0687V128.848Z" fill="black"/>
<path d="M72.0941 128.848H66.4687V160.848H72.0941V128.848Z" fill="black"/>
<path d="M80.1196 128.848H74.6141V160.848H80.1196V128.848Z" fill="black"/>
<path d="M88.1451 128.848H82.7632V160.848H88.1451V128.848Z" fill="black"/>
<path d="M96.1742 128.848H90.9123V160.848H96.1742V128.848Z" fill="black"/>
<path d="M104.196 128.848H99.0578V160.848H104.196V128.848Z" fill="black"/>
<path d="M112.225 128.848H107.207V160.848H112.225V128.848Z" fill="black"/>
<path d="M120.251 128.848H115.356V160.848H120.251V128.848Z" fill="black"/>
<path d="M128.276 128.848H123.501V160.848H128.276V128.848Z" fill="black"/>
<path d="M136.301 128.848H131.651V160.848H136.301V128.848Z" fill="black"/>
<path d="M144.331 128.848H139.8V160.848H144.331V128.848Z" fill="black"/>
<path d="M152.352 128.848H147.945V160.848H152.352V128.848Z" fill="black"/>
<path d="M160.382 128.848H156.094V160.848H160.382V128.848Z" fill="black"/>
<path d="M168.407 128.848H164.243V160.848H168.407V128.848Z" fill="black"/>
<path d="M176.432 128.848H172.389V160.848H176.432V128.848Z" fill="black"/>
<path d="M184.458 128.848H180.538V160.848H184.458V128.848Z" fill="black"/>
<path d="M192.483 128.848H188.683V160.848H192.483V128.848Z" fill="black"/>
<path d="M200.512 128.848H196.832V160.848H200.512V128.848Z" fill="black"/>
<path d="M208.538 128.848H204.982V160.848H208.538V128.848Z" fill="black"/>
<path d="M216.563 128.848H213.127V160.848H216.563V128.848Z" fill="black"/>
<path d="M224.589 128.848H221.276V160.848H224.589V128.848Z" fill="black"/>
<path d="M232.618 128.848H229.425V160.848H232.618V128.848Z" fill="black"/>
<path d="M240.64 128.848H237.571V160.848H240.64V128.848Z" fill="black"/>
<path d="M248.669 128.848H245.72V160.848H248.669V128.848Z" fill="black"/>
<path d="M256.694 128.848H253.869V160.848H256.694V128.848Z" fill="black"/>
<path d="M264.72 128.848H262.014V160.848H264.72V128.848Z" fill="black"/>
<path d="M272.745 128.848H270.163V160.848H272.745V128.848Z" fill="black"/>
<path d="M280.774 128.848H278.313V160.848H280.774V128.848Z" fill="black"/>
<path d="M288.796 128.848H286.458V160.848H288.796V128.848Z" fill="black"/>
<path d="M296.825 128.848H294.607V160.848H296.825V128.848Z" fill="black"/>
<path d="M304.851 128.848H302.756V160.848H304.851V128.848Z" fill="black"/>
<path d="M312.876 128.848H310.902V160.848H312.876V128.848Z" fill="black"/>
<path d="M320.902 128.848H319.051V160.848H320.902V128.848Z" fill="black"/>
<path d="M328.931 128.848H327.2V160.848H328.931V128.848Z" fill="black"/>
<path d="M336.953 128.848H335.345V160.848H336.953V128.848Z" fill="black"/>
<path d="M344.982 128.848H343.494V160.848H344.982V128.848Z" fill="black"/>
<path d="M353.007 128.848H351.644V160.848H353.007V128.848Z" fill="black"/>
<path d="M361.033 128.848H359.789V160.848H361.033V128.848Z" fill="black"/>
<path d="M369.058 128.848H367.938V160.848H369.058V128.848Z" fill="black"/>
<path d="M377.084 128.848H376.084V160.848H377.084V128.848Z" fill="black"/>
<path d="M8.58497 160.848H0.584961V192.848H8.58497V160.848Z" fill="black"/>
<path d="M16.5959 160.848H8.74861V192.848H16.5959V160.848Z" fill="black"/>
<path d="M24.6068 160.848H16.9123V192.848H24.6068V160.848Z" fill="black"/>
<path d="M32.6177 160.848H25.0759V192.848H32.6177V160.848Z" fill="black"/>
<path d="M40.6286 160.848H33.2359V192.848H40.6286V160.848Z" fill="black"/>
<path d="M48.6396 160.848H41.3996V192.848H48.6396V160.848Z" fill="black"/>
<path d="M56.6505 160.848H49.5632V192.848H56.6505V160.848Z" fill="black"/>
<path d="M64.6614 160.848H57.7269V192.848H64.6614V160.848Z" fill="black"/>
<path d="M72.6723 160.848H65.8905V192.848H72.6723V160.848Z" fill="black"/>
<path d="M80.6832 160.848H74.0541V192.848H80.6832V160.848Z" fill="black"/>
<path d="M88.6942 160.848H82.2141V192.848H88.6942V160.848Z" fill="black"/>
<path d="M96.7051 160.848H90.3778V192.848H96.7051V160.848Z" fill="black"/>
<path d="M104.716 160.848H98.5415V192.848H104.716V160.848Z" fill="black"/>
<path d="M112.727 160.848H106.705V192.848H112.727V160.848Z" fill="black"/>
<path d="M120.738 160.848H114.869V192.848H120.738V160.848Z" fill="black"/>
<path d="M128.749 160.848H123.032V192.848H128.749V160.848Z" fill="black"/>
<path d="M136.756 160.848H131.192V192.848H136.756V160.848Z" fill="black"/>
<path d="M144.771 160.848H139.356V192.848H144.771V160.848Z" fill="black"/>
<path d="M152.782 160.848H147.52V192.848H152.782V160.848Z" fill="black"/>
<path d="M160.792 160.848H155.683V192.848H160.792V160.848Z" fill="black"/>
<path d="M168.803 160.848H163.847V192.848H168.803V160.848Z" fill="black"/>
<path d="M176.814 160.848H172.011V192.848H176.814V160.848Z" fill="black"/>
<path d="M184.822 160.848H180.171V192.848H184.822V160.848Z" fill="black"/>
<path d="M192.836 160.848H188.334V192.848H192.836V160.848Z" fill="black"/>
<path d="M200.847 160.848H196.498V192.848H200.847V160.848Z" fill="black"/>
<path d="M208.858 160.848H204.662V192.848H208.858V160.848Z" fill="black"/>
<path d="M216.869 160.848H212.825V192.848H216.869V160.848Z" fill="black"/>
<path d="M224.88 160.848H220.989V192.848H224.88V160.848Z" fill="black"/>
<path d="M232.887 160.848H229.149V192.848H232.887V160.848Z" fill="black"/>
<path d="M240.898 160.848H237.313V192.848H240.898V160.848Z" fill="black"/>
<path d="M248.913 160.848H245.476V192.848H248.913V160.848Z" fill="black"/>
<path d="M256.923 160.848H253.64V192.848H256.923V160.848Z" fill="black"/>
<path d="M264.934 160.848H261.803V192.848H264.934V160.848Z" fill="black"/>
<path d="M272.945 160.848H269.967V192.848H272.945V160.848Z" fill="black"/>
<path d="M280.953 160.848H278.127V192.848H280.953V160.848Z" fill="black"/>
<path d="M288.964 160.848H286.291V192.848H288.964V160.848Z" fill="black"/>
<path d="M296.974 160.848H294.454V192.848H296.974V160.848Z" fill="black"/>
<path d="M304.989 160.848H302.618V192.848H304.989V160.848Z" fill="black"/>
<path d="M313 160.848H310.782V192.848H313V160.848Z" fill="black"/>
<path d="M321.011 160.848H318.945V192.848H321.011V160.848Z" fill="black"/>
<path d="M329.018 160.848H327.105V192.848H329.018V160.848Z" fill="black"/>
<path d="M337.029 160.848H335.269V192.848H337.029V160.848Z" fill="black"/>
<path d="M345.04 160.848H343.433V192.848H345.04V160.848Z" fill="black"/>
<path d="M353.054 160.848H351.596V192.848H353.054V160.848Z" fill="black"/>
<path d="M361.065 160.848H359.76V192.848H361.065V160.848Z" fill="black"/>
<path d="M369.076 160.848H367.924V192.848H369.076V160.848Z" fill="black"/>
<path d="M377.084 160.848H376.084V192.848H377.084V160.848Z" fill="black"/>
</svg>
