<?xml version="1.0" encoding="utf-8"?>
<!-- Generator: Adobe Illustrator 26.2.1, SVG Export Plug-In . SVG Version: 6.00 Build 0)  -->
<svg version="1.1" id="Dark" xmlns="http://www.w3.org/2000/svg" xmlns:xlink="http://www.w3.org/1999/xlink" x="0px" y="0px"
	 viewBox="0 0 681.6 865.6" style="enable-background:new 0 0 681.6 865.6;" xml:space="preserve">
<style type="text/css">
	.st0{fill-rule:evenodd;clip-rule:evenodd;fill:#CED4DB;}
	.st1{fill-rule:evenodd;clip-rule:evenodd;fill:#09264A;}
	.st2{fill:#09264A;}
	.st3{fill-rule:evenodd;clip-rule:evenodd;fill:url(#SVGID_1_);}
	.st4{fill:none;stroke:#FFFFFF;stroke-width:6;stroke-linejoin:round;}
</style>
<path class="st0" d="M3,197.8L340.8,3l337.8,194.8L340.4,393.2L3,197.8z"/>
<path class="st0" d="M3.3,195.7l338.2,195.4v426.7L3.3,622.4V195.7z"/>
<path class="st1" d="M168.8,293.5l337.6-195l7.1,4.1L176,297.6L168.8,293.5z"/>
<path class="st2" d="M342.2,392l-302-174.5c-0.6,0.8-1.2,1.6-1.8,2.4L340,394.2C340.7,393.4,341.4,392.7,342.2,392z"/>
<path class="st1" d="M678.6,197.8L340.4,393.2v424.4l338.2-195.4V197.8z"/>
<path class="st2" d="M595.9,243.9l-150.4,86.9c1.2,0.4,2.3,0.9,3.3,1.5l148.4-85.8C596.8,245.6,596.3,244.8,595.9,243.9z"/>
<path class="st2" d="M341.9,452.6v-58.5l56.7-32.8c-0.6-0.8-1.1-1.7-1.6-2.5l-57.4,33.1c-0.4,0.3-0.7,0.8-0.7,1.3v59.6h2.8
	C341.7,452.6,341.8,452.6,341.9,452.6z"/>
<linearGradient id="SVGID_1_" gradientUnits="userSpaceOnUse" x1="414.0232" y1="789.3704" x2="189.9334" y2="494.3803">
	<stop  offset="0" style="stop-color:#09264A"/>
	<stop  offset="0.1026" style="stop-color:#122E51"/>
	<stop  offset="0.2701" style="stop-color:#2A4363"/>
	<stop  offset="0.4816" style="stop-color:#526780"/>
	<stop  offset="0.7287" style="stop-color:#8997A8"/>
	<stop  offset="1" style="stop-color:#CED4DB"/>
</linearGradient>
<path class="st3" d="M387.7,569.1c-25.7-48.7-56.9-83.7-93.6-104.9c-28.6-16.5-53.9-20.7-75.8-12.8l-65.9,38.5l13.8,29.6
	c-2.8,12.7-4.1,26.9-4.1,42.8c0,30.8,5.2,61.7,15.6,92.7l98,145.8c5.9,4.4,12,8.4,18.4,12.1c3.8,2.2,7.5,4.1,11.1,5.9l16.9,36.1
	l52-30.8c4.8-2.2,9.4-4.9,13.6-8c25.7-19.1,38.6-52.9,38.5-101.3C426.1,666.4,413.3,617.8,387.7,569.1z"/>
<path class="st2" d="M389,568.4c-25.7-48.7-57.3-84.2-94.1-105.5s-69.1-22.4-95.2-3.1l-0.6,0.5l-0.3,0.2l-15.4,8.8l1.3,1.7l0.7,0.7
	l15-8.6h0.1l0.4-0.3l0.6-0.4c25-18.6,55.9-17.5,91.9,3.2s67.5,56.1,93,104.3s38.3,97.1,38.3,145c0,8.7-0.5,17.4-1.4,26l3,0.2
	c0.9-8.7,1.4-17.4,1.4-26.2C427.7,666.4,414.7,617.1,389,568.4z"/>
<path class="st0" d="M105.4,595.3c0,48.4,12.8,97,38.5,145.7c25.7,48.7,56.9,83.7,93.6,104.9c36.7,21.2,67.9,22.3,93.5,3.2
	s38.5-52.8,38.6-101.3c0-48.4-12.9-97-38.6-145.7s-56.9-83.7-93.5-104.9c-36.7-21.2-67.9-22.3-93.6-3.2
	C118.2,513.1,105.4,546.8,105.4,595.3z"/>
<path class="st2" d="M238.2,495.9c-37.1-21.4-69.1-22.4-95.2-3.1s-38.4,52-39.1,98.8h3c0.7-45.8,13.4-78.2,37.9-96.4
	c11.3-8.5,25.1-13.1,39.3-13.1c16.1,0,33.6,5.4,52.6,16.4c15.6,9.1,29.8,20.3,42.4,33.2l2.3-1.9
	C268.6,516.6,254.1,505.2,238.2,495.9z"/>
<path class="st2" d="M344,625.5l-2.4,2.1c17.6,40.1,26.5,80.5,26.5,120.2c0,24.1-3.3,44.5-9.8,61.4l2.9,0.8
	c6.6-17.1,9.9-37.8,9.9-62.2C371.1,707.3,362,666.3,344,625.5z"/>
<path class="st2" d="M246.2,758.5c-1.7-0.1-3.3-0.6-4.7-1.4l-9.6-5.6c-3.1-1.9-5.7-4.6-7.4-7.9c-1.9-3.2-2.9-6.8-3-10.5v-51.6
	l-42.4-24.4c-3.1-1.9-5.7-4.7-7.4-8c-1.9-3.2-2.9-6.8-3-10.5v-11.7c0-3.7,1.2-6.3,3.5-7.8s5.2-1.4,8.3,0.4l41,23.6v-49.8
	c0-3.7,1.2-6.4,3.6-7.9s5.2-1.4,8.3,0.4l9.6,5.6c3.1,1.9,5.6,4.7,7.3,7.9c1.9,3.2,2.9,6.8,3,10.5v51.6l42.5,24.4
	c3.1,1.9,5.6,4.7,7.3,8c1.9,3.2,2.9,6.8,3,10.5V716c0,3.7-1.1,6.3-3.5,7.8s-5.2,1.4-8.3-0.4l-41-23.6v49.8c0,3.7-1.2,6.4-3.5,7.9
	C248.7,758.2,247.5,758.5,246.2,758.5z M175.8,621.1c-0.7,0-1.3,0.2-1.9,0.5c-1.5,1-2.2,2.7-2.2,5.3v11.7c0.1,3.2,1,6.3,2.6,9h0.1
	c1.4,2.8,3.6,5.1,6.2,6.8l43.2,24.8c0.4,0.3,0.7,0.8,0.7,1.3V733c0.1,3.2,1,6.3,2.7,9c1.4,2.8,3.5,5.2,6.2,6.9l9.6,5.5
	c2.1,1.2,3.8,1.3,5.2,0.4s2.1-2.6,2.1-5.3v-52.3c0-0.5,0.3-1,0.8-1.3c0.5-0.2,1-0.2,1.5,0l43.2,24.9c2.1,1.2,3.8,1.3,5.2,0.5
	s2.1-2.7,2.1-5.3v-11.7c-0.1-3.2-1-6.3-2.6-9c-1.4-2.8-3.6-5.2-6.3-6.9l-43.1-24.8c-0.5-0.3-0.8-0.8-0.8-1.3v-52.5
	c-0.1-3.2-1-6.3-2.6-9c-1.4-2.8-3.6-5.2-6.3-6.9l-9.5-5.5c-2.1-1.2-3.8-1.3-5.2-0.4s-2.2,2.6-2.2,5.3v52.4c0,0.5-0.3,1-0.7,1.3
	c-0.5,0.2-1,0.2-1.5,0l-43.2-24.9C178.1,621.5,177,621.1,175.8,621.1z"/>
<path class="st4" d="M678.6,197.8L340.8,3L3,197.8l0.3,0.2v424.4L122,690.9c6,17.2,13.4,34,21.9,50.1
	c25.7,48.7,56.9,83.7,93.6,104.9c32.5,18.7,60.6,21.6,84.5,8.9h0.1l52-30.8c4.8-2.2,9.4-4.9,13.6-8c13.7-10.2,23.8-24.6,30.2-43.3
	l260.7-150.5V197.8z"/>
</svg>
