<?xml version="1.0" encoding="utf-8"?>
<!-- Generator: Adobe Illustrator 26.2.1, SVG Export Plug-In . SVG Version: 6.00 Build 0)  -->
<svg version="1.1" id="Dark" xmlns="http://www.w3.org/2000/svg" xmlns:xlink="http://www.w3.org/1999/xlink" x="0px" y="0px"
	 viewBox="0 0 2112.5 2257.6" style="enable-background:new 0 0 2112.5 2257.6;" xml:space="preserve">
<style type="text/css">
	.st0{fill-rule:evenodd;clip-rule:evenodd;fill:#09264A;}
	.st1{fill:#CED4DB;}
	.st2{fill:#FFFFFF;}
	.st3{fill-rule:evenodd;clip-rule:evenodd;fill:url(#SVGID_1_);}
	.st4{fill-rule:evenodd;clip-rule:evenodd;fill:url(#SVGID_00000090991604924969251800000012582062014691094416_);}
	.st5{fill-rule:evenodd;clip-rule:evenodd;fill:url(#SVGID_00000084488391293091129810000018304048909156262276_);}
	.st6{fill-rule:evenodd;clip-rule:evenodd;fill:#CED4DB;}
	.st7{fill:#09264A;}
	.st8{fill:none;stroke:#FFFFFF;stroke-width:14.4266;stroke-miterlimit:10;}
</style>
<path class="st0" d="M1743.1,1126.6l-590.6-341L955.6,475.1L463.4,190.9c-81.6-47.1-147.7-19.1-147.7,62.4v885.9
	c0,81.6-16.9,233.8,64.7,280.9l1291.3,810.4l162-94l-0.9-0.2c33.9-23.3,57.9-55.1,57.9-87.7v-689.1
	C1890.7,1277.9,1824.6,1173.7,1743.1,1126.6z"/>
<path class="st1" d="M713.1,335.1L463.4,190.9c-81.6-47.1-147.7-19.1-147.7,62.4v321.2h397.4V335.1z"/>
<path class="st2" d="M2105.1,1357.6c0-156-97.9-343.1-227.9-447.9c9.1-21.9,14.2-48.3,14.2-78.9c0-133.7-95.7-297.4-213.5-365.7
	c-44-25.5-84.9-33.9-118.5-27.7c-61.6-157-176.7-304.6-308.5-380.9c-107.2-62-203.2-64-268.3-17.1L799.2,145
	c0,0-117.8,190.2-117.8,348.4c0,200.5,143.3,446.3,320.5,548.7l822.1,609l202.5-115.9l0,0C2075,1505.2,2105.1,1444.2,2105.1,1357.6z
	"/>
<linearGradient id="SVGID_1_" gradientUnits="userSpaceOnUse" x1="2005.7213" y1="456.5944" x2="1672.5469" y2="18.0064" gradientTransform="matrix(1 0 0 1 -168.2 471.43)">
	<stop  offset="0" style="stop-color:#09264A"/>
	<stop  offset="0.1026" style="stop-color:#122E51"/>
	<stop  offset="0.2701" style="stop-color:#2A4363"/>
	<stop  offset="0.4816" style="stop-color:#526780"/>
	<stop  offset="0.7287" style="stop-color:#8997A8"/>
	<stop  offset="1" style="stop-color:#CED4DB"/>
</linearGradient>
<path class="st3" d="M1680.2,1022.7l197.4-114.9l-0.5-0.5c9.1-21.9,14.2-48.3,14.2-78.9c0-133.7-95.7-297.4-213.5-365.7
	c-44-25.5-84.9-33.9-118.5-27.9c-0.2-0.2-0.2-0.7-0.5-1L1361.6,549L1680.2,1022.7z"/>
<linearGradient id="SVGID_00000129165677390796601860000015909008276200628110_" gradientUnits="userSpaceOnUse" x1="2207.6838" y1="1041.6729" x2="1858.8104" y2="582.4188" gradientTransform="matrix(1 0 0 1 -168.2 471.43)">
	<stop  offset="0" style="stop-color:#09264A"/>
	<stop  offset="0.1026" style="stop-color:#122E51"/>
	<stop  offset="0.2701" style="stop-color:#2A4363"/>
	<stop  offset="0.4816" style="stop-color:#526780"/>
	<stop  offset="0.7287" style="stop-color:#8997A8"/>
	<stop  offset="1" style="stop-color:#CED4DB"/>
</linearGradient>
<path style="fill-rule:evenodd;clip-rule:evenodd;fill:url(#SVGID_00000129165677390796601860000015909008276200628110_);" d="
	M1824,1648.5l202.5-115.9c48.6-29.8,78.6-90.9,78.6-177.4c0-155.8-97.6-342.6-227.5-447.5l-266.2,155.1L1824,1648.5z"/>
<linearGradient id="SVGID_00000068654715052001157050000008065313631220752290_" gradientUnits="userSpaceOnUse" x1="1563.7123" y1="75.4921" x2="1178.204" y2="-431.988" gradientTransform="matrix(1 0 0 1 -168.2 471.43)">
	<stop  offset="0" style="stop-color:#09264A"/>
	<stop  offset="0.1026" style="stop-color:#122E51"/>
	<stop  offset="0.2701" style="stop-color:#2A4363"/>
	<stop  offset="0.4816" style="stop-color:#526780"/>
	<stop  offset="0.7287" style="stop-color:#8997A8"/>
	<stop  offset="1" style="stop-color:#CED4DB"/>
</linearGradient>
<path style="fill-rule:evenodd;clip-rule:evenodd;fill:url(#SVGID_00000068654715052001157050000008065313631220752290_);" d="
	M1559,434.5c-61.6-157-176.5-304.4-308.2-380.6c-107.2-62-203.2-64-268.3-17.1L799.2,142.4l429.2,477.3L1559,434.5z"/>
<path class="st6" d="M1677.8,1025.3c9.1-21.9,14.2-48.3,14.2-78.9c0-133.7-95.7-297.4-213.5-365.7c-43.8-25.5-84.9-33.9-118.5-27.7
	c-61.6-156.8-176.7-304.6-308.5-380.9C855,58.2,695.3,146.7,695.3,369.6c0,6.7,0.2,13.9,0.5,20.7c-124.8-22.4-214,60.6-214,218.8
	c0,200.5,143.3,446.3,320.5,548.7l818.7,473.9c157.3,91.1,284.7,20.4,284.7-157.7C1905.3,1317.2,1807.4,1130.4,1677.8,1025.3z"/>
<path class="st7" d="M1205.6,300.6c0.5-1.2,1.2-2.2,1.7-3.1c-47.6-53.1-100-97.9-154.1-128.9c-60.8-35.1-119.3-51.9-171.4-50.3
	c0,2.9-0.2,5.8-0.2,8.4c50.7-1.9,107.7,14.7,167.3,49.3c53.6,31,105.8,75.3,152.7,127.9C1202.5,302.5,1203.9,301.3,1205.6,300.6z"/>
<path class="st7" d="M1357,557.6l3.4-0.5c34.1-6.3,74.1,3.1,115.7,27.2c27.4,16.3,52.5,36.1,74.8,58.9c1.2-2.7,3.6-4.6,6.5-5.3
	c-22.8-23.5-48.7-43.9-76.9-60.6c-41.8-24.3-82.5-34.1-117.8-28.9c-15.5-38.8-33.9-76.4-55.1-112.5c-1.8,2.2-4.2,3.8-7,4.6
	c21.3,36.7,39.9,74.8,55.5,114.2L1357,557.6z"/>
<path class="st7" d="M1877.6,1587.7c1.5,0.4,3,1.1,4.3,1.9c1.3,0.1,2.5,0.5,3.6,1.2c15.9-32,24-71.7,24-117.1
	c0-153.4-95.2-341.7-227-449.4c8.7-22.4,13.2-48.3,13.2-77.7c0-47.6-12.3-99.1-32.7-148.6c-2.6,1.2-5.3,1.9-8.2,1.9
	c20.7,48.8,32.5,99.5,32.5,146.4c0,29.3-4.8,55.5-13.9,77.4l-1.2,2.9l2.6,1.9c131.3,105.8,226.3,293.1,226.3,444.8
	C1901.2,1518,1893,1556.7,1877.6,1587.7z"/>
<path class="st8" d="M2105.1,1357.6c0-156-97.9-343.1-227.9-447.9c9.1-21.9,14.2-48.3,14.2-78.9c0-133.7-95.7-297.4-213.5-365.7
	c-44-25.5-84.9-33.9-118.5-27.7c-61.6-157-176.7-304.6-308.5-380.9c-107.2-62-203.2-64-268.3-17.1L801.1,143.8
	c-65.4,35.3-105.8,113.5-105.8,225.8c0,6.7,0.2,13.9,0.5,20.7c-124.8-22.4-214,60.6-214,218.8c0,200.5,143.3,446.3,320.5,548.7
	l818.7,473.9c87.8,50.7,165.9,51.2,218.1,11.1l187.5-107.5l0,0C2075,1505.2,2105.1,1444.2,2105.1,1357.6z"/>
<path class="st6" d="M1588.7,2138.5l-7.3-24l0.3-586c0-5.1-0.3-10.3-0.8-15.5c-0.4-3.9-0.9-7.9-1.5-11.9c-0.2-1.3-0.4-2.7-0.7-4
	c-12-65.8-59.1-139.1-118.5-184c-2.4-1.8-4.9-3.6-7.3-5.4s-4.9-3.4-7.4-5.1c-3.7-2.4-7.5-4.8-11.4-7l-590.6-341L646.6,644.1
	L154.4,359.9C72.8,312.8,6.7,340.8,6.7,422.3v885.9c0,17.5,14.3,30.5,37.6,40.7l-0.6,1.6l1552,896c0,0-0.8-0.7-2.1-2.2
	C1632.1,2270.7,1657.1,2178.1,1588.7,2138.5z"/>
<path class="st0" d="M1593.6,2244.3c38.5,26.4,152.9-44.8,84.5-84.4l-96.4-55.6v134.1l14,8.1
	C1595.7,2246.5,1594.9,2245.8,1593.6,2244.3z"/>
<path class="st7" d="M1237.4,1178.2c-0.2,1-0.5,2-0.9,2.9c-0.7,1.7-1.9,2.7-3.1,3.2l198.7,114.7c3.7,2.2,7.5,4.5,11.2,6.9
	c2.4,1.6,4.9,3.3,7.3,5s4.8,3.5,7.2,5.3c58.1,44,105.2,116.9,117,181.5c0.2,1.3,0.5,2.6,0.7,3.9c0.6,3.9,1.1,7.8,1.5,11.7
	c0.5,5.1,0.7,10.2,0.7,15.2v283.7c2.7-0.1,5.3-0.2,8-0.3v-283.4c0-5.2-0.3-10.5-0.8-15.9c-0.4-4-0.9-8.1-1.6-12.2
	c-0.2-1.4-0.5-2.7-0.7-4.1c-6-32.8-20.6-67.9-42.1-101.3c-21.5-33.4-48.5-62.9-78-85.2c-2.5-1.9-5-3.7-7.4-5.4
	c-2.5-1.8-5-3.5-7.6-5.1c-3.8-2.5-7.7-4.9-11.5-7.1l-198.3-114.5C1237.7,1177.8,1237.5,1178,1237.4,1178.2z"/>
<path class="st7" d="M372.3,490.3L643.7,647L840,956.7c0.3,0.5,0.8,1,1.4,1.3l236.4,136.5c1.5-2.2,2.9-4.5,4.3-6.8L846.2,951.5
	L649.9,641.8c-0.3-0.5-0.8-1-1.4-1.3L375.9,483.2C374.7,485.5,373.5,487.9,372.3,490.3z"/>
<path class="st2" d="M1897.9,1600.9l-10.7,9.6c-2.2,1.2-3.5,3.6-3.5,6.1v432c0,28.1-20,58-54.8,82c-0.7,0.5-1.3,1.1-1.7,1.7
	l-157,91.1c-1,0.2-1.9,0.6-2.8,1.1c-24.7,17.2-56,23.5-69.8,14c-1.2-0.8-2.5-1.2-3.9-1.2L50.9,1346.6c-0.6-1.8-2-3.3-3.8-4.1
	c-22.5-9.8-33.4-21-33.4-34.2v-886c0-32.9,11.5-57.7,32.5-69.8c25.9-14.9,64-10,104.7,13.4l161.3,93.2c2.2,1.3,4.8,1.3,7,0
	s3.5-3.6,3.5-6.1V253.3c0-32.9,11.5-57.7,32.5-69.8c25.9-14.9,64-10,104.7,13.4l224.8,129.9c2,1.2,4.5,1.2,6.6,0.2s3.5-3,3.8-5.4
	c0.2-1.3,0.4-2.6,0.5-3.8c-4.3-3.1-12.8-8.8-12.9-8.3L466.9,184.8c-45.1-26-88.3-30.9-118.7-13.4c-25.5,14.7-39.5,43.8-39.5,81.9
	v187.6l-150.8-87.1c-45.1-26-88.3-30.9-118.7-13.4c-25.5,14.7-39.5,43.8-39.5,81.9v885.9c0,18.5,12.3,33.3,37.6,45.2
	c0.6,1.3,1.6,2.4,2.9,3.2l1552,896c1.2,0.7,2.5,1,3.9,1c5.8,2.5,12.4,3.6,19.3,3.6c18.9,0,40.8-8.2,58.1-19.8
	c0.6-0.2,1.2-0.4,1.8-0.7l162-94c1.1-0.6,2-1.5,2.6-2.6c36.9-26.3,57.9-59.4,57.9-91.4v-428
	C1897.7,1620.6,1897.3,1606.7,1897.9,1600.9z"/>
</svg>
