<svg xmlns="http://www.w3.org/2000/svg" xmlns:xlink="http://www.w3.org/1999/xlink" viewBox="0 0 2106.7 2247.2" > <defs> <linearGradient id="b" x1="2325.23" x2="1993.41" y1="-877.78" y2="-1314.59" gradientTransform="translate(-492 1802.4)" gradientUnits="userSpaceOnUse" > <stop offset="0" stop-color="#bbdefb"></stop> <stop offset="1" stop-color="#fff"></stop> </linearGradient> <linearGradient id="c" x1="2526.37" x2="2178.89" y1="-295.05" y2="-752.47" href="#b" ></linearGradient> <linearGradient id="d" x1="1884.99" x2="1501.04" y1="-1257.33" y2="-1762.77" href="#b" ></linearGradient> <clipPath id="a"> <path fill="none" d="M1743.4 1116.6l-590.6-341-196.9-310.5-492.2-284.2C382.1 133.8 316 161.8 316 243.3v885.9c0 81.6-16.9 233.8 64.7 280.9l1149.5 663.7 31.8 93.7s10.5 40.5 15 40 66 19 66 19l21.3-12.3 7.7 6.3 162-94-.9-.2c33.9-23.3 57.9-55.1 57.9-87.7v-689.1c0-81.6-66.1-185.8-147.6-232.9z" ></path> </clipPath> <style> .b { fill: #bbdefb; } .b, .h { fill-rule: evenodd; } .d, .h { fill: #fff; } .i { fill: #1a4e85; } </style> </defs> <path d="M1743.4 1116.6l-590.6-341-196.9-310.5-492.2-284.2C382.1 133.8 316 161.8 316 243.3v885.9c0 81.6-16.9 233.8 64.7 280.9l1149.5 663.7 31.8 93.7s10.5 40.5 15 40 66 19 66 19l21.3-12.3 7.7 6.3 162-94-.9-.2c33.9-23.3 57.9-55.1 57.9-87.7v-689.1c0-81.6-66.1-185.8-147.6-232.9z" class="b" ></path> <g clip-path="url(#a)"> <path d="M270.7 100.5h442.7v464H270.7z" class="d"></path> </g> <path d="M2099.6 1352.4c0-155.4-97.5-341.7-227-446.1 9.1-21.8 14.1-48.2 14.1-78.6 0-133.1-95.3-296.2-212.6-364.2-43.9-25.4-84.6-33.8-118.1-27.6-61.3-156.3-176-303.4-307.2-379.3-106.8-61.8-202.4-63.7-267.3-17L799 144.8l97 71.3a353 353 0 00-1.7 37.1c0 6.7.3 13.9.5 20.6-124.3-22.2-213.1 60.4-213.1 217.9 0 199.8 142.7 444.5 319.2 546.5l770.6 446.1 48.2 160.5 201.6-115.4c48.4-30 78.3-90.8 78.3-177z" class="d" ></path> <path fill="url(#b)" fill-rule="evenodd" d="M1676.5 1018.8l196.6-114.4-.5-.5c9.1-21.8 14.1-48.2 14.1-78.6 0-133.1-95.3-296.2-212.6-364.2-43.9-25.4-84.6-33.8-118.1-27.8-.2-.2-.2-.7-.5-.9l-196.3 114.7z" ></path> <path fill="url(#c)" fill-rule="evenodd" d="M1819.7 1642.2l201.6-115.5c48.4-29.7 78.3-90.5 78.3-176.7 0-155.2-97.2-341.2-226.5-445.6L1608 1058.8l143.2 411.2 20.3 11.7z" ></path> <path fill="url(#d)" fill-rule="evenodd" d="M1555.8 433.1c-61.3-156.4-175.8-303.2-307-379.1C1142-7.8 1046.4-9.7 981.5 37L799 142.1l97 71.4a353 353 0 00-1.7 37.1c0 4.1 0 8.1.3 12.2l331.9 354.7z" ></path> <path d="M1674.1 1021.5c9.1-21.8 14.1-48.2 14.1-78.6 0-133.1-95.3-296.2-212.7-364.2-43.5-25.4-84.5-33.8-118-27.6-61.3-156.1-176-303.4-307.3-379.3-195.6-113.5-354.6-25.4-354.6 196.6 0 6.7.2 13.9.5 20.6-124.3-22.3-213.2 60.4-213.2 217.9 0 199.7 142.8 444.5 319.2 546.5l815.4 472c156.7 90.8 283.6 20.4 283.6-157.1-.5-156.1-98-342.2-227-446.8z" class="h" ></path> <path d="M1203.7 299.7a30.7 30.7 0 011.7-3.1c-47.4-52.9-99.6-97.5-153.5-128.4-60.6-34.9-118.8-51.7-170.7-50 0 2.8-.3 5.7-.3 8.4 50.6-2 107.3 14.6 166.7 49 53.4 30.9 105.4 75 152.1 127.4a11.6 11.6 0 014-3.3zM1354.6 555.7l3.4-.5c34-6.2 73.7 3.1 115.1 27.1 26.1 15.3 51.3 35.2 74.5 58.6a10 10 0 016.5-5.2c-24-24.2-49.6-44.8-76.6-60.4-41.7-24.2-82.2-34-117.4-28.7a818.4 818.4 0 00-54.8-112.1 12.4 12.4 0 01-7 4.6 834.5 834.5 0 0155.3 113.7zM1873.1 1581.6a23.5 23.5 0 014.3 1.9 7.7 7.7 0 013.6 1.2c15.8-31.9 23.9-71.4 23.9-116.6 0-152.8-94.8-340.3-226.1-447.6 8.7-22.3 13.2-48.1 13.2-77.4 0-47.4-12.2-98.6-32.5-147.9a18 18 0 01-8.2 1.9c20.6 48.6 32.3 99.1 32.3 145.8 0 29.2-4.8 55.3-13.9 77.1l-1.1 2.9 2.6 1.9c130.7 105.4 225.3 291.9 225.3 443 0 44.3-8.1 82.9-23.4 113.8zM1793.3 1652.9c-49.1 16.3-109.9 5.8-174.1-31.6l-815.4-472C629 1048.3 487 805 487 606.4c0-80.4 24.2-145.3 68.5-182.2 27.5-23 62.3-35 101.3-35a205.3 205.3 0 0138.3 3.6l5 1-.2-5.3c-.2-6.7-.5-13.4-.5-20.6 0-104.1 35.2-182.2 99.2-219.1a131.5 131.5 0 0112.9-6.7 11.1 11.1 0 01-.3-8.4c0-.2.3-.4.3-.9a163.8 163.8 0 00-17.3 8.6C727.4 180 690.8 260.2 690.8 367.9c0 5.1 0 10.6.2 15.6-55.5-8.6-104.1 3.1-141.7 34-46.7 39-71.6 104.2-71.6 188.7 0 200.9 144.1 447.6 321.1 550.1l815.4 472c46.2 26.8 90.8 40.2 131 40.2a182.9 182.9 0 0036.1-3.8 83.7 83.7 0 0112-11.8z" class="i" ></path> <path fill="none" stroke="#1a4e85" stroke-miterlimit="10" stroke-width="14.17" d="M2099.6 1352.4c0-155.4-97.5-341.7-227-446.1 9.1-21.8 14.1-48.2 14.1-78.6 0-133.1-95.3-296.2-212.6-364.2-43.9-25.4-84.6-33.8-118.1-27.6-61.3-156.3-176-303.4-307.2-379.3-106.8-61.8-202.4-63.7-267.3-17L801 143.6c-65.2 35.2-105.4 113-105.4 224.8 0 6.7.2 13.9.5 20.6-124.3-22.3-213.2 60.4-213.2 217.9 0 199.7 142.8 444.5 319.2 546.5l815.4 472c87.5 50.5 165.3 51 217.2 11l186.8-107h0c48.2-30 78.1-90.8 78.1-177z" ></path> <path d="M1678.4 2149.9l-96.4-55.6v-575.8c0-5.1-.3-10.3-.8-15.5s-.9-7.9-1.5-11.9c-.2-1.3-.4-2.7-.7-4-12-65.8-59.1-139.1-118.5-184l-7.3-5.4c-2.4-1.8-4.9-3.4-7.4-5.1s-7.5-4.8-11.4-7l-590.6-341-196.9-310.5-492.2-284.2C73.1 302.8 7 330.8 7 412.3v885.9c0 17.5 14.3 30.5 37.6 40.7l-.6 1.6 1552 896-2.1-2.2c38.5 26.4 152.9-44.8 84.5-84.4z" class="h" ></path> <path fill="#bbdefb" d="M1593.9 2234.3c38.5 26.4 152.9-44.8 84.5-84.4l-96.4-55.6v134.1l14 8.1z" ></path> <path d="M1586 1878l-8-1.1v207.9c2.7-.3 5.3-.5 8-.6zM1237.7 1168.2a14 14 0 01-.9 2.9 6.1 6.1 0 01-3.1 3.2l198.7 114.7c3.7 2.2 7.5 4.5 11.2 6.9l7.3 5 7.2 5.3c58.1 44 105.2 116.9 117 181.5.2 1.3.5 2.6.7 3.9q.9 5.9 1.5 11.7c.5 5.1.7 10.2.7 15.2v283.7l8-.3v-283.4c0-5.2-.3-10.5-.8-15.9s-.9-8.1-1.6-12.2c-.2-1.4-.5-2.7-.7-4.1-6-32.8-20.6-67.9-42.1-101.3s-48.5-62.9-78-85.2l-7.4-5.4c-2.5-1.8-5-3.5-7.6-5.1s-7.7-4.9-11.5-7.1L1238 1167.7zM372.6 480.3L644 637l196.3 309.7a3.5 3.5 0 001.4 1.3l236.4 136.5c1.5-2.2 2.9-4.5 4.3-6.8L846.5 941.5 650.2 631.8a2.9 2.9 0 00-1.4-1.3L376.2 473.2zM1671.2 2220.5c-.3-1.4-.7-2.7-1-4.1a108.4 108.4 0 01-14.3 8.6c-23.5 12-47.5 14.3-59.7 5.9a3.9 3.9 0 00-2.3-.7h-.6L48.6 1338.5a3.7 3.7 0 00-2.4-3.3c-23.7-10.3-35.2-22.4-35.2-37V412.3c0-34 12.1-59.7 34-72.4 26.8-15.5 66.1-10.6 107.7 13.4l144.4 83.4c1.6-2.2 3.3-4.3 5-6.3l-145.4-84C112.6 320.9 70.4 316 41 333c-24.5 14.1-38 42.3-38 79.3v885.9c0 17.4 12.1 31.5 37 43a4 4 0 001.9 2.7l1552 896a3.9 3.9 0 002.8.4c5.4 2.4 11.8 3.5 18.9 3.5 13.1 0 28.5-4 43.8-11.8a126.9 126.9 0 0014.2-8.5 3.9 3.9 0 01-2.4-3z" class="i" ></path> <path d="M308.2 443.2l1.2-1.8c.7-1.7 1.5-3.4 2.3-5.1l-.9.8a64.8 64.8 0 01-3.3 5.7z" class="i" ></path> <path d="M1898.2 1590.9l-10.7 9.6a6.9 6.9 0 00-3.5 6.1v432c0 28.1-20 58-54.8 82a5.5 5.5 0 00-1.7 1.7l-157 91.1a9.6 9.6 0 00-2.8 1.1c-24.7 17.2-56 23.5-69.8 14a6.7 6.7 0 00-3.9-1.2L51.2 1336.6a6.7 6.7 0 00-3.8-4.1c-22.5-9.8-33.4-21-33.4-34.2v-886c0-32.9 11.5-57.7 32.5-69.8 25.9-14.9 64-10 104.7 13.4l161.3 93.2a6.8 6.8 0 007 0 7.1 7.1 0 003.5-6.1V243.3c0-32.9 11.5-57.7 32.5-69.8 25.9-14.9 64-10 104.7 13.4L685 316.8a7.3 7.3 0 006.6.2 6.7 6.7 0 003.8-5.4c.2-1.3.4-2.6.5-3.8-4.3-3.1-12.8-8.8-12.9-8.3L467.2 174.8c-45.1-26-88.3-30.9-118.7-13.4-25.5 14.7-39.5 43.8-39.5 81.9v187.6l-150.8-87.1c-45.1-26-88.3-30.9-118.7-13.4C14 345.1 0 374.2 0 412.3v885.9c0 18.5 12.3 33.3 37.6 45.2a7.4 7.4 0 002.9 3.2l1552 896a7.6 7.6 0 003.9 1 49 49 0 0019.3 3.6c18.9 0 40.8-8.2 58.1-19.8l1.8-.7 162-94a6.5 6.5 0 002.6-2.6c36.9-26.3 57.9-59.4 57.9-91.4v-428a186.8 186.8 0 01.1-19.8z" class="i" ></path> <path d="M1583.3 2105.8v-16l120.7 58s7.3 42.7 5.3 42.7-51.3 28-51.3 28z" class="b" ></path> </svg> 