<?xml version="1.0" encoding="UTF-8"?><svg id="a" xmlns="http://www.w3.org/2000/svg" xmlns:xlink="http://www.w3.org/1999/xlink" viewBox="0 0 1038 1198.9"><defs><style>.g{stroke:#fff;stroke-width:14px;}.g,.h{fill:none;stroke-linecap:round;stroke-linejoin:round;}.g,.h,.i,.j,.k,.l,.m,.n{fill-rule:evenodd;}.h{stroke:#212121;stroke-width:3.6px;}.i{fill:#d3d3d3;}.j{fill:url(#c);}.k{fill:url(#f);}.o{fill:#8e8e8e;}.p{fill:#212121;}.l{fill:url(#b);}.m{fill:url(#e);}.n{fill:url(#d);}</style><linearGradient id="b" x1="7.2" y1="896.5" x2="1030.6" y2="896.5" gradientTransform="matrix(1, 0, 0, 1, 0, 0)" gradientUnits="userSpaceOnUse"><stop offset="0" stop-color="#d3d3d3"/><stop offset=".1" stop-color="#cdcdcd"/><stop offset=".3" stop-color="#bfbfbf"/><stop offset=".4" stop-color="#a6a6a6"/><stop offset=".6" stop-color="#848484"/><stop offset=".8" stop-color="#585858"/><stop offset="1" stop-color="#232323"/><stop offset="1" stop-color="#212121"/></linearGradient><linearGradient id="c" x1="99.3" y1="780.8" x2="938.4" y2="780.8" gradientTransform="matrix(1, 0, 0, 1, 0, 0)" gradientUnits="userSpaceOnUse"><stop offset="0" stop-color="#8e8e8e" stop-opacity=".3"/><stop offset=".3" stop-color="#8e8e8e" stop-opacity=".4"/><stop offset=".6" stop-color="#8e8e8e" stop-opacity=".5"/><stop offset="1" stop-color="#8e8e8e" stop-opacity=".6"/><stop offset="1" stop-color="#8e8e8e" stop-opacity=".7"/></linearGradient><linearGradient id="d" x1="7.2" y1="665" x2="1030.6" y2="665" gradientTransform="matrix(1, 0, 0, 1, 0, 0)" gradientUnits="userSpaceOnUse"><stop offset="0" stop-color="#d3d3d3"/><stop offset=".1" stop-color="#cdcdcd"/><stop offset=".3" stop-color="#bfbfbf"/><stop offset=".4" stop-color="#a6a6a6"/><stop offset=".6" stop-color="#848484"/><stop offset=".8" stop-color="#585858"/><stop offset="1" stop-color="#232323"/><stop offset="1" stop-color="#212121"/></linearGradient><linearGradient id="e" y1="549.2" y2="549.2" xlink:href="#c"/><linearGradient id="f" x1="7.2" y1="419" x2="1030.6" y2="419" gradientTransform="matrix(1, 0, 0, 1, 0, 0)" gradientUnits="userSpaceOnUse"><stop offset="0" stop-color="#d3d3d3"/><stop offset=".1" stop-color="#cdcdcd"/><stop offset=".3" stop-color="#bfbfbf"/><stop offset=".4" stop-color="#a6a6a6"/><stop offset=".6" stop-color="#848484"/><stop offset=".8" stop-color="#585858"/><stop offset="1" stop-color="#232323"/><stop offset="1" stop-color="#212121"/></linearGradient></defs><path d="M1030.5,904.2c.2-4.4,.2-8.7,0-13.1v-111.8h-42.3c-25-33.2-61-64.2-108-91.4-200.2-115.5-524.2-115.7-723.7-.5-47.2,27.2-83.2,58.5-108,91.9H7.5v105.7c-4.9,79.3,45.1,159.5,150.1,220.1,200.2,115.5,524.2,115.7,723.7,.5,96.5-55.7,146.2-128.3,149.1-201.4h0Z" style="fill:url(#b); fill-rule:evenodd;"/><path d="M156.4,571.7c199.5-115.2,523.5-114.9,723.7,.5,200.2,115.5,200.7,302.5,1.2,417.7-199.5,115.2-523.5,114.9-723.7-.5-200.2-115.5-200.7-302.5-1.2-417.7Z" style="fill:#d3d3d3; fill-rule:evenodd;"/><path d="M1004.4,870.9c-24.2,43.7-66.3,83.7-124.2,117.1-99.1,57.2-229.4,85.8-359.8,85.8-130.9,0-261.9-28.8-361.7-86.4-60.5-34.9-103.9-76.9-127.8-122.7-1.1,1-2.3,1.9-3.4,2.9,24.4,46.2,68.2,88.5,129.1,123.6,97.1,56,226.1,87,363.2,87.1h.7c136.8,0,265.3-30.7,362-86.5,58.1-33.5,100.5-73.7,125.2-117.7-1.1-1.1-2.1-2.1-3.2-3.2Z" style="fill:#212121;"/><path d="M1030.5,788.4c3.1-78-47-156.6-150.3-216.2-200.2-115.5-524.2-115.7-723.7-.5C52.2,631.8,2.6,711.6,7.5,790.6v94.4c-4.9,79.3,45.1,159.5,150.1,220.1,200.2,115.5,524.2,115.7,723.7,.5,96.5-55.7,146.2-128.3,149.1-201.4h0c.2-4.4,.2-8.8,0-13.1v-102.7Z" style="fill:none; fill-rule:evenodd; stroke:#fff; stroke-linecap:round; stroke-linejoin:round; stroke-width:14px;"/><path d="M221.7,609.3c163.6-94.4,429.2-94.2,593.4,.4,164.1,94.7,164.6,248,1,342.4-163.6,94.4-429.2,94.2-593.4-.4-164.1-94.7-164.6-248-1-342.5Z" style="fill:none; fill-rule:evenodd; stroke:#212121; stroke-linecap:round; stroke-linejoin:round; stroke-width:3.6px;"/><path d="M221.7,609.3c163.6-94.4,429.2-94.2,593.4,.4,164.1,94.7,164.6,248,1,342.4-163.6,94.4-429.2,94.2-593.4-.4-164.1-94.7-164.6-248-1-342.5Z" style="fill:url(#c); fill-rule:evenodd;"/><path d="M1030.5,672.7c.2-4.4,.2-8.7,0-13.1v-111.8h-42.3c-25-33.2-61-64.2-108-91.4-200.2-115.5-524.2-115.7-723.7-.5-47.2,27.2-83.2,58.5-108,91.9H7.5v105.7c-4.9,79.3,45.1,159.5,150.1,220.1,200.2,115.5,524.2,115.7,723.7,.5,96.5-55.7,146.2-128.3,149.1-201.4h0Z" style="fill:url(#d); fill-rule:evenodd;"/><path d="M156.4,340.1c199.5-115.2,523.5-114.9,723.7,.5,200.2,115.5,200.7,302.5,1.2,417.7-199.5,115.2-523.5,114.9-723.7-.5-200.2-115.5-200.7-302.5-1.2-417.7Z" style="fill:#d3d3d3; fill-rule:evenodd;"/><path d="M1004.4,639.3c-24.2,43.7-66.3,83.7-124.2,117.1-99.1,57.2-229.4,85.8-359.8,85.8-130.9,0-261.9-28.8-361.7-86.4-60.5-34.9-103.9-76.9-127.8-122.7-1.1,1-2.3,1.9-3.4,2.9,24.4,46.2,68.2,88.5,129.1,123.6,97.1,56,226.1,87,363.2,87.1h.7c136.8,0,265.3-30.7,362-86.5,58.1-33.5,100.5-73.7,125.2-117.7-1.1-1.1-2.1-2.1-3.2-3.2Z" style="fill:#212121;"/><path d="M1030.5,556.9c3.1-78-47-156.6-150.3-216.2-200.2-115.5-524.2-115.7-723.7-.5C52.2,400.3,2.6,480.1,7.5,559v94.4c-4.9,79.3,45.1,159.5,150.1,220.1,200.2,115.5,524.2,115.7,723.7,.5,96.5-55.7,146.2-128.3,149.1-201.4h0c.2-4.4,.2-8.8,0-13.1v-102.7Z" style="fill:none; fill-rule:evenodd; stroke:#fff; stroke-linecap:round; stroke-linejoin:round; stroke-width:14px;"/><path d="M221.7,377.8c163.6-94.4,429.2-94.2,593.4,.4,164.1,94.7,164.6,248,1,342.4-163.6,94.4-429.2,94.2-593.4-.4-164.1-94.7-164.6-248-1-342.5Z" style="fill:none; fill-rule:evenodd; stroke:#212121; stroke-linecap:round; stroke-linejoin:round; stroke-width:3.6px;"/><path d="M221.7,377.8c163.6-94.4,429.2-94.2,593.4,.4,164.1,94.7,164.6,248,1,342.4-163.6,94.4-429.2,94.2-593.4-.4-164.1-94.7-164.6-248-1-342.5Z" style="fill:url(#e); fill-rule:evenodd;"/><path d="M1030.5,426.6c.2-4.4,.2-8.7,0-13.1v-111.8h-42.3c-25-33.2-61-64.2-108-91.4-200.2-115.5-524.2-115.7-723.7-.5-47.2,27.2-83.2,58.5-108,91.9H7.5v105.7c-4.9,79.3,45.1,159.5,150.1,220.1,200.2,115.5,524.2,115.7,723.7,.5,96.5-55.7,146.2-128.3,149.1-201.4h0Z" style="fill:url(#f); fill-rule:evenodd;"/><path d="M156.4,94.1c199.5-115.2,523.5-114.9,723.7,.5,200.2,115.5,200.7,302.5,1.2,417.7-199.5,115.2-523.5,114.9-723.7-.5-200.2-115.5-200.7-302.5-1.2-417.7Z" style="fill:#d3d3d3; fill-rule:evenodd;"/><path d="M1004.4,393.3c-24.2,43.7-66.3,83.7-124.2,117.1-99.1,57.2-229.4,85.8-359.8,85.8-130.9,0-261.9-28.8-361.7-86.4-60.5-34.9-103.9-76.9-127.8-122.7-1.1,1-2.3,1.9-3.4,2.9,24.4,46.2,68.2,88.5,129.1,123.6,97.1,56,226.1,87,363.2,87.1h.7c136.8,0,265.3-30.7,362-86.5,58.1-33.5,100.5-73.7,125.2-117.7-1.1-1.1-2.1-2.1-3.2-3.2Z" style="fill:#212121;"/><path d="M1030.5,310.9c3.1-78-47-156.6-150.3-216.2-200.2-115.5-524.2-115.7-723.7-.5C52.2,154.3,2.6,234.1,7.5,313v94.4c-4.9,79.3,45.1,159.5,150.1,220.1,200.2,115.5,524.2,115.7,723.7,.5,96.5-55.7,146.2-128.3,149.1-201.4h0c.2-4.4,.2-8.8,0-13.1v-102.7Z" style="fill:none; fill-rule:evenodd; stroke:#fff; stroke-linecap:round; stroke-linejoin:round; stroke-width:14px;"/><path d="M221.7,131.8c163.6-94.4,429.2-94.2,593.4,.4,164.1,94.7,164.6,248,1,342.4-163.6,94.4-429.2,94.2-593.4-.4-164.1-94.7-164.6-248-1-342.5Z" style="fill:none; fill-rule:evenodd; stroke:#212121; stroke-linecap:round; stroke-linejoin:round; stroke-width:3.6px;"/><path d="M699.2,240.4l31.3-46.5c-13.5-9.4-28.9-17.8-46.3-25.3-27.6-11.8-58.1-20.4-91.6-25.7-15.8-2.5-31.9-4.3-48.1-5.5-11.5-.8-23.1-1.3-34.8-1.5-19.4-.3-38.9,0-58.4,.9l64.8,41.3-30,43.1c7.7-.2,15.5,0,23.6,.4,35.5,2,67.4,9,95.5,21,2.7,1.1,5.3,2.3,7.8,3.5l86.2-5.7Z" style="fill:#8e8e8e;"/><path d="M404,172.4c-11.1,2.6-21.7,5.5-31.9,8.9l41.3,8.9,4.5,23.2c1.5-.5,3.1-1.1,4.6-1.6,21.4-7.1,44.2-12.1,68.5-14.8l12.3-17.6-26.9-17.1c-24.8,1.3-49,4.7-72.4,10.1Z" style="fill:#8e8e8e;"/><path d="M403.1,194.6l-42.7-9.2c-14.2,5.3-27.5,11.4-39.8,18.3-20.6,11.6-37,24.8-49.2,39.5l49-5.8,29.8,20.4c1-1.3,2.1-2.6,3.3-4,12.9-14.8,30.9-26.9,54.1-36.4l-4.5-22.8Z" style="fill:#8e8e8e;"/><path d="M641.4,346.1c4.6-4.3,8.4-8.7,11.4-13.2l46.2,31.3,77.6-9.4c-4.4,6.8-9.7,13.5-15.8,20.1-16,17.2-37,32.1-63.1,44.8-26.5,12.9-56.5,22.2-90,28.1l-2,.3-57.5-27.2,15.1-37,1.1-.3c32.9-7.8,58.6-20.4,76.9-37.7Z" style="fill:#8e8e8e;"/><path d="M752,211.2c-4.2-3.9-8.7-7.7-13.4-11.4l-31.3,46.4-83.7,5.5c17.7,10.5,29.3,23.2,34.7,38,4.6,12.5,4.1,24.6-1.5,36.1l46.5,31.4,77.5-9.3c4.9-8.7,8.4-17.6,10.8-26.7,4.8-19,3.9-37.9-2.9-56.7-6.8-19-19-36.8-36.7-53.4Z" style="fill:#8e8e8e;"/><path d="M266,250.2l50-5.9,29.5,20.1c-9,14.4-11.3,29.5-6.8,45.1,1.3,4.4,3,8.7,5.2,12.9l-52.8-6.7-38,25.1c-4.6-11.1-6.8-22.5-6.8-34.1,0-19.3,6.5-38,19.2-56,.1-.2,.2-.4,.4-.5Z" style="fill:#8e8e8e;"/><path d="M381.7,360.2c-14.8-9.4-26-19.7-33.5-30.9l-52.8-6.7-38.7,25.6c2.6,5.1,5.6,10.1,9.1,15,13,18.1,31.6,34.1,55.9,48.1,14.5,8.3,30.4,15.5,47.7,21.6l-2.8-38.2,52.5-16.8c-13.7-4.6-26.1-10.5-37.3-17.6Z" style="fill:#8e8e8e;"/><path d="M430.4,381.3c11.3,3.1,23.4,5.5,36.2,7.2,28.8,3.7,56.8,3.1,84.2-1.9l-14.9,36.8,57,26.9c-28.5,4.2-57.6,5.9-87.3,5.4-34.7-.6-68-4.7-99.9-12.3-8.6-2-16.8-4.3-24.8-6.8l-2.8-38.5,52.5-16.8Z" style="fill:#8e8e8e;"/></svg>