<?xml version="1.0" encoding="UTF-8"?><svg id="a" xmlns="http://www.w3.org/2000/svg" viewBox="0 0 550.9 844.8"><polygon points="292.1 44.9 292.1 44.9 292.1 44.9 292.1 44.9" style="fill:#fff; fill-rule:evenodd;"/><rect x="546.8" y="472.9" height="8.9" style="fill:#fff;"/><polygon points="147.1 128.7 147.1 128.7 147.1 128.7 147.1 128.7" style="fill:#fff; fill-rule:evenodd;"/><polygon points="546.6 635.4 546.6 636.1 546.6 635.4 546.6 635.4" style="fill:#fff;"/><rect x="546.6" y="681.5" height="4.4" style="fill:#fff;"/><rect x="185.4" y="158.3" height="4.5" style="fill:#fff;"/><polygon points="3.9 55.8 93.3 4.8 547 265 546.8 787.4 455.1 841 3.9 581.3 3.9 55.8" style="fill:#ced4db;"/><polygon points="547 265 546.8 787.4 455.1 841 455.3 316.4 547 265" style="fill:#09264a; fill-rule:evenodd;"/><path d="M415.4,339.8c.2,.3,.3,.6,.3,1v427.7c0,.7-.4,1.3-1,1.7s-1.3,.3-1.9,0L44.4,557.4c-.6-.3-1-1-1-1.7V128.1c0-.7,.4-1.3,1-1.7s1.3-.3,1.9,0l368.3,212.6c.3,.2,.5,.4,.7,.7Zm-3.6,425.3V341.8L47.3,131.4v423.2l364.5,210.4Z" style="fill:#09264a;"/><path d="M550.4,263.1c.3,.6,.5,1.2,.5,1.9l-.5,523.2c0,1.4-.7,2.6-1.9,3.3l-91.1,52.6c-1.2,.7-2.7,.7-3.8,0L1.9,583.4c-1.2-.7-1.9-2-1.9-3.3V55.7c0-1.4,.7-2.6,1.9-3.3L91.8,.5c1.2-.7,2.7-.7,3.8,0l453.4,261.2c.6,.3,1.1,.8,1.4,1.4Zm-7.7,522.9l.5-518.7L93.7,8.3,7.7,57.9V577.9l447.7,258.5,87.3-50.4Z" style="fill:#fff;"/><polygon points="453.7 315.4 455.3 316.4 453.7 315.4 453.7 315.4" style="fill:#1a4e85;"/><path d="M527.7,273.9l-73.6,41.3c-.1,0-.3,.2-.4,.3l1.6,1,73.4-41.2c-.4-.5-.7-.9-1.1-1.4Z" style="fill:#1a4e85;"/><path d="M453.7,315.4c-.1,.1-.2,.3-.3,.4-.2,.3-.3,.6-.3,1v496.6c1.3,0,2.6,0,3.8,0V318l73.1-41c-.5-.6-.9-1.1-1.3-1.7l-73.4,41.2-1.6-1Z" style="fill:#09264a;"/><polygon points="455.3 316.4 528.7 275.2 528.7 275.2 455.3 316.4" style="fill:#1a4e85;"/><polygon points="320.1 238.3 455.3 316.4 320.1 238.3 320.1 238.3" style="fill:#1a4e85;"/><path d="M527.7,273.9l-72.6,40.7-134.3-77.5c-.2,.4-.4,.8-.6,1.2l135.2,78.1,73.4-41.2c-.4-.5-.7-.9-1.1-1.4Z" style="fill:#09264a;"/><path d="M320.1,238.3c-.4,.7-.7,1.5-1.1,2.2l135,78c.6,.3,1.3,.3,1.9,0l74.1-41.6c-.5-.6-.9-1.1-1.3-1.7l-73.4,41.2-135.2-78.1Z" style="fill:#09264a;"/><polygon points="455.3 316.4 528.7 275.2 528.7 275.2 455.3 316.4" style="fill:#09264a;"/><path d="M26.4,67.1c-.2,.4-.5,.8-.7,1.2l157.8,91.1v-1.6L26.4,67.1Z" style="fill:#09264a;"/><path d="M183.4,159.4L25.7,68.3c-.4,.7-.8,1.4-1.2,2.1l158,91.2c.4-.7,.8-1.4,1.2-2.2h-.2Z" style="fill:#09264a;"/><rect x="183.5" y="159.4" height=".2" style="fill:#1a4e85;"/></svg>