<?xml version="1.0" encoding="utf-8"?>
<!-- Generator: Adobe Illustrator 26.2.1, SVG Export Plug-In . SVG Version: 6.00 Build 0)  -->
<svg version="1.1" id="light" xmlns="http://www.w3.org/2000/svg" xmlns:xlink="http://www.w3.org/1999/xlink" x="0px" y="0px"
	 viewBox="0 0 832 650.7" style="enable-background:new 0 0 832 650.7;" xml:space="preserve">
<style type="text/css">
	.st0{fill-rule:evenodd;clip-rule:evenodd;fill:#FFFFFF;}
	.st1{fill-rule:evenodd;clip-rule:evenodd;fill:url(#SVGID_1_);}
	.st2{fill-rule:evenodd;clip-rule:evenodd;fill:url(#SVGID_00000097494563460930040180000016069898181513254284_);}
	.st3{fill-rule:evenodd;clip-rule:evenodd;fill:url(#SVGID_00000106866798838545895240000006325398388772825988_);}
	.st4{fill:url(#SVGID_00000039120723814373763120000003586240768776085438_);}
	.st5{fill-rule:evenodd;clip-rule:evenodd;fill:#BBDEFB;}
	.st6{fill-rule:evenodd;clip-rule:evenodd;fill:url(#SVGID_00000057843859074138167990000008029157481044089268_);}
	.st7{fill:#1A4E85;}
	.st8{fill:#FFFFFF;}
	.st9{fill-rule:evenodd;clip-rule:evenodd;fill:url(#SVGID_00000048487988301963979590000013744018497888763558_);}
	.st10{fill-rule:evenodd;clip-rule:evenodd;fill:url(#SVGID_00000141422493823098615200000001455172091296371336_);}
	.st11{fill-rule:evenodd;clip-rule:evenodd;fill:url(#SVGID_00000021834202859905104210000014205693392311337351_);}
	.st12{fill-rule:evenodd;clip-rule:evenodd;fill:url(#SVGID_00000138535902026059466450000008604309606979692187_);}
	.st13{fill-rule:evenodd;clip-rule:evenodd;fill:url(#SVGID_00000167376277169418068960000009628613796350207122_);}
	.st14{fill:none;stroke:#1A4E85;stroke-width:6;stroke-linecap:round;stroke-linejoin:round;}
</style>
<path class="st0" d="M608.3,201.9l-182.7-105h-0.2c-4.2-2.4-10-2.5-13-0.1c-30.5,25.1-49.5,73.4-49.5,139s19,135.8,49.5,196
	c3,5.8,8.8,12.4,13,14.8h0.2l182.7,105h0.2c4.2,2.4,10,2.5,13,0.1c30.5-25,49.5-73.2,49.5-138.9s-19-135.8-49.5-196
	c-3-5.7-8.8-12.4-13-14.8L608.3,201.9z"/>
<linearGradient id="SVGID_1_" gradientUnits="userSpaceOnUse" x1="428.1007" y1="-240.6499" x2="491.4314" y2="-130.9687" gradientTransform="matrix(1 0 0 1 0 452)">
	<stop  offset="0" style="stop-color:#BBDEFB"/>
	<stop  offset="1" style="stop-color:#FFFFFF"/>
</linearGradient>
<path class="st1" d="M478.8,320.3c0,9.6-5.7,14-12.7,10l-12.7-7.3c-7-4.1-12.7-15.1-12.7-24.6v-86.3c0-9.6,5.7-14,12.7-10l12.7,7.3
	c7,4,12.7,15,12.7,24.6L478.8,320.3z"/>
<linearGradient id="SVGID_00000168106793601667607130000015526365665255199873_" gradientUnits="userSpaceOnUse" x1="542.1714" y1="-174.9323" x2="596.9714" y2="-80.0323" gradientTransform="matrix(1 0 0 1 0 452)">
	<stop  offset="0" style="stop-color:#BBDEFB"/>
	<stop  offset="1" style="stop-color:#FFFFFF"/>
</linearGradient>
<path style="fill-rule:evenodd;clip-rule:evenodd;fill:url(#SVGID_00000168106793601667607130000015526365665255199873_);" d="
	M592.9,299.7c-0.1-9.6-5.8-20.6-12.7-24.6l-12.7-7.3c-7-4-12.7,0.4-12.7,10v86.3c0,9.5,5.7,20.5,12.7,24.6h0.2l25.2-14.9V299.7z"/>
<linearGradient id="SVGID_00000167376025810194856430000002189016363076143771_" gradientUnits="userSpaceOnUse" x1="496.9592" y1="-74.5527" x2="536.7392" y2="-5.6427" gradientTransform="matrix(1 0 0 1 0 452)">
	<stop  offset="0" style="stop-color:#BBDEFB"/>
	<stop  offset="1" style="stop-color:#FFFFFF"/>
</linearGradient>
<path style="fill-rule:evenodd;clip-rule:evenodd;fill:url(#SVGID_00000167376025810194856430000002189016363076143771_);" d="
	M516.8,376.7c-14-8.1-25.3,0.9-25.3,19.9v17.3l50.7,29.2v-17.3C542.1,406.7,530.8,384.7,516.8,376.7z"/>
<path class="st0" d="M621.4,216.8c-3-5.7-8.8-12.4-13-14.8h-0.2L425.5,96.9h-0.2c-4.2-2.4-10-2.5-13-0.1
	c-21.3,17.5-37,46.3-44.5,84.4l-23.7-11.5l-11-9.9l-19.7,47l-17.6,60.3l12.2,101l41.7,104.2l187.5,96.5l26.6-42.9l44.5,25.6h0.2
	c4.2,2.4,10,2.5,13,0.1c30.5-25.1,49.5-73.3,49.5-139S652,276.9,621.4,216.8z M605.3,514.9L428.5,413.2
	c-25.8-52.5-40-110.2-40-162.8s14.2-94,40-116.9l176.8,101.6c25.8,52.5,40,110.1,40,162.8S631.1,492,605.3,514.9z"/>
<linearGradient id="SVGID_00000181780883903318099760000014110427789064616085_" gradientUnits="userSpaceOnUse" x1="501.6874" y1="370.7567" x2="379.8962" y2="159.8081">
	<stop  offset="0" style="stop-color:#FFFFFF"/>
	<stop  offset="1" style="stop-color:#BBDEFB"/>
</linearGradient>
<path style="fill:url(#SVGID_00000181780883903318099760000014110427789064616085_);" d="M428.5,133.5l176.8,101.6
	c9.5,19.4,17.5,39.5,23.7,59.9l20-11.7c-7.6-23-16.9-45.3-27.6-66.4c-3-5.7-8.8-12.4-13-14.8h-0.2L459,116.2l-87.5,49.2
	c-1.4,5.1-2.7,10.3-3.7,15.8l-13.1-6.3l-36.6,20.6l-4.8,11.3l-17.6,60.3l12.2,101l37.2,93l83-48.6c-25.6-52.3-39.7-109.8-39.7-162.1
	C388.5,197.8,402.7,156.4,428.5,133.5z"/>
<path class="st0" d="M779.5,124.7c-3-5.7-8.8-12.4-13-14.8h-0.2L583.6,4.8h-0.2c-3.5-2-7.8-2.4-11.6-1h-0.1l-232.3,134l8.1,19.9
	l190.4,99.5c8.2,28.5,19.1,56.1,32.5,82.5c1,1.9,2.2,3.8,3.5,5.5c0,0,251-86.5,243.5-117.6C808.8,192,796,157.4,779.5,124.7z"/>
<path class="st5" d="M580.1,375l7.6,36.1l3.3,54.8l-9.9,45L557,554.6l-12,40.1l232.7-134l0,0l1.8-1c30.5-25.1,49.5-73.3,49.5-139
	c0-9.9-0.4-19.8-1.3-29.8C823,234.2,580.1,375,580.1,375z"/>
<linearGradient id="SVGID_00000021093328737330353850000008811249073453642422_" gradientUnits="userSpaceOnUse" x1="632.2924" y1="-112.6192" x2="733.1046" y2="62.0245" gradientTransform="matrix(1 0 0 1 0 311.8)">
	<stop  offset="0" style="stop-color:#FFFFFF"/>
	<stop  offset="1" style="stop-color:#BBDEFB"/>
</linearGradient>
<path style="fill-rule:evenodd;clip-rule:evenodd;fill:url(#SVGID_00000021093328737330353850000008811249073453642422_);" d="
	M779.5,124.7c-0.9-1.8-2-3.5-3.2-5.1L534.9,255.4l3,1.6c8.2,28.5,19.1,56.1,32.5,82.5c1,1.9,2.2,3.8,3.5,5.5l13.8,65.9l2.7,45.3
	L829,316.6C828.2,252.1,809.4,183.6,779.5,124.7z"/>
<path class="st0" d="M533.2,244L350.5,139h-0.2c-4.2-2.4-10-2.5-13-0.1c-30.5,25.1-49.5,73.4-49.5,139s19,135.8,49.5,196
	c3,5.8,8.8,12.4,13,14.8h0.2l182.7,105h0.2c4.2,2.4,10,2.5,13,0.1c30.5-25.1,49.5-73.3,49.5-139s-19-135.8-49.5-196
	c-3-5.7-8.8-12.4-13-14.8L533.2,244z M530.2,557L353.4,455.3c-25.8-52.5-40-110.2-40-162.8s14.2-94,40-116.9l176.8,101.6
	c25.8,52.5,40,110.1,40,162.8S556.1,534.1,530.2,557z"/>
<path class="st0" d="M404.6,487.6c0.2-0.3,0.4-0.5,0.7-0.7c-1.6-0.5-3.1-1.2-4.6-1.9l2,1.4L404.6,487.6z"/>
<path class="st7" d="M531.6,276.6l-0.2-0.4L354.2,174.3l-0.9-0.5l-0.8,0.7c-7.2,6.4-13.3,13.9-18.2,22.2l2.7,1.3
	c4.5-7.6,10.2-14.5,16.7-20.5l175.5,100.9c7,14.2,13.1,28.8,18.3,43.8h0.9l1.8-1.4C544.9,305.7,538.6,291,531.6,276.6z"/>
<path class="st7" d="M558.8,511.1l-1.1,0.2c-6.5,18.2-15.8,33-27.7,43.8l-72.9-41.9c-0.2,0.6-0.4,1.3-0.7,1.9L456,516l73.4,42.2
	l0.4,0.2h1l0.4-0.4c12.7-11.2,22.6-26.9,29.4-46.2C560,511.7,559.4,511.4,558.8,511.1z"/>
<path class="st7" d="M585.9,361.7c-8.7-35.9-21.5-70.6-38.2-103.5c-3.1-6.1-9.1-12.8-13.6-15.4h-0.2L490.8,218l-0.9,2.9l42.5,24.4
	h0.2c3.9,2.3,9.6,8.7,12.4,14.2c16.7,32.9,29.5,67.6,38.1,103.5C583.9,362.3,584.9,361.8,585.9,361.7z"/>
<path class="st7" d="M421,177.8L358.8,142c-0.4,0.9-0.9,1.8-1.4,2.7l62.6,36C420.1,179.7,420.4,178.7,421,177.8z"/>
<path class="st5" d="M331.9,301.1L216,332v105.2l38,21.9l67.5-38.9c6.8-3.9,10.4-9,10.4-13.7l0,0V301.1z"/>
<polygon class="st8" points="216,332 253.9,313.4 253.9,399 216,369.5 "/>
<path class="st5" d="M445.9,472.7V367.4L330,397.8V503l0,0l38,21.9l67.5-38.9C442.1,482.2,445.7,477.3,445.9,472.7z"/>
<polygon class="st8" points="330,397.8 367.9,383.6 367.9,532 330,532 "/>
<path class="st5" d="M377.5,453.9c0,0-219.2-99.8-219.8-102.3s-41.2-2.5-41.2-2.5v25.2l-60.4,69v53.8L3,520.6v105.2l38,21.9
	l69.7-40.2c52.1,18.3,135.5,9.5,186.2-19.7l22.5-13l9.5,5.5c5.2,3,14.5,2.6,20.8-1l22.5-13c3.7-2.1,5.5-4.9,5.2-7.4l0,0v-105
	L377.5,453.9z"/>
<polygon class="st0" points="41,503.8 3,520.6 3,625.8 41,647.7 41,503.8 "/>
<path class="st0" d="M319.5,459.3v115.5l9.4,5.5l1.1,0.5V459.3H319.5z"/>
<polygon class="st0" points="41,503.8 3,520.6 3,625.8 41,647.7 41,503.8 "/>
<path class="st0" d="M129,490.6V349.2h-10.5v141.4H129z"/>
<linearGradient id="SVGID_00000110470159009203969500000006920998408312791452_" gradientUnits="userSpaceOnUse" x1="110.5" y1="215.3219" x2="319.3" y2="215.3219" gradientTransform="matrix(1 0 0 1 0 311.8)">
	<stop  offset="0" style="stop-color:#FFFFFF"/>
	<stop  offset="1" style="stop-color:#BBDEFB"/>
</linearGradient>
<path style="fill-rule:evenodd;clip-rule:evenodd;fill:url(#SVGID_00000110470159009203969500000006920998408312791452_);" d="
	M110.5,437.1v170.5h0.2c52.1,18.3,135.5,9.5,186.2-19.7l22.4-13V437.1H110.5z"/>
<linearGradient id="SVGID_00000043458804703369858230000009036161978251011203_" gradientUnits="userSpaceOnUse" x1="342.87" y1="126.75" x2="345" y2="126.75" gradientTransform="matrix(1 0 0 1 0 311.8)">
	<stop  offset="0" style="stop-color:#FFFFFF"/>
	<stop  offset="1" style="stop-color:#BBDEFB"/>
</linearGradient>
<path style="fill-rule:evenodd;clip-rule:evenodd;fill:url(#SVGID_00000043458804703369858230000009036161978251011203_);" d="
	M345,438.1h-2.1l2.1,0.9V438.1z"/>
<linearGradient id="SVGID_00000096777974879342054130000000698827727752552369_" gradientUnits="userSpaceOnUse" x1="327.7092" y1="198.3723" x2="345" y2="198.3723" gradientTransform="matrix(1 0 0 1 0 311.8)">
	<stop  offset="0" style="stop-color:#FFFFFF"/>
	<stop  offset="1" style="stop-color:#BBDEFB"/>
</linearGradient>
<path style="fill-rule:evenodd;clip-rule:evenodd;fill:url(#SVGID_00000096777974879342054130000000698827727752552369_);" d="
	M342.9,438.1h-15.2v142.7c4,1.8,12.2,1.9,17.3,0.4V439L342.9,438.1z"/>
<linearGradient id="SVGID_00000129885231934549317440000002963825604170260389_" gradientUnits="userSpaceOnUse" x1="114.7" y1="54.5" x2="118.48" y2="54.5" gradientTransform="matrix(1 0 0 1 0 311.8)">
	<stop  offset="0" style="stop-color:#FFFFFF"/>
	<stop  offset="1" style="stop-color:#BBDEFB"/>
</linearGradient>
<path style="fill-rule:evenodd;clip-rule:evenodd;fill:url(#SVGID_00000129885231934549317440000002963825604170260389_);" d="
	M118.5,383.5v-34.4h-2v25.2l-1.8,2v7.2L118.5,383.5z"/>
<linearGradient id="SVGID_00000067923324739448961080000017641793794134577059_" gradientUnits="userSpaceOnUse" x1="56.1" y1="146.28" x2="72.7" y2="146.28" gradientTransform="matrix(1 0 0 1 0 311.92)">
	<stop  offset="0" style="stop-color:#FFFFFF"/>
	<stop  offset="1" style="stop-color:#BBDEFB"/>
</linearGradient>
<polygon style="fill-rule:evenodd;clip-rule:evenodd;fill:url(#SVGID_00000067923324739448961080000017641793794134577059_);" points="
	72.7,424.3 56.1,443.3 56.1,492.1 72.7,492.1 "/>
<path class="st0" d="M435.5,380.6c12.4-7.2,14-17.9,3.5-23.9s-29.1-5.1-41.5,2L330,397.6l38,21.9L435.5,380.6z M374,448.9L165,328.3
	c-5.2-3-14.5-2.6-20.7,1l-22.5,13c-6.2,3.6-7,8.9-1.7,12l9.5,5.5l-22.5,13c-50.7,29.2-66,77.4-34.2,107.4L3,520.4l38,21.9l69.7-40.2
	c52.1,18.3,135.6,9.5,186.3-19.7l22.5-13l9.5,5.5c5.2,3,14.5,2.6,20.8-1l22.5-13C378.5,457.3,379.2,451.9,374,448.9L374,448.9z
	 M321.5,314.8c12.4-7.2,14-17.9,3.5-23.9s-29.1-5.1-41.5,2L216,331.8l38,21.9L321.5,314.8z"/>
<path class="st8" d="M6.4,518.4L3,520.3l1.4,0.8C5.1,520.3,5.7,519.3,6.4,518.4z"/>
<path class="st7" d="M325.7,289.6c-4.9-2.8-11.5-4.2-18.4-4.2v0.7c0,0.7-0.1,1.5-0.2,2.2c6.4,0,12.5,1.2,17,3.8s6.2,5.4,6.2,8.8
	s-3.5,9-9.7,12.5L254,352l-17.6-10.2c-0.3,0.9-0.7,1.7-1.1,2.5l-0.2,0.3l18.8,10.9l68.2-39.4c7.1-4.1,11.2-9.6,11.2-15.1
	S330.7,292.4,325.7,289.6z"/>
<path class="st7" d="M439.7,355.3c-8.8-5.1-22.9-5.4-34.8-1.5c0.4,0.9,0.9,1.8,1.4,2.7c11-3.5,23.9-3.1,31.9,1.5
	c4.1,2.3,6.2,5.4,6.2,8.8s-3.5,9-9.7,12.5L368,417.7l-14.7-8.5c-0.3,0.4-0.7,0.7-1.1,0.9l-1.9,0.9l17.7,10.2l68.2-39.4
	c7.1-4.1,11.2-9.6,11.2-15.1S444.7,358.2,439.7,355.3z"/>
<path class="st7" d="M329.8,473.5l-10.2-5.9L296.4,481c-39.4,22.7-98.9,33.1-147.7,27.7c0.3,1,0.2,2.1-0.2,3
	c49.4,5.4,109.5-5.1,149.4-28.1l21.8-12.5l8.8,5l0.3,0.2l1-0.9l0.3-1.8C329.8,473.6,329.8,473.6,329.8,473.5z"/>
<path class="st7" d="M101.6,505.6l-60.6,35l-6.6-3.8l-1.1,1.6l-0.7,0.9l8.4,4.8l61.8-35.6L101.6,505.6z"/>
<path class="st7" d="M374.7,447.6l-108.3-62.5l-2.1,2.3l108.9,62.8l0,0c1.2,0.7,2.7,2,2.7,3.8s-1.7,4-4.5,5.6l-3.9,2.2
	c0.8,0.6,1.5,1.4,2,2.3l3.4-1.9c3.8-2.2,6-5.2,6-8.2S377.5,449.2,374.7,447.6z"/>
<path class="st14" d="M779.5,124.7c-3-5.7-8.8-12.4-13-14.8h-0.2L583.6,4.8h-0.2c-3.5-2-7.8-2.4-11.6-1h-0.1l-232.3,134l0,0
	c-0.7,0.2-1.4,0.6-2,1.1c-30.5,25.1-49.5,73.4-49.5,139c0,4.3,0.1,12.9,0.1,12.9l-72,41l0.3,0.2H216v25.8l-51-29.4
	c-5.2-3-14.5-2.6-20.7,1l-22.5,13c-3.4,2-5.2,4.5-5.2,6.8l0,0v18.1l-9.5,5.5c-32.8,19-50.8,45.9-50.8,70.6h-0.1v46.4L3,520.4l0,0
	v105.4l38,21.9l69.7-40.2c52.1,18.3,135.5,9.5,186.2-19.7l22.5-13l9.5,5.5c5.2,3,14.5,2.6,20.8-1l22.5-13c3.7-2.1,5.5-4.9,5.2-7.4
	l0,0v-39.4l13.4-7.7l142.4,81.8h0.2c3.6,2.1,8.5,2.4,11.7,0.9l0,0c0.4-0.2,233.9-134.6,234.4-135c30.5-25.1,49.5-73.3,49.5-139
	S810,184.9,779.5,124.7z"/>
</svg>
