<?xml version="1.0" encoding="UTF-8"?><svg id="a" xmlns="http://www.w3.org/2000/svg" viewBox="0 0 597.3 630.9"><path d="M223,292.3l-18.6,10.8L23.3,407.7l-20.4-1.3v17.5l.3,.2c.7,1.4,1.7,2.6,3.1,3.4l343.2,198.4c4.8,2.8,12.8,2.6,18-.4l195-112.7h0l7-4c.6-.3,1.1-.7,1.6-1.1l23.4-14L223,292.3Z" style="fill:#bbdefb;"/><polygon points="6 400.5 357.2 609.5 357.2 628.8 3.2 424.2 6 400.5" style="fill:#fff;"/><path d="M223,292.3l-18.6,10.8L23.3,407.7l-20.4-1.3v17.5l.3,.2c.7,1.4,1.7,2.6,3.1,3.4l343.2,198.4c4.8,2.8,12.8,2.6,18-.4l195-112.7h0l7-4c.6-.3,1.1-.7,1.6-1.1l23.4-14L223,292.3Z" style="fill:none;"/><polygon points="223 276.9 583.4 485.4 562.4 497.5 202 289.1 223 276.9" style="fill:#fff; fill-rule:evenodd;"/><path d="M227,284.6l343.2,198.4c4.8,2.8,4.5,7.4-.7,10.4l-202,116.8c-5.2,3-13.2,3.2-18,.4L6.3,412.2c-4.8-2.8-4.5-7.4,.7-10.4l202-116.8c5.1-2.9,13.2-3.1,18-.4Z" style="fill:#fff; fill-rule:evenodd;"/><path d="M486.3,503.4l-14.1-8.1h0c-1.8-.9-3.9-.8-5.6,0l-6.4,3.7,16.7,9.7c1.8,.9,3.9,.8,5.6,0l3.5-2c1.7-.9,1.8-2.4,.3-3.3Z" style="fill:none;"/><path d="M303.2,496.2l-100-57.8c-1.8-.9-3.9-.8-5.6,0l-61.9,35.8c-1.6,.9-1.7,2.4-.2,3.3l100,57.8c1.8,.9,3.9,.8,5.6,0l61.9-35.8c1.6-1,1.7-2.5,.2-3.3Z" style="fill:#fff; stroke:#1a4e85; stroke-miterlimit:10;"/><path d="M594.4,454.4V218.1c0-6.3-3.9-13.6-8.6-16.3L243.4,3.8c-2.1-1.2-4.1-1.3-5.6-.5h-.1l-11.6,6.6,8.8,19.9V288.3l359.7,205.9-.2-39.8h0Z" style="fill:#bbdefb;"/><path d="M592.3,209.5c-1.6-3.3-3.9-6.2-6.5-7.7L243.4,3.8c-2.1-1.2-4.1-1.3-5.6-.5h0l-11.6,6.6,4.5,10.1,342.9,199.4,18.8-9.9Z" style="fill:#fff;"/><path d="M223.4,254.4l358.6,207.3v25.5L223.4,283.4v-29Z" style="fill:#fff; fill-rule:evenodd;"/><path d="M232,10l341.4,197.7c4.8,2.8,8.6,10.1,8.6,16.3v244.8c0,6.3-3.9,9.1-8.6,6.3L232,277.4c-4.8-2.8-8.6-10.1-8.6-16.3V16.3c0-6.3,3.9-9.1,8.6-6.3Z" style="fill:#fff; fill-rule:evenodd;"/><path d="M230.2,17.6l347.3,200.8V474.5L230.2,273.7V17.6Z" style="fill:#fff; fill-rule:evenodd;"/><path d="M228.6,310.8l14.1,8.1c1.8,.9,3.9,.8,5.6,0l5.8-3.4c1.6-.9,1.7-2.4,.2-3.3l-14.1-8.1c-1.8-.9-3.9-.8-5.6,0l-5.8,3.4c-1.6,.9-1.7,2.4-.2,3.3Z" style="fill:#fff; stroke:#1a4e85; stroke-miterlimit:10;"/><path d="M205.2,324.3l14.1,8.1c1.8,.9,3.9,.8,5.6,0l15.2-8.8c1.6-.9,1.7-2.4,.2-3.3l-14.1-8.1c-1.8-.9-3.9-.8-5.6,0l-15.2,8.8c-1.6,.9-1.7,2.4-.2,3.3Z" style="fill:#fff; stroke:#1a4e85; stroke-miterlimit:10;"/><path d="M181.9,337.8l24.9,14.4c1.8,.9,3.9,.8,5.6,0l15.2-8.8c1.6-.9,1.7-2.4,.2-3.3l-24.9-14.4c-1.8-.9-3.9-.8-5.6,0l-15.2,8.8c-1.6,.9-1.7,2.4-.2,3.3Z" style="fill:#fff; stroke:#1a4e85; stroke-miterlimit:10;"/><path d="M250.2,323.3l14.1,8.1c1.8,.9,3.9,.8,5.6,0l5.8-3.4c1.6-.9,1.7-2.4,.2-3.3l-14.1-8.1c-1.8-.9-3.9-.8-5.6,0l-5.8,3.4c-1.6,.9-1.7,2.4-.2,3.3Z" style="fill:#fff; stroke:#1a4e85; stroke-miterlimit:10;"/><path d="M261.9,332.7l-14.1-8.1c-1.8-.9-3.9-.8-5.6,0l-15.2,8.8c-1.6,.9-1.7,2.4-.2,3.3l14.1,8.1c1.8,.9,3.9,.8,5.6,0l15.2-8.8c1.6-.9,1.7-2.4,.2-3.3Z" style="fill:#fff; stroke:#1a4e85; stroke-miterlimit:10;"/><path d="M271.8,335.8l14,8.1c1.8,.9,3.9,.8,5.6,0l5.8-3.4c1.6-.9,1.7-2.4,.2-3.3l-14.1-8.1c-1.8-.9-3.9-.8-5.6,0l-5.8,3.4c-1.5,.9-1.6,2.4-.1,3.3Z" style="fill:#fff; stroke:#1a4e85; stroke-miterlimit:10;"/><path d="M283.5,345.2l-14.1-8.1c-1.8-.9-3.9-.8-5.6,0l-15.2,8.8c-1.6,.9-1.7,2.4-.2,3.3l14.1,8.1c1.8,.9,3.9,.8,5.6,0l15.2-8.8c1.6-.9,1.7-2.4,.2-3.3Z" style="fill:#fff; stroke:#1a4e85; stroke-miterlimit:10;"/><path d="M293.4,348.3l14.1,8.1c1.8,.9,3.9,.8,5.6,0l5.8-3.4c1.6-.9,1.7-2.4,.2-3.3l-14.1-8.1c-1.8-.9-3.9-.8-5.6,0l-5.8,3.4c-1.6,.9-1.7,2.4-.2,3.3Z" style="fill:#fff; stroke:#1a4e85; stroke-miterlimit:10;"/><path d="M305.1,357.7l-14.1-8.1c-1.8-.9-3.9-.8-5.6,0l-15.2,8.8c-1.6,.9-1.7,2.4-.2,3.3l14.1,8.1c1.8,.9,3.9,.8,5.6,0l15.2-8.8c1.6-.9,1.7-2.4,.2-3.3Z" style="fill:#fff; stroke:#1a4e85; stroke-miterlimit:10;"/><path d="M315,360.8l14.1,8.1c1.8,.9,3.9,.8,5.6,0l5.8-3.4c1.6-.9,1.7-2.4,.2-3.3l-14.1-8.1c-1.8-.9-3.9-.8-5.6,0l-5.8,3.4c-1.6,.9-1.7,2.4-.2,3.3Z" style="fill:#fff; stroke:#1a4e85; stroke-miterlimit:10;"/><path d="M326.7,370.2l-14.1-8.1c-1.8-.9-3.9-.8-5.6,0l-15.2,8.8c-1.6,.9-1.7,2.4-.2,3.3l14.1,8.1c1.8,.9,3.9,.8,5.6,0l15.2-8.8c1.6-.9,1.7-2.4,.2-3.3Z" style="fill:#fff; stroke:#1a4e85; stroke-miterlimit:10;"/><path d="M336.6,373.3l14.1,8.1c1.8,.9,3.9,.8,5.6,0l5.8-3.4c1.6-.9,1.7-2.4,.2-3.3l-14.1-8.1c-1.8-.9-3.9-.8-5.6,0l-5.8,3.4c-1.6,.9-1.6,2.4-.2,3.3Z" style="fill:#fff; stroke:#1a4e85; stroke-miterlimit:10;"/><path d="M348.4,382.7l-14.1-8.1c-1.8-.9-3.9-.8-5.6,0l-15.2,8.8c-1.6,.9-1.7,2.4-.2,3.3l14.1,8.1c1.8,.9,3.9,.8,5.6,0l15.2-8.8c1.6-.9,1.7-2.4,.2-3.3Z" style="fill:#fff; stroke:#1a4e85; stroke-miterlimit:10;"/><path d="M358.3,385.8l14.1,8.1c1.8,.9,3.9,.8,5.6,0l5.8-3.4c1.6-.9,1.7-2.4,.2-3.3l-14.1-8.1c-1.8-.9-3.9-.8-5.6,0l-5.8,3.4c-1.6,.9-1.7,2.4-.2,3.3Z" style="fill:#fff; stroke:#1a4e85; stroke-miterlimit:10;"/><path d="M370,395.2l-14.1-8.1c-1.8-.9-3.9-.8-5.6,0l-15.2,8.8c-1.6,.9-1.7,2.4-.2,3.3l14.1,8.1c1.8,.9,3.9,.8,5.6,0l15.2-8.8c1.6-.9,1.7-2.4,.2-3.3Z" style="fill:#fff; stroke:#1a4e85; stroke-miterlimit:10;"/><path d="M379.9,398.3l14.1,8.1c1.8,.9,3.9,.8,5.6,0l5.8-3.4c1.6-.9,1.7-2.4,.2-3.3l-14.1-8.1c-1.8-.9-3.9-.8-5.6,0l-5.8,3.4c-1.6,.9-1.7,2.4-.2,3.3Z" style="fill:#fff; stroke:#1a4e85; stroke-miterlimit:10;"/><path d="M391.6,407.7l-14.1-8.1c-1.8-.9-3.9-.8-5.6,0l-15.2,8.8c-1.6,.9-1.7,2.4-.2,3.3l14.1,8.1c1.8,.9,3.9,.8,5.6,0l15.2-8.8c1.6-.9,1.7-2.4,.2-3.3Z" style="fill:#fff; stroke:#1a4e85; stroke-miterlimit:10;"/><path d="M401.5,410.8l14,8.1c1.8,.9,3.9,.8,5.6,0l5.8-3.4c1.6-.9,1.7-2.4,.2-3.3l-14.1-8.1c-1.8-.9-3.9-.8-5.6,0l-5.8,3.4c-1.5,.9-1.6,2.4-.1,3.3Z" style="fill:#fff; stroke:#1a4e85; stroke-miterlimit:10;"/><path d="M413.2,420.2l-14.1-8.1c-1.8-.9-3.9-.8-5.6,0l-15.2,8.8c-1.6,.9-1.7,2.4-.2,3.3l14.1,8.1c1.8,.9,3.9,.8,5.6,0l15.2-8.8c1.6-.9,1.7-2.4,.2-3.3Z" style="fill:#fff; stroke:#1a4e85; stroke-miterlimit:10;"/><path d="M423.1,423.3l14.1,8.1c1.8,.9,3.9,.8,5.6,0l5.8-3.4c1.6-.9,1.7-2.4,.2-3.3l-14.1-8.1c-1.8-.9-3.9-.8-5.6,0l-5.8,3.4c-1.6,.9-1.7,2.4-.2,3.3Z" style="fill:#fff; stroke:#1a4e85; stroke-miterlimit:10;"/><path d="M434.8,432.7l-14.1-8.1c-1.8-.9-3.9-.8-5.6,0l-15.2,8.8c-1.6,.9-1.7,2.4-.2,3.3l14.1,8.1c1.8,.9,3.9,.8,5.6,0l15.2-8.8c1.6-.9,1.7-2.4,.2-3.3Z" style="fill:#fff; stroke:#1a4e85; stroke-miterlimit:10;"/><path d="M444.7,435.8l14.1,8.1c1.8,.9,3.9,.8,5.6,0l5.8-3.4c1.6-.9,1.7-2.4,.2-3.3l-14.1-8.1c-1.8-.9-3.9-.8-5.6,0l-5.8,3.4c-1.6,.9-1.7,2.4-.2,3.3Z" style="fill:#fff; stroke:#1a4e85; stroke-miterlimit:10;"/><path d="M456.4,445.2l-14.1-8.1c-1.8-.9-3.9-.8-5.6,0l-15.2,8.8c-1.6,.9-1.7,2.4-.2,3.3l14.1,8.1c1.8,.9,3.9,.8,5.6,0l15.2-8.8c1.6-.9,1.7-2.4,.2-3.3Z" style="fill:#fff; stroke:#1a4e85; stroke-miterlimit:10;"/><path d="M466.3,448.3l14.1,8.1c1.8,.9,3.9,.8,5.6,0l5.8-3.4c1.6-.9,1.7-2.4,.2-3.3l-14.1-8.1c-1.8-.9-3.9-.8-5.6,0l-5.8,3.4c-1.6,.9-1.6,2.4-.2,3.3Z" style="fill:#fff; stroke:#1a4e85; stroke-miterlimit:10;"/><path d="M478.1,457.7l-14.1-8.1c-1.8-.9-3.9-.8-5.6,0l-15.2,8.8c-1.6,.9-1.7,2.4-.2,3.3l14.1,8.1c1.8,.9,3.9,.8,5.6,0l15.2-8.8c1.6-.9,1.7-2.4,.2-3.3Z" style="fill:#fff; stroke:#1a4e85; stroke-miterlimit:10;"/><path d="M488,460.8l14.1,8.1c1.8,.9,3.9,.8,5.6,0l5.8-3.4c1.6-.9,1.7-2.4,.2-3.3l-14.1-8.1c-1.8-.9-3.9-.8-5.6,0l-5.8,3.4c-1.6,.9-1.7,2.4-.2,3.3Z" style="fill:#fff; stroke:#1a4e85; stroke-miterlimit:10;"/><path d="M521.3,482.7l-35.7-20.6c-1.8-.9-3.9-.8-5.6,0l-15.2,8.8c-1.6,.9-1.7,2.4-.2,3.3l35.7,20.6c1.8,.9,3.9,.8,5.6,0l15.2-8.8c1.6-.9,1.7-2.4,.2-3.3Z" style="fill:#fff; stroke:#1a4e85; stroke-miterlimit:10;"/><path d="M535.3,474.6l-14.1-8.1c-1.8-.9-3.9-.8-5.6,0l-5.8,3.4c-1.6,.9-1.7,2.4-.2,3.3l14.1,8.1c1.8,.9,3.9,.8,5.6,0l5.8-3.4c1.6-.9,1.7-2.4,.2-3.3Z" style="fill:#fff; stroke:#1a4e85; stroke-miterlimit:10;"/><path d="M214.3,356.5l14.1,8.1c1.8,.9,3.9,.8,5.6,0l15.2-8.8c1.6-.9,1.7-2.4,.2-3.3l-14.1-8.1c-1.8-.9-3.9-.8-5.6,0l-15.2,8.8c-1.6,1-1.7,2.5-.2,3.3Z" style="fill:#fff; stroke:#1a4e85; stroke-miterlimit:10;"/><path d="M271,365l-14.1-8.1c-1.8-.9-3.9-.8-5.6,0l-15.2,8.8c-1.6,.9-1.7,2.4-.2,3.3l14.1,8.1c1.8,.9,3.9,.8,5.6,0l15.2-8.8c1.6-1,1.7-2.4,.2-3.3Z" style="fill:#fff; stroke:#1a4e85; stroke-miterlimit:10;"/><path d="M292.6,377.5l-14.1-8.1c-1.8-.9-3.9-.8-5.6,0l-15.2,8.8c-1.6,.9-1.7,2.4-.2,3.3l14.1,8.1c1.8,.9,3.9,.8,5.6,0l15.2-8.8c1.6-1,1.7-2.4,.2-3.3Z" style="fill:#fff; stroke:#1a4e85; stroke-miterlimit:10;"/><path d="M314.2,390l-14.1-8.1c-1.8-.9-3.9-.8-5.6,0l-15.2,8.8c-1.6,.9-1.7,2.4-.2,3.3l14.1,8.1c1.8,.9,3.9,.8,5.6,0l15.2-8.8c1.6-1,1.7-2.4,.2-3.3Z" style="fill:#fff; stroke:#1a4e85; stroke-miterlimit:10;"/><path d="M335.8,402.5l-14.1-8.1c-1.8-.9-3.9-.8-5.6,0l-15.2,8.8c-1.6,.9-1.7,2.4-.2,3.3l14.1,8.1c1.8,.9,3.9,.8,5.6,0l15.2-8.8c1.6-1,1.7-2.4,.2-3.3Z" style="fill:#fff; stroke:#1a4e85; stroke-miterlimit:10;"/><path d="M357.4,415l-14.1-8.1c-1.8-.9-3.9-.8-5.6,0l-15.2,8.8c-1.6,.9-1.7,2.4-.2,3.3l14.1,8.1c1.8,.9,3.9,.8,5.6,0l15.2-8.8c1.6-1,1.7-2.4,.2-3.3Z" style="fill:#fff; stroke:#1a4e85; stroke-miterlimit:10;"/><path d="M379.1,427.5l-14.1-8.1c-1.8-.9-3.9-.8-5.6,0l-15.2,8.8c-1.6,.9-1.7,2.4-.2,3.3l14.1,8.1c1.8,.9,3.9,.8,5.6,0l15.2-8.8c1.6-1,1.6-2.4,.2-3.3Z" style="fill:#fff; stroke:#1a4e85; stroke-miterlimit:10;"/><path d="M400.7,440l-14.1-8.1c-1.8-.9-3.9-.8-5.6,0l-15.2,8.8c-1.6,.9-1.7,2.4-.2,3.3l14.1,8.1c1.8,.9,3.9,.8,5.6,0l15.2-8.8c1.6-1,1.7-2.4,.2-3.3Z" style="fill:#fff; stroke:#1a4e85; stroke-miterlimit:10;"/><path d="M387.2,456.5l14.1,8.1c1.8,.9,3.9,.8,5.6,0l15.2-8.8c1.6-.9,1.7-2.4,.2-3.3l-14.1-8.1c-1.8-.9-3.9-.8-5.6,0l-15.2,8.8c-1.6,1-1.7,2.5-.2,3.3Z" style="fill:#fff; stroke:#1a4e85; stroke-miterlimit:10;"/><path d="M428.5,477l15.2-8.8c1.6-.9,1.7-2.4,.2-3.3l-14.1-8.1c-1.8-.9-3.9-.8-5.6,0l-15.2,8.8c-1.6,.9-1.7,2.4-.2,3.3l14.1,8.1c1.8,.9,3.9,.9,5.6,0Z" style="fill:#fff; stroke:#1a4e85; stroke-miterlimit:10;"/><path d="M465.5,477.5l-14.1-8.1c-1.8-.9-3.9-.8-5.6,0l-15.2,8.8c-1.6,.9-1.7,2.4-.2,3.3l14.1,8.1c1.8,.9,3.9,.8,5.6,0l15.2-8.8c1.6-1,1.7-2.4,.2-3.3Z" style="fill:#fff; stroke:#1a4e85; stroke-miterlimit:10;"/><path d="M179.3,393l-14.1-8.1c-1.8-.9-3.9-.8-5.6,0l-15.2,8.8c-1.6,.9-1.7,2.4-.2,3.3l14.1,8.1c1.8,.9,3.9,.8,5.6,0l15.2-8.8c1.6-1,1.7-2.4,.2-3.3Z" style="fill:#fff; stroke:#1a4e85; stroke-miterlimit:10;"/><path d="M157.7,380.5l-24.9-14.4c-1.8-.9-3.9-.8-5.6,0l-15.2,8.8c-1.6,.9-1.7,2.4-.2,3.3l24.9,14.4c1.8,.9,3.9,.8,5.6,0l15.2-8.8c1.6-1,1.7-2.4,.2-3.3Z" style="fill:#fff; stroke:#1a4e85; stroke-miterlimit:10;"/><path d="M200.9,405.5l-14.1-8.1c-1.8-.9-3.9-.8-5.6,0l-15.2,8.8c-1.6,.9-1.7,2.4-.2,3.3l14.1,8.1c1.8,.9,3.9,.8,5.6,0l15.2-8.8c1.6-1,1.7-2.4,.2-3.3Z" style="fill:#fff; stroke:#1a4e85; stroke-miterlimit:10;"/><path d="M222.5,418l-14.1-8.1c-1.8-.9-3.9-.8-5.6,0l-15.2,8.8c-1.6,.9-1.7,2.4-.2,3.3l14.1,8.1c1.8,.9,3.9,.8,5.6,0l15.2-8.8c1.6-1,1.7-2.4,.2-3.3Z" style="fill:#fff; stroke:#1a4e85; stroke-miterlimit:10;"/><path d="M244.2,430.5l-14.1-8.1c-1.8-.9-3.9-.8-5.6,0l-15.2,8.8c-1.6,.9-1.7,2.4-.2,3.3l14,8.1c1.8,.9,3.9,.8,5.6,0l15.2-8.8c1.7-1,1.8-2.4,.3-3.3Z" style="fill:#fff; stroke:#1a4e85; stroke-miterlimit:10;"/><path d="M265.8,443l-14.1-8.1c-1.8-.9-3.9-.8-5.6,0l-15.2,8.8c-1.6,.9-1.7,2.4-.2,3.3l14.1,8.1c1.8,.9,3.9,.8,5.6,0l15.2-8.8c1.6-1,1.7-2.4,.2-3.3Z" style="fill:#fff; stroke:#1a4e85; stroke-miterlimit:10;"/><path d="M287.4,455.5l-14.1-8.1c-1.8-.9-3.9-.8-5.6,0l-15.2,8.8c-1.6,.9-1.7,2.4-.2,3.3l14.1,8.1c1.8,.9,3.9,.8,5.6,0l15.2-8.8c1.6-1,1.7-2.4,.2-3.3Z" style="fill:#fff; stroke:#1a4e85; stroke-miterlimit:10;"/><path d="M309,468l-14.1-8.1c-1.8-.9-3.9-.8-5.6,0l-15.2,8.8c-1.6,.9-1.7,2.4-.2,3.3l14.1,8.1c1.8,.9,3.9,.8,5.6,0l15.2-8.8c1.6-1,1.7-2.4,.2-3.3Z" style="fill:#fff; stroke:#1a4e85; stroke-miterlimit:10;"/><path d="M330.6,480.5l-14.1-8.1c-1.8-.9-3.9-.8-5.6,0l-15.2,8.8c-1.6,.9-1.7,2.4-.2,3.3l14.1,8.1c1.8,.9,3.9,.8,5.6,0l15.2-8.8c1.6-1,1.7-2.4,.2-3.3Z" style="fill:#fff; stroke:#1a4e85; stroke-miterlimit:10;"/><path d="M352.3,493l-14.1-8.1c-1.8-.9-3.9-.8-5.6,0l-15.2,8.8c-1.6,.9-1.7,2.4-.2,3.3l14.1,8.1c1.8,.9,3.9,.8,5.6,0l15.2-8.8c1.5-1,1.6-2.4,.2-3.3Z" style="fill:#fff; stroke:#1a4e85; stroke-miterlimit:10;"/><path d="M373.9,505.5l-14.1-8.1c-1.8-.9-3.9-.8-5.6,0l-15.2,8.8c-1.6,.9-1.7,2.4-.2,3.3l14.1,8.1c1.8,.9,3.9,.8,5.6,0l15.2-8.8c1.6-1,1.7-2.4,.2-3.3Z" style="fill:#fff; stroke:#1a4e85; stroke-miterlimit:10;"/><path d="M395.5,518l-14.1-8.1c-1.8-.9-3.9-.8-5.6,0l-15.2,8.8c-1.6,.9-1.7,2.4-.2,3.3l14.1,8.1c1.8,.9,3.9,.8,5.6,0l15.2-8.8c1.6-1,1.7-2.4,.2-3.3Z" style="fill:#fff; stroke:#1a4e85; stroke-miterlimit:10;"/><path d="M427.9,536.7l-24.9-14.4c-1.8-.9-3.9-.8-5.6,0l-15.2,8.8c-1.6,.9-1.7,2.4-.2,3.3l24.9,14.4c1.8,.9,3.9,.8,5.6,0l15.2-8.8c1.6-.9,1.7-2.4,.2-3.3Z" style="fill:#fff; stroke:#1a4e85; stroke-miterlimit:10;"/><path d="M498,496.2l-24.9-14.4c-1.8-.9-3.9-.8-5.6,0l-15.2,8.8c-1.6,.9-1.7,2.4-.2,3.3l8.1,4.7-20.4,11.8c-1.6,.9-1.7,2.4-.2,3.3l14.1,8.1c1.8,.9,3.9,.8,5.6,0l26.8-15.5h0l11.7-6.7c1.6-1,1.6-2.5,.2-3.4Z" style="fill:#fff; stroke:#1a4e85; stroke-miterlimit:10;"/><path d="M158.5,351.3l35.7,20.6c1.8,.9,3.9,.8,5.6,0l15.2-8.8c1.6-.9,1.7-2.4,.2-3.3l-35.7-20.6c-1.8-.9-3.9-.8-5.6,0l-15.2,8.8c-1.6,1-1.7,2.4-.2,3.3Z" style="fill:#fff; stroke:#1a4e85; stroke-miterlimit:10;"/><path d="M201.8,376.3l14.1,8.1c1.8,.9,3.9,.8,5.6,0l15.2-8.8c1.6-.9,1.7-2.4,.2-3.3l-14.1-8.1c-1.8-.9-3.9-.8-5.6,0l-15.2,8.8c-1.6,1-1.7,2.4-.2,3.3Z" style="fill:#fff; stroke:#1a4e85; stroke-miterlimit:10;"/><path d="M223.4,388.8l14.1,8.1c1.8,.9,3.9,.8,5.6,0l15.2-8.8c1.6-.9,1.7-2.4,.2-3.3l-14.1-8.1c-1.8-.9-3.9-.8-5.6,0l-15.2,8.8c-1.6,1-1.7,2.4-.2,3.3Z" style="fill:#fff; stroke:#1a4e85; stroke-miterlimit:10;"/><path d="M245,401.3l14.1,8.1c1.8,.9,3.9,.8,5.6,0l15.2-8.8c1.6-.9,1.7-2.4,.2-3.3l-14.1-8.1c-1.8-.9-3.9-.8-5.6,0l-15.2,8.8c-1.6,.9-1.7,2.4-.2,3.3Z" style="fill:#fff; stroke:#1a4e85; stroke-miterlimit:10;"/><path d="M266.6,413.8l14.1,8.1c1.8,.9,3.9,.8,5.6,0l15.2-8.8c1.6-.9,1.7-2.4,.2-3.3l-14.1-8.1c-1.8-.9-3.9-.8-5.6,0l-15.2,8.8c-1.6,.9-1.7,2.4-.2,3.3Z" style="fill:#fff; stroke:#1a4e85; stroke-miterlimit:10;"/><path d="M288.2,426.3l14.1,8.1c1.8,.9,3.9,.8,5.6,0l15.2-8.8c1.6-.9,1.7-2.4,.2-3.3l-14.1-8.1c-1.8-.9-3.9-.8-5.6,0l-15.2,8.8c-1.6,1-1.7,2.4-.2,3.3Z" style="fill:#fff; stroke:#1a4e85; stroke-miterlimit:10;"/><path d="M309.8,438.8l14.1,8.1c1.8,.9,3.9,.8,5.6,0l15.2-8.8c1.6-.9,1.7-2.4,.2-3.3l-14-8.1c-1.8-.9-3.9-.8-5.6,0l-15.2,8.8c-1.7,.9-1.8,2.4-.3,3.3Z" style="fill:#fff; stroke:#1a4e85; stroke-miterlimit:10;"/><path d="M331.5,451.3l14.1,8.1c1.8,.9,3.9,.8,5.6,0l15.2-8.8c1.6-.9,1.7-2.4,.2-3.3l-14.1-8.1c-1.8-.9-3.9-.8-5.6,0l-15.2,8.8c-1.6,.9-1.7,2.4-.2,3.3Z" style="fill:#fff; stroke:#1a4e85; stroke-miterlimit:10;"/><path d="M353.1,463.8l14.1,8.1c1.8,.9,3.9,.8,5.6,0l15.2-8.8c1.6-.9,1.7-2.4,.2-3.3l-14.1-8.1c-1.8-.9-3.9-.8-5.6,0l-15.2,8.8c-1.6,.9-1.7,2.4-.2,3.3Z" style="fill:#fff; stroke:#1a4e85; stroke-miterlimit:10;"/><path d="M374.7,476.3l14.1,8.1c1.8,.9,3.9,.8,5.6,0l15.2-8.8c1.6-.9,1.7-2.4,.2-3.3l-14.1-8.1c-1.8-.9-3.9-.8-5.6,0l-15.2,8.8c-1.6,.9-1.7,2.4-.2,3.3Z" style="fill:#fff; stroke:#1a4e85; stroke-miterlimit:10;"/><path d="M431.2,488c1.6-.9,1.7-2.4,.2-3.3l-14.1-8.1c-1.8-.9-3.9-.8-5.6,0l-15.2,8.8c-1.6,.9-1.7,2.4-.2,3.3l14.1,8.1c1.8,.9,3.9,.8,5.6,0l15.2-8.8Z" style="fill:#fff; stroke:#1a4e85; stroke-miterlimit:10;"/><path d="M417.9,501.3l14.1,8.1c1.8,.9,3.9,.8,5.6,0l15.2-8.8c1.6-.9,1.7-2.4,.2-3.3l-14.1-8.1c-1.8-.9-3.9-.8-5.6,0l-15.2,8.8c-1.6,.9-1.7,2.4-.2,3.3Z" style="fill:#fff; stroke:#1a4e85; stroke-miterlimit:10;"/><path d="M135.2,364.8l19.5,11.3c1.8,.9,3.9,.8,5.6,0l15.2-8.8c1.6-.9,1.7-2.4,.2-3.3l-19.5-11.3c-1.8-.9-3.9-.8-5.6,0l-15.2,8.8c-1.6,1-1.7,2.4-.2,3.3Z" style="fill:#fff; stroke:#1a4e85; stroke-miterlimit:10;"/><path d="M183.8,392.9l14.1,8.1c1.8,.9,3.9,.8,5.6,0l15.2-8.8c1.6-.9,1.7-2.4,.2-3.3l-14.1-8.1c-1.8-.9-3.9-.8-5.6,0l-15.2,8.8c-1.6,1-1.7,2.4-.2,3.3Z" style="fill:#fff; stroke:#1a4e85; stroke-miterlimit:10;"/><path d="M197.2,376.4l-14.1-8.1c-1.8-.9-3.9-.8-5.6,0l-15.2,8.8c-1.6,.9-1.7,2.4-.2,3.3l14.1,8.1c1.8,.9,3.9,.8,5.6,0l15.2-8.8c1.6-1,1.7-2.5,.2-3.3Z" style="fill:#fff; stroke:#1a4e85; stroke-miterlimit:10;"/><path d="M205.4,405.4l14.1,8.1c1.8,.9,3.9,.8,5.6,0l15.2-8.8c1.6-.9,1.7-2.4,.2-3.3l-14.1-8.1c-1.8-.9-3.9-.8-5.6,0l-15.2,8.8c-1.6,1-1.7,2.4-.2,3.3Z" style="fill:#fff; stroke:#1a4e85; stroke-miterlimit:10;"/><path d="M227,417.9l14.1,8.1c1.8,.9,3.9,.8,5.6,0l15.2-8.8c1.6-.9,1.7-2.4,.2-3.3l-14.1-8.1c-1.8-.9-3.9-.8-5.6,0l-15.2,8.8c-1.6,1-1.7,2.4-.2,3.3Z" style="fill:#fff; stroke:#1a4e85; stroke-miterlimit:10;"/><path d="M248.7,430.4l14.1,8.1c1.8,.9,3.9,.8,5.6,0l15.2-8.8c1.6-.9,1.7-2.4,.2-3.3l-14.1-8.1c-1.8-.9-3.9-.8-5.6,0l-15.2,8.8c-1.6,1-1.7,2.4-.2,3.3Z" style="fill:#fff; stroke:#1a4e85; stroke-miterlimit:10;"/><path d="M270.3,442.9l14.1,8.1c1.8,.9,3.9,.8,5.6,0l15.2-8.8c1.6-.9,1.7-2.4,.2-3.3l-14.1-8.1c-1.8-.9-3.9-.8-5.6,0l-15.2,8.8c-1.6,1-1.7,2.4-.2,3.3Z" style="fill:#fff; stroke:#1a4e85; stroke-miterlimit:10;"/><path d="M291.9,455.4l14.1,8.1c1.8,.9,3.9,.8,5.6,0l15.2-8.8c1.6-.9,1.7-2.4,.2-3.3l-14.1-8.1c-1.8-.9-3.9-.8-5.6,0l-15.2,8.8c-1.6,1-1.7,2.4-.2,3.3Z" style="fill:#fff; stroke:#1a4e85; stroke-miterlimit:10;"/><path d="M313.5,467.9l14.1,8.1c1.8,.9,3.9,.8,5.6,0l15.2-8.8c1.6-.9,1.7-2.4,.2-3.3l-14.1-8.1c-1.8-.9-3.9-.8-5.6,0l-15.2,8.8c-1.6,1-1.7,2.4-.2,3.3Z" style="fill:#fff; stroke:#1a4e85; stroke-miterlimit:10;"/><path d="M335.1,480.4l14.1,8.1c1.8,.9,3.9,.8,5.6,0l15.2-8.8c1.6-.9,1.7-2.4,.2-3.3l-14.1-8.1c-1.8-.9-3.9-.8-5.6,0l-15.2,8.8c-1.6,1-1.7,2.4-.2,3.3Z" style="fill:#fff; stroke:#1a4e85; stroke-miterlimit:10;"/><path d="M356.7,492.9l14.1,8.1c1.8,.9,3.9,.8,5.6,0l15.2-8.8c1.6-.9,1.7-2.4,.2-3.3l-14.1-8.1c-1.8-.9-3.9-.8-5.6,0l-15.2,8.8c-1.6,1-1.6,2.4-.2,3.3Z" style="fill:#fff; stroke:#1a4e85; stroke-miterlimit:10;"/><path d="M378.4,505.4l14.1,8.1c1.8,.9,3.9,.8,5.6,0l15.2-8.8c1.6-.9,1.7-2.4,.2-3.3l-14.1-8.1c-1.8-.9-3.9-.8-5.6,0l-15.2,8.8c-1.6,1-1.7,2.4-.2,3.3Z" style="fill:#fff; stroke:#1a4e85; stroke-miterlimit:10;"/><path d="M451.3,523.2l-30.3-17.5c-1.8-.9-3.9-.8-5.6,0l-15.2,8.8c-1.6,.9-1.7,2.4-.2,3.3l30.3,17.5c1.8,.9,3.9,.8,5.6,0l15.2-8.8c1.6-.9,1.6-2.4,.2-3.3Z" style="fill:#fff; stroke:#1a4e85; stroke-miterlimit:10;"/><path d="M357.9,630.9h-.7c-3.2,0-6.3-.8-9.1-2.4L4.8,430.1c-2-1.1-3.5-2.8-4.4-4.9l-.2-.5-.2-18.5v-.3c.8-2.9,2.7-5.3,5.4-6.6l214.6-124,.4-258.9c0-4,1.3-7.2,3.7-8.9l.9-.6h.3l10.9-6c2.5-1.4,5.6-1.2,8.6,.5l342.4,197.9c3.4,2.2,6.1,5.3,7.7,9,1.5,3.1,2.4,6.5,2.4,9.9h0l-.3,277.6-228.1,132.6c-3.4,1.7-7.2,2.6-11,2.5ZM6.2,423.5c.4,.6,1,1.1,1.6,1.4l343.2,198.4c1.9,1,4.1,1.5,6.3,1.5h.6c2.8,0,5.6-.6,8.1-1.9l225.1-130.8,.3-274.1c0-2.5-.7-5-1.8-7.3-1.1-2.6-3-4.8-5.3-6.4L241.9,6.3c-.8-.6-1.8-.8-2.7-.5l-11.4,6.3h-.1c-.6,.5-1.3,1.8-1.3,4.1l-.4,262.4L8.5,404.4c-1.1,.5-2,1.3-2.5,2.4l.2,16.7Z" style="fill:#1a4e85;"/><polygon points="251.6 65 306.2 98.4 306.2 290.9 251.6 257.5 251.6 65" style="fill:#f5f5f5; fill-rule:evenodd;"/><polygon points="364.8 128.4 553.7 239.6 553.7 432.1 364.8 320.9 364.8 128.4" style="fill:#f5f5f5; fill-rule:evenodd;"/><path id="b" d="M376.7,196.8l35.6,20.6c3.3,1.9,5.9,6.1,5.9,9.4s-2.7,4.4-5.9,2.5l-35.6-20.6c-3.3-1.9-5.9-6.1-5.9-9.4s2.7-4.4,5.9-2.5Z" style="fill:#1a4e85; fill-rule:evenodd;"/><path id="c" d="M317.4,186.3l35.6,20.6c3.3,1.9,5.9,6.1,5.9,9.4s-2.7,4.4-5.9,2.5l-35.6-20.6c-3.3-1.9-5.9-6.1-5.9-9.4s2.7-4.4,5.9-2.5Z" style="fill:#5ab552; fill-rule:evenodd;"/><path id="d" d="M281.8,165.7l11.9,6.9c3.3,1.9,5.9,6.1,5.9,9.4s-2.7,4.4-5.9,2.5l-11.9-6.9c-3.3-1.9-5.9-6.1-5.9-9.4s2.7-4.4,5.9-2.5Z" style="fill:#1a4e85; fill-rule:evenodd;"/><path id="e" d="M376.7,220.6l142.3,82.4c3.3,1.9,5.9,6.1,5.9,9.4s-2.7,4.4-5.9,2.5l-142.3-82.4c-3.3-1.9-5.9-6.1-5.9-9.4s2.7-4.4,5.9-2.5Z" style="fill:#1a4e85; fill-rule:evenodd;"/><path id="f" d="M317.4,210.1l35.6,20.6c3.3,1.9,5.9,6.1,5.9,9.4s-2.7,4.4-5.9,2.5l-35.6-20.6c-3.3-1.9-5.9-6.1-5.9-9.4s2.7-4.4,5.9-2.5Z" style="fill:#5ab552; fill-rule:evenodd;"/><path id="g" d="M281.8,189.5l11.9,6.9c3.3,1.9,5.9,6.1,5.9,9.4s-2.7,4.4-5.9,2.5l-11.9-6.9c-3.3-1.9-5.9-6.1-5.9-9.4s2.7-4.4,5.9-2.5Z" style="fill:#1a4e85; fill-rule:evenodd;"/><path id="h" d="M376.7,244.4l106.7,61.8c3.3,1.9,5.9,6.1,5.9,9.4s-2.7,4.4-5.9,2.5l-106.7-61.8c-3.3-1.9-5.9-6.1-5.9-9.4s2.7-4.4,5.9-2.5Z" style="fill:#1a4e85; fill-rule:evenodd;"/><path id="i" d="M281.8,213.2l11.9,6.9c3.3,1.9,5.9,6.1,5.9,9.4s-2.7,4.4-5.9,2.5l-11.9-6.9c-3.3-1.9-5.9-6.1-5.9-9.4s2.7-4.4,5.9-2.5Z" style="fill:#1a4e85; fill-rule:evenodd;"/><path id="j" d="M376.7,268.2l35.6,20.6c3.3,1.9,5.9,6.1,5.9,9.4s-2.7,4.4-5.9,2.5l-35.6-20.6c-3.3-1.9-5.9-6.1-5.9-9.4s2.7-4.4,5.9-2.5Z" style="fill:#1a4e85; fill-rule:evenodd;"/><path id="k" d="M317.4,162.5l35.6,20.6c3.3,1.9,5.9,6.1,5.9,9.4s-2.7,4.4-5.9,2.5l-35.6-20.6c-3.3-1.9-5.9-6.1-5.9-9.4s2.7-4.4,5.9-2.5Z" style="fill:#5ab552; fill-rule:evenodd;"/><path id="l" d="M281.8,141.9l11.9,6.9c3.3,1.9,5.9,6.1,5.9,9.4s-2.7,4.4-5.9,2.5l-11.9-6.9c-3.3-1.9-5.9-6.1-5.9-9.4s2.7-4.4,5.9-2.5Z" style="fill:#1a4e85; fill-rule:evenodd;"/></svg>