<?xml version="1.0" encoding="UTF-8"?><svg id="a" xmlns="http://www.w3.org/2000/svg" xmlns:xlink="http://www.w3.org/1999/xlink" viewBox="0 0 614.3 872.6"><defs><style>.e{fill:#fff;}.e,.f,.g,.h,.i{fill-rule:evenodd;}.f{fill:url(#c);}.g{fill:url(#b);}.j{fill:none;stroke:#1a4e85;stroke-linecap:round;stroke-linejoin:round;stroke-width:6px;}.h{fill:url(#d);}.k{fill:#1a4e85;}.i{fill:#bbdefb;}</style><linearGradient id="b" x1="236.1" y1="476" x2="262" y2="520.9" gradientTransform="matrix(1, 0, 0, 1, 0, 0)" gradientUnits="userSpaceOnUse"><stop offset="0" stop-color="#fff"/><stop offset="1" stop-color="#bbdefb"/></linearGradient><linearGradient id="c" x1="467" y1="647.6" x2="491.9" y2="690.7" gradientTransform="matrix(1, 0, 0, 1, 0, 0)" gradientUnits="userSpaceOnUse"><stop offset="0" stop-color="#fff"/><stop offset="1" stop-color="#bbdefb"/></linearGradient><linearGradient id="d" x1="341" y1="159.1" x2="366.5" y2="203.2" gradientTransform="matrix(1, 0, 0, 1, 0, 0)" gradientUnits="userSpaceOnUse"><stop offset="0" stop-color="#fff"/><stop offset="1" stop-color="#bbdefb"/></linearGradient></defs><path d="M86.7,581.2l75.8,132.4,171.6-99.2h0c5.9-3.5,9.7-12.3,9.7-24.8v-114c0-8.6-1.5-17.2-4.6-25.2-4.4-11.9-252.5,130.8-252.5,130.8Z" style="fill:#bbdefb; fill-rule:evenodd;"/><path d="M324.7,427.4l-172.9,97.3,10.6,13.5,6.8,14,3.8,20.2,170.7-99.9c-.7-16.7-9.2-35.4-19-45Z" style="fill:url(#b); fill-rule:evenodd;"/><path d="M325.9,428.5c-1.8-1.9-3.9-3.5-6.2-4.8l-48.6-28.1-24.3-14-48.6-28.1c-5.2-3-9.9-3.2-13.9-1.2h-.3l-.7,.4L12.5,451.6l26,45.4,85.9,45,201.5-113.5Z" style="fill:#fff; fill-rule:evenodd;"/><path d="M354.1,733.6l76.5,134,170.5-98.5,.7-.4h.2c5.7-3.7,9.3-12.4,9.3-24.5v-114c-.2-11.8-3.1-23.4-8.5-33.9-4.3-8.1-248.7,137.3-248.7,137.3Z" style="fill:#bbdefb; fill-rule:evenodd;"/><path d="M608.6,611.1l-19.3-31.6s0,0,0,0l-244,138.4,24.7,43.3,240-144.9c-.4-1.7-.8-3.4-1.2-5.1Z" style="fill:url(#c); fill-rule:evenodd;"/><path d="M590.2,580.2c-1-.8-2.1-1.6-3.2-2.2l-48.6-28.1-24.3-14-48.6-28.1c-5.4-3.1-10.3-3.2-14.4-.9l-170.1,98.5,8.8,15.5,120,61.1,180.4-101.8Z" style="fill:#fff; fill-rule:evenodd;"/><path d="M558.5,510.6l-224.8-129.8v-95l-24.3-14v95L84.7,237c-1-.7-2.4-.8-3.5-.3h0l-17.7,9.8,15.2,12.6v2.8c0,5.2,2.7,11.1,6.1,13l42.3,24.5,42.6,35.4,2,96,10.5,15.8,18-10v-81.9l233.5,133.1,4,11,5.5,47.6v30.6l3.8,2.2,2.5,21.8,18-10v-81.9l14.2,.7,63,48.7,17.3-9.6h.3c1.5-.9,2.4-3.1,2.4-6.2v-19c-.1-5.3-2.8-11.1-6.2-13.1Z" style="fill:#bbdefb; fill-rule:evenodd;"/><path d="M437.3,476l103.2,51.1,21.9-12.1c-1.1-2-2.4-3.5-3.9-4.4l-224.8-129.8-18,10,121.6,85.2Z" style="fill:#fff; fill-rule:evenodd;"/><path d="M298.9,360.7L84.7,237c-1-.7-2.4-.8-3.5-.3l-17.7,9.8,12.4,10.3,220.5,129.8,2.5-25.9Z" style="fill:#fff; fill-rule:evenodd;"/><path d="M449.4,601v-95l91.1,52.6c3.4,1.9,6.1-.7,6.1-6v-19c0-5.2-2.7-11.1-6.1-13l-224.8-129.8v-95l-24.3-14v95L66.7,247c-3.4-1.9-6.1,.7-6.1,6v19c0,5.2,2.7,11.1,6.1,13l91.1,52.6v95l24.3,14v-95l243,140.3v95l24.3,14.1Z" style="fill:#fff; fill-rule:evenodd;"/><path d="M126.2,279.6l-45.2-26.1c-.4,.9-.7,1.9-1.1,2.8l45.9,26.5c0-1.1,.1-2.2,.4-3.2Z" style="fill:#1a4e85;"/><path d="M530.8,516.7c0-1.2-.2-2.4-.2-3.6l-213.4-123.1v-95l-27.3-15.8v95l-143.4-82.9,2.8,5.1,143.7,83v-95l21.3,12.3v95l216.5,125Z" style="fill:#1a4e85;"/><path d="M170.1,439.3c0-.4,0-.9,.1-1.3l-10.9-6.3v-35.6c-1.1,0-2.1-.4-3-1v38.3l13.9,8c0-.7,0-1.4-.1-2.1Z" style="fill:#1a4e85;"/><path d="M180.6,349v81.7c.8-.8,1.9-1.3,3-1.4v-75.1l118.3,68.3c0-.5,.2-1.1,.4-1.6,0-.5,.3-.9,.6-1.3l-122.3-70.6Z" style="fill:#1a4e85;"/><path d="M447.9,503.4v56c.4-.1,.8-.2,1.2,0h1.8v-50.7l78.5,45.3,.5-.5c0-.9,0-1.7,0-2.6l-82.1-47.4Z" style="fill:#1a4e85;"/><path d="M445.2,596.8l-18.6-10.7v-20.5c-.8,.4-1.6,.7-2.5,.7h-.5v21.5l18.3,10.6,3.3-1.6Z" style="fill:#1a4e85;"/><path d="M489.8,142c-.2-11-2.7-21.8-7.5-31.7-4.3-9.1-258.9,136.4-258.9,136.4l85.2,133.1,169.1-97.9c1.6-.5,3.1-1.4,4.4-2.5l2.6-1.5-.5-.7c3.5-4.6,5.7-11.8,5.7-21.1v-114.1h-.1Z" style="fill:#bbdefb; fill-rule:evenodd;"/><path d="M466.6,90.3L213.9,232.5l27.8,42.8,247.1-144.7c-2.8-16.3-12.2-33.2-22.2-40.3Z" style="fill:url(#d); fill-rule:evenodd;"/><path d="M467.7,91.4l-2.2-1.4L319.7,5.8c-7.2-4.2-13.6-2.9-19.7,1.4L132.6,104.9l16.7,26,135.8,63.1,182.6-102.6Z" style="fill:#fff; fill-rule:evenodd;"/><path d="M100.1,494.6l48.6,28.1c13.4,7.7,24.3,31,24.3,52v114c0,21-10.9,31.7-24.3,24l-121.5-70.2c-13.4-7.7-24.3-31-24.3-52v-114c0-21,10.9-31.7,24.3-24l48.6,28.1,24.3,14Zm267.3,154.4l48.6,28.1c13.4,7.7,24.3,31,24.3,52v114c0,21-10.9,31.7-24.3,24l-121.5-70.2c-13.4-7.7-24.3-31-24.3-52v-114c0-21,10.9-31.7,24.3-24l48.6,28.1,24.3,14ZM233.7,343.8l60.8,35.1c13.4,7.7,24.3-3,24.3-24v-114c0-21-10.9-44.3-24.3-52L148.7,104.7c-13.4-7.7-24.3,3-24.3,24v114c0,21,10.9,44.3,24.3,52l60.8,35.1,24.2,14Z" style="fill:#fff; fill-rule:evenodd;"/><path d="M210,138.4l-53.9-31.1c-.2,1-.7,1.9-1.5,2.5q-.1,0-.1,0h0l53.3,30.8,2.2-2.3Z" style="fill:#1a4e85;"/><path d="M317.3,241v59.8l3-.9v-58.9c0-21.4-11.2-45.3-25.1-53.3l-29.1-16.8-1.6,2.6,29.2,16.8c13,7.5,23.6,30.2,23.6,50.7Z" style="fill:#1a4e85;"/><path d="M234.5,342.5l-85-49.1c-5.9-3.4-11.2-9.9-15.3-17.8l-2.7,1.2c4.4,8.6,10.2,15.6,16.5,19.3l145.7,84.1,1.5-2.6-60.7-35.1Z" style="fill:#1a4e85;"/><path d="M171.5,574.7v85l3-.6v-84.4c0-21.4-11.2-45.3-25.1-53.3l-94.9-54.8-2.1,2.3,95.5,55.1c13,7.5,23.6,30.2,23.6,50.7Z" style="fill:#1a4e85;"/><path d="M415.7,675.1l-109.6-63.3-1.5,2.6,108.6,62.7,2.5-2Z" style="fill:#1a4e85;"/><path d="M441.8,830.3v-90.7l-3,.3v90.7c1-.2,2-.2,3-.3Z" style="fill:#1a4e85;"/><path d="M587,578l-38-22,12.9-7.1h.3c1.5-.9,2.4-3.1,2.4-6.2v-19c0-5.2-2.7-11.1-6.1-13l-224.8-129.9v-15.6l143.9-83.4c1.6-.5,3.1-1.4,4.4-2.5l2.6-1.5-.5-.7c3.5-4.6,5.7-11.8,5.7-21.1v-114c0-21-10.9-44.3-24.3-52L319.7,5.8c-7.2-4.2-13-3.4-19,1L135,103.5c-.5,.2-.9,.5-1.3,.8l-1,.6h.1c-5.1,4-8.3,12.4-8.3,23.8v114c.1,6.3,1,12.7,2.6,18.8l-42.4-24.4c-1-.7-2.4-.8-3.5-.3h0l-17.7,9.8h0c-1.7,.7-2.8,3-2.8,6.4v19c0,5.2,2.7,11.1,6.1,13l91.1,52.6v30.1L12.8,451.6h-.1c-5.9,3.6-9.7,12.5-9.7,24.9v114c0,21,10.9,44.3,24.3,52l121.5,70.2c5.9,3.4,11.4,3.2,15.6,0l105.9-61.2v93.3c0,21,10.9,44.3,24.3,52l121.5,70.2c5.9,3.4,11.3,3.2,15.6,.2l169.4-98.2,.7-.4h.2c5.7-3.7,9.3-12.4,9.3-24.5v-114c0-21.1-10.9-44.4-24.3-52.2Zm-161.9-86v30.1l-81.1,47v-93.3c-.2-12.7-3.6-25.2-9.9-36.3l91,52.5Z" style="fill:none; stroke:#1a4e85; stroke-linecap:round; stroke-linejoin:round; stroke-width:6px;"/></svg>