<?xml version="1.0" encoding="UTF-8"?><svg id="a" xmlns="http://www.w3.org/2000/svg" xmlns:xlink="http://www.w3.org/1999/xlink" viewBox="0 0 653 837.4"><defs><style>.d{fill:#fff;}.d,.e,.f,.g{fill-rule:evenodd;}.e{fill:url(#c);}.f{fill:url(#b);}.h{fill:none;stroke:#1a4e85;stroke-miterlimit:10;stroke-width:6px;}.i{fill:#1a4e85;}.g{fill:#bbdefb;}</style><linearGradient id="b" x1="320.9" y1="597" x2="394.6" y2="724.7" gradientTransform="translate(0 840) scale(1 -1)" gradientUnits="userSpaceOnUse"><stop offset="0" stop-color="#fff"/><stop offset="1" stop-color="#dceefd"/></linearGradient><linearGradient id="c" x1="328.8" y1="249.3" x2="254.5" y2="120.6" gradientTransform="translate(0 840) scale(1 -1)" gradientUnits="userSpaceOnUse"><stop offset="0" stop-color="#fff"/><stop offset="1" stop-color="#dceefd"/></linearGradient></defs><path d="M650,307.3L254.7,80.5s-1.1-57.3-26-71.9l396.3,227.8s25,15.2,25,70.9Z" style="fill:#bbdefb; fill-rule:evenodd;"/><path d="M606.3,225.4L220,3.8s-32-10.3-64,44c0,0-27,47.7-27,104V458.8s-2.7,56-19,86-31.3,62.3-72,61l380,219s29.7,31.7,68-20,38.3-119,38.3-119V378.8s1-59,28.7-105c19.6-32.6,38.5-42.9,52.8-43.5,.2-1.6,.4-3.3,.5-4.9Z" style="fill:#fff; fill-rule:evenodd;"/><path d="M605.8,230.3c.2-1.6,.4-3.3,.5-4.9L220,3.8s-32-10.3-64,44c0,0-20.6,36.4-25.8,83.1,31.5,21.2,394.4,232.2,395.2,232.7,2.2-20.6,8.6-58.3,27.6-89.8s38.5-42.9,52.8-43.5Z" style="fill:url(#b); fill-rule:evenodd;"/><path d="M127.6,475.7c-2.1,19-7,49.5-17.6,69.1-16.3,30-31.3,62.3-72,61l380,219s29.7,31.7,68-20c25.7-34.7,34.2-76.4,36.9-100.1-42.3-27.4-393.2-231.4-393.2-231.4l-2.1,2.4Z" style="fill:url(#c); fill-rule:evenodd;"/><path d="M571.3,251.4c10-10.7,19.6-16.5,28.2-18.6l-.9-2.9c-2.4,.6-4.8,1.4-7.1,2.4-7.6,3.3-15,9-22.2,16.8,.7,.7,1.4,1.5,2,2.3Z" style="fill:#1a4e85;"/><path d="M3,529.8l395,227s1.1,57.4,26,72L28,600.8s-25-15.2-25-71Z" style="fill:#bbdefb; fill-rule:evenodd;"/><path d="M225.4,655.9l-98.6-56.7c-.4,.9-.7,1.9-1.1,2.8l97.7,56.1,2-2.2Z" style="fill:#1a4e85;"/><path d="M401.8,794.7l2.9-1.1c-3-12.1-4.7-24.4-5.2-36.8,0-.5-.3-1-.8-1.3l-89.5-51.4c-.4,.9-.8,1.8-1.3,2.7l88.6,50.9c.6,12.5,2.3,24.9,5.3,37Z" style="fill:#1a4e85;"/><path d="M650,307.3c0-55.7-25-70.9-25-70.9l-7-4,3,1.4L380.4,95.8,228.7,8.6l2.3,1.5-11-6.3s-32-10.3-64,44c0,0-27,47.7-27,104V458.8s-2.7,56-19,86c-6.5,11.9-12.8,24.3-20.6,34.7L3,529.8c0,55.8,25,71,25,71l391.6,225.5c6.6,5.6,33.3,23.2,66.4-21.5,38.3-51.7,38.3-119,38.3-119V378.8s1-59,28.7-105c3.3-5.5,6.9-10.8,10.8-15.9l86.2,49.4Z" style="fill:none; stroke:#1a4e85; stroke-miterlimit:10; stroke-width:6px;"/></svg>