<?xml version="1.0" encoding="utf-8"?>
<!-- Generator: Adobe Illustrator 26.2.1, SVG Export Plug-In . SVG Version: 6.00 Build 0)  -->
<svg version="1.1" id="Light" xmlns="http://www.w3.org/2000/svg" xmlns:xlink="http://www.w3.org/1999/xlink" x="0px" y="0px"
	 viewBox="0 0 604.7 839.4" style="enable-background:new 0 0 604.7 839.4;" xml:space="preserve">
<style type="text/css">
	.st0{fill-rule:evenodd;clip-rule:evenodd;fill:url(#SVGID_1_);}
	.st1{fill-rule:evenodd;clip-rule:evenodd;fill:url(#SVGID_00000089573257442342782390000012284668864103447480_);}
	.st2{fill-rule:evenodd;clip-rule:evenodd;fill:url(#SVGID_00000085245946306145156190000003862902867651220864_);}
	.st3{fill-rule:evenodd;clip-rule:evenodd;fill:url(#SVGID_00000108992451947377227090000011600597148902550189_);}
	.st4{fill-rule:evenodd;clip-rule:evenodd;fill:url(#SVGID_00000012458192922347346280000012361196751308525759_);}
	.st5{fill-rule:evenodd;clip-rule:evenodd;fill:url(#SVGID_00000160191581925305637630000010549156901913417383_);}
	.st6{fill-rule:evenodd;clip-rule:evenodd;fill:url(#SVGID_00000096048788011364814450000016428087855719395979_);}
	.st7{fill-rule:evenodd;clip-rule:evenodd;fill:url(#SVGID_00000006696993435821807220000010563927323665433022_);}
	.st8{fill-rule:evenodd;clip-rule:evenodd;fill:url(#SVGID_00000119081191756132882550000005809447072890554250_);}
	.st9{fill-rule:evenodd;clip-rule:evenodd;fill:url(#SVGID_00000106137584560179492080000013988506282117794446_);}
	.st10{fill-rule:evenodd;clip-rule:evenodd;fill:#FFFFFF;}
	.st11{fill:#1A4E85;}
	.st12{fill:none;stroke:#1A4E85;stroke-width:8.5;stroke-linecap:round;stroke-linejoin:round;}
</style>
<linearGradient id="SVGID_1_" gradientUnits="userSpaceOnUse" x1="541.7275" y1="1007.1151" x2="441.8075" y2="875.5751" gradientTransform="matrix(1 0 0 1 0 -238)">
	<stop  offset="0" style="stop-color:#BBDEFB"/>
	<stop  offset="1" style="stop-color:#FFFFFF"/>
</linearGradient>
<path class="st0" d="M577,745L577,745c14.3-8.2,23.5-28.2,23.5-56.5c0-44.7-22.8-94.6-52.6-118.8l-152,88.1l28,168.7l5.4,3.3
	L577,745z"/>
<linearGradient id="SVGID_00000160907178810693623410000014174151593340329140_" gradientUnits="userSpaceOnUse" x1="510.9463" y1="832.4604" x2="397.3063" y2="682.8604" gradientTransform="matrix(1 0 0 1 0 -238)">
	<stop  offset="0" style="stop-color:#BBDEFB"/>
	<stop  offset="1" style="stop-color:#FFFFFF"/>
</linearGradient>
<path style="fill-rule:evenodd;clip-rule:evenodd;fill:url(#SVGID_00000160907178810693623410000014174151593340329140_);" d="
	M393.9,658.4l153.9-89c-0.1,0-0.1,0-0.1-0.1c15-7.6,24.9-27.7,24.9-56.9c0-49.7-28.1-106.1-62.8-126.2l-11.5-6.6l-151.9,87.2
	L393.9,658.4z"/>
<linearGradient id="SVGID_00000025442330653803755130000006297566264908870537_" gradientUnits="userSpaceOnUse" x1="456.0107" y1="646.197" x2="356.6308" y2="515.367" gradientTransform="matrix(1 0 0 1 0 -238)">
	<stop  offset="0" style="stop-color:#BBDEFB"/>
	<stop  offset="1" style="stop-color:#FFFFFF"/>
</linearGradient>
<path style="fill-rule:evenodd;clip-rule:evenodd;fill:url(#SVGID_00000025442330653803755130000006297566264908870537_);" d="
	M344.1,467.5l153.8-88.2l-0.4-0.2c11.7-7.8,19.3-24.8,19.3-48.8c0-44.1-25-94.4-55.8-112.1l-5-2.9l-151.9,87.3L344.1,467.5z"/>
<linearGradient id="SVGID_00000172433449808582269640000004338727132618529203_" gradientUnits="userSpaceOnUse" x1="412.1472" y1="482.252" x2="275.2372" y2="302.0321" gradientTransform="matrix(1 0 0 1 0 -238)">
	<stop  offset="0" style="stop-color:#BBDEFB"/>
	<stop  offset="1" style="stop-color:#FFFFFF"/>
</linearGradient>
<path style="fill-rule:evenodd;clip-rule:evenodd;fill:url(#SVGID_00000172433449808582269640000004338727132618529203_);" d="
	M455.9,215.1c3.5-12,5.2-24.4,5.1-36.9C461,112,423.5,36.6,377.3,10c-4.1-2.4-8.5-4.3-13.1-5.7l-150,86l18.1,28.4l-2.5,9.4
	l72.8,175.4L455.9,215.1z"/>
<linearGradient id="SVGID_00000083778360721700025250000004357569658327176844_" gradientUnits="userSpaceOnUse" x1="-2394.9658" y1="100.8647" x2="-2438.3457" y2="43.7547" gradientTransform="matrix(-1 0 0 -1 -2237.3 269)">
	<stop  offset="0" style="stop-color:#BBDEFB"/>
	<stop  offset="1" style="stop-color:#FFFFFF"/>
</linearGradient>
<path style="fill-rule:evenodd;clip-rule:evenodd;fill:url(#SVGID_00000083778360721700025250000004357569658327176844_);" d="
	M239.3,130l-129.2,73c0,0-9.7,30.2-8.6,36.3s21.5,3.6,22.6,5.8c-3.5,36.5,36.3-3.7,36.5-4.9l90.7-46.7L239.3,130z"/>
<linearGradient id="SVGID_00000052076871259450537520000003727856816725081501_" gradientUnits="userSpaceOnUse" x1="-2387.2219" y1="-108.1205" x2="-2448.1819" y2="-188.3806" gradientTransform="matrix(-1 0 0 -1 -2237.3 269)">
	<stop  offset="0" style="stop-color:#BBDEFB"/>
	<stop  offset="1" style="stop-color:#FFFFFF"/>
</linearGradient>
<path style="fill-rule:evenodd;clip-rule:evenodd;fill:url(#SVGID_00000052076871259450537520000003727856816725081501_);" d="
	M231.3,338.6l-129.2,73.1c0,0-9.7,30.2-8.6,36.3s21.5,3.5,22.6,5.7c-3.5,36.5,45.2,50.3,42.5,26.7l90-42.7L231.3,338.6z"/>
<linearGradient id="SVGID_00000018959713566939198450000006608194180600142729_" gradientUnits="userSpaceOnUse" x1="-2480.5259" y1="-181.4803" x2="-2541.4958" y2="-261.7304" gradientTransform="matrix(-1 0 0 -1 -2237.3 269)">
	<stop  offset="0" style="stop-color:#BBDEFB"/>
	<stop  offset="1" style="stop-color:#FFFFFF"/>
</linearGradient>
<path style="fill-rule:evenodd;clip-rule:evenodd;fill:url(#SVGID_00000018959713566939198450000006608194180600142729_);" d="
	M324.6,412l-129.2,73c0,0-9.7,30.2-8.6,36.3s21.6,3.6,22.7,5.8c-3.6,36.5,45.1,50.2,42.4,26.6l90-42.6L324.6,412z"/>
<linearGradient id="SVGID_00000085936739394111875920000011074375604831297428_" gradientUnits="userSpaceOnUse" x1="-2409.2473" y1="-290.4292" x2="-2520.5374" y2="-436.9192" gradientTransform="matrix(-1 0 0 -1 -2237.3 269)">
	<stop  offset="0" style="stop-color:#BBDEFB"/>
	<stop  offset="1" style="stop-color:#FFFFFF"/>
</linearGradient>
<path style="fill-rule:evenodd;clip-rule:evenodd;fill:url(#SVGID_00000085936739394111875920000011074375604831297428_);" d="
	M252.6,520l-129.2,73c0,0-9.7,30.2-8.6,36.3s21.6,3.6,22.7,5.8c-3.6,36.5,151.1,106.2,148.4,82.6l39.4-27.3L252.6,520z"/>
<linearGradient id="SVGID_00000028314757102197880220000011965030028726923157_" gradientUnits="userSpaceOnUse" x1="111.0592" y1="564.1258" x2="87.5992" y2="533.2358" gradientTransform="matrix(1 0 0 1 0 -238)">
	<stop  offset="0" style="stop-color:#BBDEFB"/>
	<stop  offset="1" style="stop-color:#FFFFFF"/>
</linearGradient>
<path style="fill-rule:evenodd;clip-rule:evenodd;fill:url(#SVGID_00000028314757102197880220000011965030028726923157_);" d="
	M71.7,356.6l73.3-60.4l-1.3-30.7l-38.4,21.7v0.5l-51.2,29.5l5.9,45.3C66.4,360.4,71.6,357.1,71.7,356.6z"/>
<linearGradient id="SVGID_00000114766137990112580440000017073997132653713556_" gradientUnits="userSpaceOnUse" x1="76.5" y1="684.0123" x2="66.29" y2="670.5823" gradientTransform="matrix(1 0 0 1 0 -238)">
	<stop  offset="0" style="stop-color:#BBDEFB"/>
	<stop  offset="1" style="stop-color:#FFFFFF"/>
</linearGradient>
<polygon style="fill-rule:evenodd;clip-rule:evenodd;fill:url(#SVGID_00000114766137990112580440000017073997132653713556_);" points="
	115.3,409.5 62.8,439.2 59.3,442.7 28,460.2 33.5,477 95.7,431.7 "/>
<path class="st10" d="M397.7,655.3c15-7.6,24.9-27.7,24.9-56.9c0-49.7-28.1-106.1-62.8-126.2l-12.3-7.1
	c11.7-7.8,19.3-24.8,19.3-48.8c0-44.1-25-94.4-55.8-112.1l-5.1-3c3.5-12,5.2-24.5,5.1-37c0-66.2-37.5-141.6-83.7-168.2
	c-4.1-2.4-8.5-4.3-13.1-5.7c8.2,21,13.1,43.9,13.1,65.6c0,55.2-31.2,81.9-69.7,59.7l-13.9-8c-30.8-17.8-55.8,3.6-55.8,47.7
	c0,24,7.6,49.7,19.3,71.1l-12.3-7.1c-34.7-20.1-62.8,4-62.8,53.7c0,29.2,9.9,60.6,24.9,85.7c-29.8-10.4-52.7,13.2-52.7,58
	c0,49.8,28,106.2,62.7,126.2l320.7,185.2c34.7,20,62.8-4,62.8-53.7C450.5,729.5,427.5,679.4,397.7,655.3z M171.6,383.5
	c15.4,8.9,27.9,34,27.9,56.1s-12.5,32.8-27.9,23.9s-27.9-34-27.9-56.1S156.2,374.6,171.6,383.5z M144.6,594.2
	c9.1-29.7,50.8-37,83-18.4s74,74.1,83.1,114.3c1.8,7.7-1.7,12.8-6.8,9.9l-152.6-88.1C146.3,609,142.8,599.8,144.6,594.2z
	 M283.1,527.9c-15.4-8.9-27.9-34-27.9-56.1s12.5-32.8,27.9-23.9s27.9,34,27.9,56.1C311,526.1,298.6,536.8,283.1,527.9z"/>
<path class="st11" d="M169.6,572.2c6.6-2.6,13.6-3.9,20.7-3.8c12.6,0.1,25,3.5,35.9,9.8c29.3,17,64.9,63.6,78.1,100.5
	c1.7-1.1,3.4-2,5.1-2.9c-6-16.4-16.2-34.9-29.3-52.6c-16.5-22.5-35.1-40.7-51.1-49.9c-19.4-11.2-43-13.7-61.5-6.4
	c-5.7,2.2-10.9,5.4-15.3,9.6c1.3,1,2.5,2.1,3.5,3.4l0.5,0.6C160.1,576.9,164.6,574.1,169.6,572.2z"/>
<path class="st11" d="M302.3,695.7l-144.6-83.4c-0.6,1.8-1.3,3.6-1.8,5.5l146.4,84.5V695.7z"/>
<path class="st11" d="M192.9,417.9l4.5-4.3c-5.2-14.2-14.1-26.6-24.4-32.5l0,0c-7.3-4.2-14.5-4.7-20.3-1.3c-2.8,1.7-5.1,4-6.8,6.8
	c1.5,1.2,2.9,2.5,4.2,3.9c1.3-2.4,3.1-4.4,5.4-5.8c1.7-1,3.7-1.5,5.7-1.5c3.2,0.1,6.3,1.1,9,2.8l0,0
	C179.8,391.6,188.3,404,192.9,417.9z"/>
<path class="st11" d="M193.2,456.1c-1.2,2.5-3.1,4.7-5.5,6.2c-4.1,2.3-9.2,1.9-14.7-1.3c-8.5-4.9-16.1-15.1-20.9-26.9l-5.8,1
	c5.3,13.4,13.9,25.1,23.9,30.8c3.5,2.2,7.6,3.4,11.8,3.5c3,0,5.9-0.7,8.5-2.2c3.3-2,6-4.9,7.7-8.4
	C196.5,458,194.8,457.1,193.2,456.1z"/>
<path class="st11" d="M131.3,203.7v1c0,0.2-0.1,0.4-0.1,0.6c3.9,1,7.6,2.6,11.1,4.7l13.9,8c16.8,9.7,33.3,10.9,46.6,3.2
	c17.4-10,27.4-33.8,27.4-65.3v-1.3l-5.2-0.4l-0.5,0.2v1.5c0,29.4-8.9,51.4-24.6,60.4c-11.5,6.7-25.7,5.6-40.9-3.2l-13.9-8
	c-3.8-2.2-7.8-3.9-12-5.1C132.8,201.3,132.2,202.6,131.3,203.7z"/>
<path class="st11" d="M327.3,321.1c1.3-1.3,2.7-2.6,4.2-3.7c-5.5-6.2-12-11.5-19.1-15.7l-3.2-1.9c3.2-11.6,4.7-23.6,4.7-35.6
	c0-61.3-32-130.6-73.4-162.8c-0.5,0.5-1.1,0.9-1.8,1.1h-0.1c-0.9,0.4-2.4,2.1-2.9,2.4c41.2,30.2,72.5,98.4,72.5,159.3
	c0,12.2-1.6,24.4-5,36.2c-0.4,1.2,0.1,2.6,1.3,3.2l5.1,3C316.2,310.5,322.2,315.4,327.3,321.1z"/>
<path class="st11" d="M419.1,610.5l5.4,2.4c0.6-4.8,0.9-9.7,0.9-14.5c0-50.5-28.8-108.2-64.1-128.6l-8.7-5c10.9-9.6,17-27,17-48.5
	c0-6.1-0.4-12.1-1.3-18.1l-5.4,1.9c0.7,5.4,1.1,10.8,1.1,16.2c0,21.8-6.6,38.8-18,46.5c-0.8,0.5-1.3,1.4-1.3,2.4s0.6,1.9,1.4,2.4
	l12.3,7.1c33.8,19.5,61.4,75,61.4,123.7C419.7,602.6,419.5,606.6,419.1,610.5z"/>
<path class="st11" d="M445.2,797.8l5,3.1c2.1-8.7,3.2-17.6,3.1-26.5c0-30.1-10.1-62.8-26.1-88.7l-4.1,2l-0.9,0.5
	c15.6,25.1,25.4,56.9,25.4,86.2C447.7,782.3,446.9,790.1,445.2,797.8z"/>
<path class="st11" d="M284.6,445.5c-7.3-4.2-14.5-4.7-20.4-1.3c-0.5,0.3-1,0.6-1.4,1c1.2,1.4,2.3,3,3.3,4.6l1-0.7
	c4-2.3,9.1-1.9,14.6,1.3c10.3,5.9,19.2,19.6,23.6,34.5c1.8-0.7,3.8-0.9,5.7-0.7C306.4,467.5,296.4,452.3,284.6,445.5z"/>
<path class="st11" d="M302.7,525.1L302.7,525.1l-0.8-0.6c-0.8,0.9-1.7,1.6-2.7,2.2c-4.1,2.3-9.1,1.9-14.6-1.3h-0.1
	c-10.4-6.1-19.5-20.1-23.7-35.3l-0.4-0.2c-2,0-3.9-0.3-5.8-0.7c4.4,17.6,14.7,34,27.1,41.1c0,0.1,0,0.1,0.1,0.1
	c3.6,2.2,7.6,3.4,11.8,3.5c3,0,5.9-0.8,8.4-2.3c0.9-0.5,1.7-1.1,2.5-1.7C303.8,528.3,303.3,526.7,302.7,525.1z"/>
<path class="st12" d="M600.5,688.4c0-44.9-23-95-52.8-119.1c15-7.6,24.9-27.7,24.9-56.9c0-49.7-28.1-106.1-62.8-126.2l-12.3-7.1
	c11.7-7.8,19.3-24.8,19.3-48.8c0-44.1-25-94.4-55.8-112.1l-5.1-3c3.5-12,5.2-24.5,5.1-37C461,112,423.5,36.6,377.3,10
	c-4.1-2.4-8.5-4.3-13.1-5.7l0,0l-150,86l0,0c6,15.4,10.1,31.6,12.1,48l-116.7,66.3c-13.2,7-21.7,25-21.7,50.7
	c0.1,13.2,2.2,26.4,6,39l-37.5,21.6l-1.7,1l-0.6,0.3l0,0c-13.4,8.7-22,28.3-22,55.7c0,25,7.2,51.6,18.8,74.4L28,460.2l0,0
	c-14.4,8.1-23.7,28-23.7,56.5c0,49.8,28,106.2,62.7,126.2l320.7,185.2c15.9,9.1,30.4,9.1,41.4,1.5h0.2L577,745l0,0
	C591.3,736.7,600.5,716.7,600.5,688.4z"/>
</svg>
