<?xml version="1.0" encoding="utf-8"?>
<!-- Generator: Adobe Illustrator 26.2.1, SVG Export Plug-In . SVG Version: 6.00 Build 0)  -->
<svg version="1.1" id="Light" xmlns="http://www.w3.org/2000/svg" xmlns:xlink="http://www.w3.org/1999/xlink" x="0px" y="0px"
	 viewBox="0 0 582.5 786.3" style="enable-background:new 0 0 582.5 786.3;" xml:space="preserve">
<style type="text/css">
	.st0{fill:#BBDEFB;}
	.st1{fill-rule:evenodd;clip-rule:evenodd;fill:url(#SVGID_1_);}
	.st2{fill-rule:evenodd;clip-rule:evenodd;fill:#FFFFFF;}
	.st3{fill:#1A4E85;}
	.st4{fill:none;stroke:#1A4E85;stroke-width:6;stroke-linecap:round;stroke-linejoin:round;}
	.st5{fill-rule:evenodd;clip-rule:evenodd;fill:url(#SVGID_00000077321456999598265580000007866720827813754542_);}
	.st6{fill-rule:evenodd;clip-rule:evenodd;fill:url(#SVGID_00000085220040164111920680000008768239060013633411_);}
	.st7{fill-rule:evenodd;clip-rule:evenodd;fill:url(#SVGID_00000101089401577456282240000010390615197044376511_);}
	.st8{fill-rule:evenodd;clip-rule:evenodd;fill:url(#SVGID_00000119100928034890248690000000464856888075058854_);}
	.st9{fill:#FFFFFF;}
	.st10{fill-rule:evenodd;clip-rule:evenodd;fill:url(#SVGID_00000124134787038507233930000002697554679897375121_);}
	.st11{fill-rule:evenodd;clip-rule:evenodd;fill:url(#SVGID_00000026876887545568816420000009744179690612579202_);}
	.st12{fill-rule:evenodd;clip-rule:evenodd;fill:url(#SVGID_00000134223303396868926390000016064321435700226189_);}
	.st13{fill:none;stroke:#1A4E85;stroke-width:6;stroke-miterlimit:10;}
</style>
<path class="st0" d="M124.2,385.5L124.2,385.5c-4.3-2.5-8.1-2.6-11-0.9l0,0L40,427.2l0,0c-3.4,1.6-5.6,5.6-5.6,11.4v96.3
	c0,10.6,7.1,23.3,15.8,28.4c4.1,2.3,7.8,2.6,10.6,1.1l0,0l74.3-43.1l0,0c3-1.8,4.9-5.6,4.9-11.1v-96.3
	C140,403.3,132.9,390.5,124.2,385.5z"/>
<linearGradient id="SVGID_1_" gradientUnits="userSpaceOnUse" x1="77.872" y1="409.4163" x2="93.0074" y2="435.6315">
	<stop  offset="0" style="stop-color:#FFFFFF"/>
	<stop  offset="1" style="stop-color:#BBDEFB"/>
</linearGradient>
<path class="st1" d="M124.2,385.5c-1.1-0.7-2.2-1.1-3.3-1.5l-80.4,46.5l5.2,34.5l94-54C138.7,401.1,132.1,390.1,124.2,385.5z"/>
<path class="st2" d="M50.2,428.5c-8.7-5-15.8-0.4-15.8,10.2V535c0,10.6,7.1,23.3,15.8,28.4S66,563.8,66,553.3V457
	C66,446.3,58.9,433.5,50.2,428.5z"/>
<path class="st3" d="M64.5,497.5h2.2l0.8-0.5v-40c-0.1-4.2-0.9-8.4-2.6-12.3l-2.3,0.8l-0.5,0.2c1.5,3.6,2.3,7.4,2.4,11.3V497.5z"/>
<path class="st4" d="M124.2,385.5L124.2,385.5c-4.3-2.5-8.1-2.6-11-0.9l0,0L40,427.2l0,0c-3.4,1.6-5.6,5.6-5.6,11.4v96.3
	c0,10.6,7.1,23.3,15.8,28.4c4.1,2.3,7.8,2.6,10.6,1.1l0,0l74.3-43.1l0,0c3-1.8,4.9-5.6,4.9-11.1v-96.3
	C140,403.3,132.9,390.5,124.2,385.5z"/>
<path class="st0" d="M218.2,478.5L218.2,478.5c-4.3-2.5-8.1-2.6-11-0.9l0,0L134,520.2l0,0c-3.4,1.6-5.6,5.6-5.6,11.4v96.3
	c0,10.6,7.1,23.3,15.8,28.4c4.1,2.3,7.8,2.6,10.6,1.1l0,0l74.3-43.1l0,0c3-1.8,4.9-5.6,4.9-11.1v-96.3
	C234,496.3,226.9,483.5,218.2,478.5z"/>
<linearGradient id="SVGID_00000098917404111798749890000006138884721509833146_" gradientUnits="userSpaceOnUse" x1="171.8681" y1="502.4094" x2="187.0035" y2="528.6247">
	<stop  offset="0" style="stop-color:#FFFFFF"/>
	<stop  offset="1" style="stop-color:#BBDEFB"/>
</linearGradient>
<path style="fill-rule:evenodd;clip-rule:evenodd;fill:url(#SVGID_00000098917404111798749890000006138884721509833146_);" d="
	M218.2,478.5c-1.1-0.7-2.2-1.1-3.3-1.5l-80.4,46.5l5.2,34.5l94-54C232.7,494.1,226.1,483.1,218.2,478.5z"/>
<path class="st2" d="M144.2,521.5c-8.7-5-15.8-0.4-15.8,10.2V628c0,10.6,7.1,23.3,15.8,28.4s15.8,0.4,15.8-10.1V550
	C160,539.3,152.9,526.5,144.2,521.5z"/>
<path class="st3" d="M158.5,577.7h3V550c0-8.3-4-17.7-9.8-24.2l-2.3,1.7c0,0.1,0,0.1-0.1,0.1c5.4,5.9,9.2,14.7,9.2,22.4L158.5,577.7
	L158.5,577.7z"/>
<path class="st3" d="M158.5,597.4V633h3v-35.5L158.5,597.4z"/>
<path class="st4" d="M218.2,478.5L218.2,478.5c-4.3-2.5-8.1-2.6-11-0.9l0,0L134,520.2l0,0c-3.4,1.6-5.6,5.6-5.6,11.4v96.3
	c0,10.6,7.1,23.3,15.8,28.4c4.1,2.3,7.8,2.6,10.6,1.1l0,0l74.3-43.1l0,0c3-1.8,4.9-5.6,4.9-11.1v-96.3
	C234,496.3,226.9,483.5,218.2,478.5z"/>
<path class="st0" d="M314.2,494.5L314.2,494.5c-4.3-2.5-8.1-2.6-11-0.9l0,0L230,536.2l0,0c-3.4,1.6-5.6,5.6-5.6,11.4v96.3
	c0,10.6,7.1,23.3,15.8,28.4c4.1,2.3,7.8,2.6,10.6,1.1l0,0l74.3-43.1l0,0c3-1.8,4.9-5.6,4.9-11.1v-96.3
	C330,512.3,322.9,499.5,314.2,494.5z"/>
<linearGradient id="SVGID_00000019672246493136914530000017691823832758014610_" gradientUnits="userSpaceOnUse" x1="267.8635" y1="518.4015" x2="283.0054" y2="544.6281">
	<stop  offset="0" style="stop-color:#FFFFFF"/>
	<stop  offset="1" style="stop-color:#BBDEFB"/>
</linearGradient>
<path style="fill-rule:evenodd;clip-rule:evenodd;fill:url(#SVGID_00000019672246493136914530000017691823832758014610_);" d="
	M314.2,494.5c-1.1-0.7-2.2-1.1-3.3-1.5l-80.4,46.5l5.2,34.5l94-54C328.7,510.1,322.1,499.1,314.2,494.5z"/>
<path class="st2" d="M240.2,537.5c-8.7-5-15.8-0.4-15.8,10.2V644c0,10.6,7.1,23.3,15.8,28.4s15.8,0.4,15.8-10.1V566
	C256,555.3,248.9,542.5,240.2,537.5z"/>
<path class="st3" d="M244.7,543c5.7,5.9,9.8,15.1,9.8,23v65.5h3V566c0-8.6-4.4-18.5-10.6-25L244.7,543z"/>
<path class="st4" d="M314.2,494.5L314.2,494.5c-4.3-2.5-8.1-2.6-11-0.9l0,0L230,536.2l0,0c-3.4,1.6-5.6,5.6-5.6,11.4v96.3
	c0,10.6,7.1,23.3,15.8,28.4c4.1,2.3,7.8,2.6,10.6,1.1l0,0l74.3-43.1l0,0c3-1.8,4.9-5.6,4.9-11.1v-96.3
	C330,512.3,322.9,499.5,314.2,494.5z"/>
<path class="st0" d="M407.2,588.5L407.2,588.5c-4.3-2.5-8.1-2.6-11-0.9l0,0L323,630.2l0,0c-3.4,1.6-5.6,5.6-5.6,11.4v96.3
	c0,10.6,7.1,23.3,15.8,28.4c4.1,2.3,7.8,2.6,10.6,1.1l0,0l74.3-43.1l0,0c3-1.8,4.9-5.6,4.9-11.1v-96.3
	C423,606.3,415.9,593.5,407.2,588.5z"/>
<linearGradient id="SVGID_00000049942763868431269320000007415542340460020129_" gradientUnits="userSpaceOnUse" x1="360.8957" y1="612.4764" x2="376.0335" y2="638.696">
	<stop  offset="0" style="stop-color:#FFFFFF"/>
	<stop  offset="1" style="stop-color:#BBDEFB"/>
</linearGradient>
<path style="fill-rule:evenodd;clip-rule:evenodd;fill:url(#SVGID_00000049942763868431269320000007415542340460020129_);" d="
	M407.2,588.5c-1.1-0.6-2.2-1.1-3.2-1.5l-80.5,46.6l5.2,34.5l94-54C421.8,604.2,415.2,593.1,407.2,588.5z"/>
<path class="st2" d="M333.2,631.5c-8.7-5-15.8-0.4-15.8,10.2V738c0,10.6,7.1,23.3,15.8,28.4s15.8,0.4,15.8-10.1V660
	C349,649.3,341.9,636.5,333.2,631.5z"/>
<path class="st3" d="M347.5,698.2c0.9-0.3,1.8-0.3,2.7-0.1h0.3V660c0-8.3-4.1-17.8-9.9-24.3l-1.9,2.4c5.2,5.9,8.8,14.4,8.8,21.9
	V698.2L347.5,698.2z"/>
<path class="st3" d="M350.5,752.4v-22.7h-1.6l-1.4-0.2v23.1C348.5,752.4,349.5,752.4,350.5,752.4z"/>
<path class="st4" d="M407.2,588.5L407.2,588.5c-4.3-2.5-8.1-2.6-11-0.9l0,0L323,630.2l0,0c-3.4,1.6-5.6,5.6-5.6,11.4v96.3
	c0,10.6,7.1,23.3,15.8,28.4c4.1,2.3,7.8,2.6,10.6,1.1l0,0l74.3-43.1l0,0c3-1.8,4.9-5.6,4.9-11.1v-96.3
	C423,606.3,415.9,593.5,407.2,588.5z"/>
<path class="st0" d="M502.2,603.5L502.2,603.5c-4.3-2.5-8.1-2.6-11-0.9l0,0L418,645.2l0,0c-3.4,1.6-5.6,5.6-5.6,11.4v96.3
	c0,10.6,7.1,23.3,15.8,28.4c4.1,2.3,7.8,2.6,10.6,1.1l0,0l74.3-43.1l0,0c3-1.8,4.9-5.6,4.9-11.1v-96.3
	C518,621.3,510.9,608.5,502.2,603.5z"/>
<linearGradient id="SVGID_00000077283767240749723500000001028789906870705848_" gradientUnits="userSpaceOnUse" x1="455.8949" y1="627.4751" x2="471.0302" y2="653.6902">
	<stop  offset="0" style="stop-color:#FFFFFF"/>
	<stop  offset="1" style="stop-color:#BBDEFB"/>
</linearGradient>
<path style="fill-rule:evenodd;clip-rule:evenodd;fill:url(#SVGID_00000077283767240749723500000001028789906870705848_);" d="
	M502.2,603.5c-1.1-0.6-2.2-1.1-3.2-1.5l-80.5,46.6l5.2,34.5l94-54C516.8,619.2,510.2,608.1,502.2,603.5z"/>
<path class="st2" d="M428.2,646.5c-8.7-5-15.8-0.4-15.8,10.2V753c0,10.6,7.1,23.3,15.8,28.4s15.8,0.4,15.8-10.1V675
	C444,664.3,436.9,651.5,428.2,646.5z"/>
<path class="st3" d="M442.5,736.7l2.6,0.3h0.4v-62.1c0-8.7-4.5-18.7-10.7-25.1c-0.6,0.8-1.2,1.6-1.9,2.3c5.6,5.9,9.6,14.9,9.6,22.8
	V736.7z"/>
<path class="st4" d="M502.2,603.5L502.2,603.5c-4.3-2.5-8.1-2.6-11-0.9l0,0L418,645.2l0,0c-3.4,1.6-5.6,5.6-5.6,11.4v96.3
	c0,10.6,7.1,23.3,15.8,28.4c4.1,2.3,7.8,2.6,10.6,1.1l0,0l74.3-43.1l0,0c3-1.8,4.9-5.6,4.9-11.1v-96.3
	C518,621.3,510.9,608.5,502.2,603.5z"/>
<path class="st9" d="M579.5,482.7c0-55.4-34.7-121.8-80.9-159.1c3.2-7.7,5-17.1,5-28c0-47.4-34-105.6-75.8-129.9
	c-15.6-9-30.2-12-42.1-9.8c-21.9-55.7-62.8-108.2-109.6-135.3c-38.1-22-72.2-22.7-95.3-6l-65.1,37.5l34.6,25.4
	c-0.4,4.4-0.6,8.8-0.6,13.3c0,2.4,0.1,4.9,0.2,7.3c-44.3-7.9-76,21.5-76,77.7c0,71.2,50.9,158.5,113.8,194.9l274.8,159.1l17.2,57.2
	l71.9-41.1l0,0C568.9,535.2,579.5,513.5,579.5,482.7z"/>
<linearGradient id="SVGID_00000021077619495736028840000005401599907483081910_" gradientUnits="userSpaceOnUse" x1="541.632" y1="502.58" x2="635.0115" y2="340.8419" gradientTransform="matrix(1 0 0 -1 -168.2 667.4)">
	<stop  offset="0" style="stop-color:#FFFFFF"/>
	<stop  offset="1" style="stop-color:#BBDEFB"/>
</linearGradient>
<path style="fill-rule:evenodd;clip-rule:evenodd;fill:url(#SVGID_00000021077619495736028840000005401599907483081910_);" d="
	M428.6,363.8l70.1-40.8v-0.2c3.2-7.8,5-17.2,5-28c0-47.5-34-105.7-75.8-129.9c-15.6-9.1-30.2-12.1-42.1-9.9
	c-0.1-0.1-0.1-0.3-0.2-0.4l-70,40.9L428.6,363.8z"/>
<linearGradient id="SVGID_00000105425273161635803280000010770631400991986340_" gradientUnits="userSpaceOnUse" x1="610.316" y1="308.3706" x2="711.0452" y2="133.9025" gradientTransform="matrix(1 0 0 -1 -168.2 667.4)">
	<stop  offset="0" style="stop-color:#FFFFFF"/>
	<stop  offset="1" style="stop-color:#BBDEFB"/>
</linearGradient>
<path style="fill-rule:evenodd;clip-rule:evenodd;fill:url(#SVGID_00000105425273161635803280000010770631400991986340_);" d="
	M479.7,586.1l71.9-41.2c17.3-10.6,27.9-32.3,27.9-63c0-55.3-34.6-121.7-80.8-158.9l-94.5,55l51.1,146.7l7.2,4.2L479.7,586.1z"/>
<linearGradient id="SVGID_00000142161532485269102320000003254897682195377822_" gradientUnits="userSpaceOnUse" x1="365.508" y1="660.1" x2="469.0829" y2="480.7029" gradientTransform="matrix(1 0 0 -1 -168.2 667.4)">
	<stop  offset="0" style="stop-color:#FFFFFF"/>
	<stop  offset="1" style="stop-color:#BBDEFB"/>
</linearGradient>
<path style="fill-rule:evenodd;clip-rule:evenodd;fill:url(#SVGID_00000142161532485269102320000003254897682195377822_);" d="
	M385.6,154.9C363.7,99.1,322.9,46.8,276.1,19.7C238-2.3,203.9-3,180.8,13.6l-65.1,37.5l34.6,25.5c-0.4,4.4-0.6,8.8-0.6,13.2
	c0,1.5,0,2.9,0.1,4.4l118.4,126.5L385.6,154.9z"/>
<path class="st2" d="M427.8,364.7c3.2-7.7,5-17.1,5-28c0-47.5-34-105.6-75.8-129.9c-15.6-9-30.2-12-42.1-9.8
	C293,141.3,252.1,88.8,205.3,61.7c-69.8-40.5-126.5-9-126.5,70.1c0,2.4,0.1,5,0.2,7.4c-44.3-8-76,21.5-76,77.7
	c0,71.2,50.9,158.5,113.8,194.9l290.8,168.3c55.9,32.4,101.1,7.3,101.1-56C508.6,468.4,473.8,402,427.8,364.7z"/>
<path class="st3" d="M260.1,107.3c0.2-0.4,0.4-0.8,0.6-1.1c-17-18.9-35.6-34.7-54.8-45.8C184.3,48,163.6,42,145,42.6
	c0,1-0.1,2-0.1,3c18.1-0.7,38.3,5.2,59.5,17.5c19,11,37.5,26.7,54.2,45.4C259,108,259.5,107.6,260.1,107.3z"/>
<path class="st3" d="M313.9,198.6h1.2c12.1-2.3,26.3,1.1,41,9.6c9.7,5.8,18.7,12.7,26.6,20.8c0.5-0.9,1.3-1.6,2.3-1.9
	c-8.1-8.3-17.3-15.6-27.3-21.5c-14.9-8.6-29.3-12.1-41.9-10.2c-5.5-13.8-12-27.2-19.5-40c-0.6,0.8-1.5,1.4-2.5,1.6
	c7.5,13,14.1,26.6,19.7,40.6L313.9,198.6z"/>
<path class="st3" d="M498.7,564.5c0.6,0.1,1.1,0.4,1.6,0.7c0.5,0,0.9,0.1,1.3,0.4c5.6-11.4,8.5-25.5,8.5-41.6
	c0-54.5-33.8-121.4-80.6-159.6c3.3-8.8,4.9-18.2,4.7-27.6c0-16.9-4.4-35.2-11.6-52.8c-0.9,0.5-1.9,0.7-2.9,0.7
	c7.3,17.3,11.5,35.4,11.5,52c0,10.4-1.7,19.7-5,27.5l-0.4,1l1,0.7c46.6,37.6,80.3,104.1,80.3,158
	C507.1,539.7,504.2,553.5,498.7,564.5z"/>
<path class="st13" d="M579.5,482.7c0-55.4-34.7-121.8-80.9-159.1c3.2-7.7,5-17.1,5-28c0-47.4-34-105.6-75.8-129.9
	c-15.6-9-30.2-12-42.1-9.8c-21.9-55.7-62.8-108.2-109.6-135.3c-38.1-22-72.2-22.7-95.3-6l-64.4,37C93.2,64.2,78.8,92,78.8,131.8
	c0,2.4,0.1,5,0.2,7.4c-44.3-8-76,21.5-76,77.7c0,71.2,50.9,158.5,113.8,194.9l290.8,168.3c31.2,18,59,18.2,77.5,3.9l66.6-38.1l0,0
	C568.9,535.2,579.5,513.5,579.5,482.7z"/>
</svg>
