<?xml version="1.0" encoding="utf-8"?>
<!-- Generator: Adobe Illustrator 26.2.1, SVG Export Plug-In . SVG Version: 6.00 Build 0)  -->
<svg version="1.1" id="Dark" xmlns="http://www.w3.org/2000/svg" xmlns:xlink="http://www.w3.org/1999/xlink" x="0px" y="0px"
	 viewBox="0 0 530.4 822.5" style="enable-background:new 0 0 530.4 822.5;" xml:space="preserve">
<style type="text/css">
	.st0{fill-rule:evenodd;clip-rule:evenodd;fill:url(#SVGID_1_);}
	.st1{fill-rule:evenodd;clip-rule:evenodd;fill:url(#SVGID_00000100362812451898374270000014206645909332594304_);}
	.st2{fill-rule:evenodd;clip-rule:evenodd;fill:#CED4DB;}
	.st3{fill:#09264A;}
	.st4{fill-rule:evenodd;clip-rule:evenodd;fill:url(#SVGID_00000018208031099414325640000000131171010994404271_);}
	.st5{fill:none;stroke:#FFFFFF;stroke-width:6;stroke-miterlimit:10;}
</style>
<linearGradient id="SVGID_1_" gradientUnits="userSpaceOnUse" x1="183.9276" y1="550.1086" x2="438.4501" y2="109.2628" gradientTransform="matrix(1 0 0 -1 0 824)">
	<stop  offset="0" style="stop-color:#CED4DB"/>
	<stop  offset="0.1026" style="stop-color:#C5CCD4"/>
	<stop  offset="0.2701" style="stop-color:#ADB7C2"/>
	<stop  offset="0.4816" style="stop-color:#8593A5"/>
	<stop  offset="0.7287" style="stop-color:#4E637D"/>
	<stop  offset="1" style="stop-color:#09264A"/>
</linearGradient>
<path class="st0" d="M527.7,676.8c0,20-7.4,33.7-19,38.8L402.5,776L227.7,568.1l-65.3-37.7c-28.8-16.6-52.2-59-52.2-94.6v-7.4
	L42,347.3l99-55.4c22.9-18.3,56.4-15.4,90.8,4.4c36.3,21,45.3,42.3,87.1,66.4s50.8,13.1,87.1,34.1c39.4,22.8,77.8,66.7,100.3,121
	c13.5,32.6,21.4,66.8,21.4,98.8V676.8z"/>
<linearGradient id="SVGID_00000012440013383898456760000010984636872628342429_" gradientUnits="userSpaceOnUse" x1="219.6754" y1="799.0258" x2="384.4989" y2="513.5431" gradientTransform="matrix(1 0 0 -1 0 824)">
	<stop  offset="0" style="stop-color:#CED4DB"/>
	<stop  offset="0.1026" style="stop-color:#C5CCD4"/>
	<stop  offset="0.2701" style="stop-color:#ADB7C2"/>
	<stop  offset="0.4816" style="stop-color:#8593A5"/>
	<stop  offset="0.7287" style="stop-color:#4E637D"/>
	<stop  offset="1" style="stop-color:#09264A"/>
</linearGradient>
<path style="fill-rule:evenodd;clip-rule:evenodd;fill:url(#SVGID_00000012440013383898456760000010984636872628342429_);" d="
	M402.5,327l-108.1,61.1L128.8,72l102.1-57.6c22.2-15.9,53.4-15.7,88,4.3c67.3,38.8,121.8,137.6,121.8,220.8
	C440.7,282.6,426,313.1,402.5,327z"/>
<path class="st2" d="M211.7,380.8c67.3,38.8,121.8,2.9,121.8-80.3S279,118.5,211.7,79.7S89.9,76.8,89.9,160S144.4,342,211.7,380.8z
	 M298.8,458c-36.3-21-45.3-10-87.1-34.1s-50.8-45.4-87.1-66.4c-39.5-22.8-77.8-23.2-100.3,5.1C10.8,379.6,3,404.7,3,436.7v60.2
	c0,35.6,23.4,78,52.2,94.6l313.1,180.7c28.8,16.6,52.2,1.2,52.2-34.4v-60.2c0-32-7.8-66.2-21.3-98.7
	C376.7,524.7,338.3,480.8,298.8,458z"/>
<path class="st3" d="M327.6,337.6l2.8,1c3.1-12.4,4.6-25.2,4.5-38c0-47.1-17.5-99.2-44.8-142.8l-2.2,2c26.9,43,44,94.4,44,140.8
	C332.1,313.1,330.6,325.5,327.6,337.6z"/>
<path class="st3" d="M293.1,387.6c-22,12.1-50.6,9.3-80.6-8c-23.7-13.7-45.7-34.8-64.4-60.2h-0.4l-0.5,0.2l-1.9,1
	c19,25.9,41.5,47.6,65.6,61.5c18.3,10.5,36.1,15.9,52.3,15.9c10.7,0.1,21.3-2.5,30.7-7.5C293.8,389.5,293.5,388.5,293.1,387.6z"/>
<path class="st3" d="M209.5,80.2c0.6-0.8,1.3-1.6,2-2.3c-16.6-9.4-32.8-14.5-47.7-15.2l0.6,3C178.5,66.5,193.8,71.4,209.5,80.2z"/>
<path class="st3" d="M156.3,382.6l2.3-2c-9.4-8.3-19.2-16.4-33.2-24.5c-16.9-9.8-33.3-15.3-48.1-16.5v3c14.4,1.3,30.2,6.6,46.6,16.1
	C135.5,365.5,146.4,373.5,156.3,382.6z"/>
<path class="st3" d="M258.2,443.9c11.6,2.8,22.5,5.4,39.8,15.4c36.8,21.3,70.6,59.7,92.7,104.7l3.1-0.6
	c-22.3-45.8-56.7-85-94.2-106.7c-17.7-10.2-28.9-12.9-40.6-15.7s-25-6-46.4-18.4c-8.9-5.1-17.4-10.8-25.4-17.1l-1.5,2.3v0.3
	c8.1,6.3,16.6,12,25.4,17.1C232.8,437.7,245.7,440.8,258.2,443.9z"/>
<path class="st2" d="M503.7,602.1c0-12.8-6-27.8-15.1-38l-98-109.5c-3.5-3.9-10.7-10.5-18.9-10.9l-98-3.7c-3.3-0.2-6.5,1-9,3.2
	l-50,28.8l0,0c-5.7,2.7-9.1,9.7-9.1,19.4c0,131.3,58.5,255.9,113.1,316.9c8.2,9.1,15.3,10.7,18.9,10.9c15.8,0.6,35.1-4.5,53.2-18.2
	l30.9-18.4C461.1,767.1,503.7,716.8,503.7,602.1z"/>
<linearGradient id="SVGID_00000154419979986361030930000012346732004963812507_" gradientUnits="userSpaceOnUse" x1="292.8487" y1="323.9694" x2="437.7892" y2="72.925" gradientTransform="matrix(1 0 0 -1 0 824)">
	<stop  offset="0" style="stop-color:#CED4DB"/>
	<stop  offset="1" style="stop-color:#09264A"/>
</linearGradient>
<path style="fill-rule:evenodd;clip-rule:evenodd;fill:url(#SVGID_00000154419979986361030930000012346732004963812507_);" d="
	M337.6,819.3c15.8,0.6,35.1-4.5,53.2-18.2l30.9-18.4c39.4-15.6,82-65.9,82-180.6c0-12.8-6-27.8-15.1-38l-98-109.5
	c-3.3-3.8-7.2-6.9-11.7-9.1l-34.5,19.9L208.6,544c12.7,111.2,62.9,211.6,110.1,264.4C326.9,817.5,334,819.1,337.6,819.3z"/>
<path class="st2" d="M435.6,595.1l-98-109.5c-3.5-3.9-10.7-10.5-18.9-10.9l-98-3.7c-9.1-0.3-15.1,7.8-15.1,20.6
	c0,131.3,58.5,255.9,113.1,316.9c8.2,9.1,15.3,10.7,18.9,10.9c43.7,1.7,113.1-39.9,113.1-186.3C450.7,620.3,444.7,605.3,435.6,595.1
	z M328.1,758.1V535.6l81.3,90.8C404.7,726.1,357.6,755.8,328.1,758.1z"/>
<path class="st3" d="M436.7,594.1L436.7,594.1l-98-109.5c-2.9-3.3-10.8-11-20-11.4l-98-3.7c-3.9-0.2-7.6,1.2-10.4,3.9
	c-4,3.9-6.2,10.3-6.2,18.2c0,62.7,13.4,124.1,33.4,177.7l2.6-1.5c-19.8-53.2-33-114.1-33-176.2c0-7,1.9-12.7,5.3-16
	c2.1-2.1,4.9-3.2,7.8-3.1h0.5l98,3.7c8,0.4,15.1,7.4,17.8,10.4l98,109.5c8.9,10,14.7,24.5,14.7,37c0,65.7-14,107.7-30.4,134.2
	l2.5,1.6c16.6-27,30.8-69.4,30.8-135.8C452.2,619.9,446.1,604.6,436.7,594.1z"/>
<path class="st3" d="M329.6,756.4V539.5l78.2,87.4c-1.9,39-10.6,67.8-22.4,88.2c0.5,0.6,0.9,1.2,1.3,1.9l0.8,0.4
	c13.7-22.9,21.5-53.4,23.3-91.1c0-0.4-0.1-0.8-0.4-1.1l-81.3-90.8c-0.4-0.5-1.1-0.6-1.7-0.4c-0.6,0.2-1,0.8-1,1.4v222.5
	c0,0.4,0.2,0.8,0.5,1.1c0.3,0.3,0.6,0.4,1,0.4h0.1c7.7-0.7,15.3-2.8,22.2-6.3c-0.6-0.8-1-1.7-1.1-2.6
	C343,753.7,336.4,755.7,329.6,756.4z"/>
<path class="st3" d="M389.5,455.6l27.7,30.9c0.8-0.6,1.5-1.3,2.4-1.9l-27.8-31c-2.9-3.3-10.8-11-20-11.4l-34.2-1.3l-0.2,0.3
	c-0.2,0.9-0.4,1.8-0.7,2.7l35,1.3C379.6,445.5,386.8,452.5,389.5,455.6z"/>
<path class="st3" d="M502.2,602.1c0,48.5-7.6,84.2-18.4,110.5l2.7,1.3c12.4-30.1,18.7-67.6,18.7-111.8c0-13.2-6.1-28.5-15.4-39
	l-20.4-22.8l-2.1,2.2l20.2,22.6C496.4,575.1,502.2,589.6,502.2,602.1z"/>
<path class="st5" d="M506.3,517.8c-22.5-54.3-60.9-98.2-100.3-121c-33-19.1-43.5-11.7-76.6-28.4l73.2-41.4
	c23.5-13.9,38.2-44.4,38.2-87.5c0-83.2-54.5-182-121.8-220.8c-34.6-20-65.8-20.2-88-4.3L128.9,72l0,0c-24,13.6-39,44.3-39,87.9
	c0,45.2,16.1,95,41.5,137.2L42,347.3l0.2,0.2c-7,3.7-13.1,8.9-17.9,15.1C10.8,379.6,3,404.7,3,436.7v60.2c0,35.6,23.4,78,52.2,94.6
	l199.2,115c19.3,42,42.1,77.2,64.3,102.1c8.2,9.1,15.3,10.7,18.9,10.9h6.1l2.8-0.2h0.6l2.5-0.3h0.4l3-0.5h0.5l2.7-0.6h0.5l3.1-0.8
	h0.2l3-0.9h0.4c2.2-0.7,4.3-1.5,6.5-2.4h0.3c2.2-0.9,4.4-2,6.6-3.1h0.2c2.2-1.2,4.5-2.5,6.7-3.9h0.1c2.3-1.4,4.6-3,6.7-4.7l0,0
	l30.9-18.4c18.4-7.3,37.5-22.2,52.6-47.6l34.4-19.6c11.6-5.1,19-18.8,19-38.8v-61.1C527.7,584.6,519.8,550.4,506.3,517.8z"/>
</svg>
