<svg width="378" height="385" viewBox="0 0 378 385" fill="none" xmlns="http://www.w3.org/2000/svg">
<path d="M376 384.848H378L378 0.847658L376 0.847658V384.848Z" fill="black"/>
<path d="M360.334 384.848H362.414L362.667 192.848L362.414 0.847657L360.334 0.847657L360.08 192.848L360.334 384.848Z" fill="black"/>
<path d="M346.827 384.848H344.667L344.174 192.848L344.667 0.847656L346.827 0.847656L347.334 192.848L346.827 384.848Z" fill="black"/>
<path d="M329 384.848H331.254L332 192.848L331.254 0.847658L329 0.847658L328.254 192.848L329 384.848Z" fill="black"/>
<path d="M315.667 384.848H313.334L312.334 192.848L313.334 0.847658L315.667 0.847658L316.667 192.848L315.667 384.848Z" fill="black"/>
<path d="M297.667 384.848H300.08L301.334 192.848L300.08 0.847658L297.667 0.847658L296.414 192.848L297.667 384.848Z" fill="black"/>
<path d="M284.507 384.848H282L280.507 192.848L282 0.847658L284.507 0.847658L286 192.848L284.507 384.848Z" fill="black"/>
<path d="M266.334 384.848H268.92L270.667 192.848L268.92 0.847658L266.334 0.847658L264.587 192.848L266.334 384.848Z" fill="black"/>
<path d="M253.334 384.848H250.667L248.667 192.848L250.667 0.847658L253.334 0.847658L255.334 192.848L253.334 384.848Z" fill="black"/>
<path d="M235 384.848H237.747L240 192.848L237.747 0.847658L235 0.847657L232.747 192.848L235 384.848Z" fill="black"/>
<path d="M222.174 384.848H219.334L216.827 192.848L219.334 0.847657L222.174 0.847658L224.667 192.848L222.174 384.848Z" fill="black"/>
<path d="M203.667 384.848H206.587L209.334 192.848L206.587 0.847658L203.667 0.847657L200.92 192.848L203.667 384.848Z" fill="black"/>
<path d="M191 384.848H188L185 192.848L188 0.847657L191 0.847658L194 192.848L191 384.848Z" fill="black"/>
<path d="M172.334 384.848H175.414L178.667 192.848L175.414 0.847658L172.334 0.847657L169.08 192.848L172.334 384.848Z" fill="black"/>
<path d="M159.827 384.848H156.667L153.174 192.848L156.667 0.847657L159.827 0.847658L163.334 192.848L159.827 384.848Z" fill="black"/>
<path d="M141 384.848H144.253L148 192.848L144.253 0.847658L141 0.847657L137.253 192.848L141 384.848Z" fill="black"/>
<path d="M128.667 384.848H125.333L121.334 192.848L125.334 0.847657L128.667 0.847658L132.667 192.848L128.667 384.848Z" fill="black"/>
<path d="M109.667 384.848H113.08L117.334 192.848L113.08 0.847658L109.667 0.847657L105.413 192.848L109.667 384.848Z" fill="black"/>
<path d="M97.4934 384.848H94.0001L89.4934 192.848L94.0001 0.847657L97.4935 0.847658L102 192.848L97.4934 384.848Z" fill="black"/>
<path d="M78.3334 384.848H81.9201L86.6668 192.848L81.9201 0.847657L78.3335 0.847657L73.5868 192.848L78.3334 384.848Z" fill="black"/>
<path d="M66.3334 384.848H62.6667L57.6668 192.848L62.6668 0.847657L66.3335 0.847657L71.3334 192.848L66.3334 384.848Z" fill="black"/>
<path d="M47.0001 384.848H50.7467L56.0001 192.848L50.7467 0.847657L47.0001 0.847657L41.7467 192.848L47.0001 384.848Z" fill="black"/>
<path d="M35.1734 384.848H31.3334L25.8267 192.848L31.3334 0.847657L35.1734 0.847657L40.6667 192.848L35.1734 384.848Z" fill="black"/>
<path d="M15.6667 384.848H19.5867L25.3334 192.848L19.5867 0.847657L15.6667 0.847657L9.95915 191.54L4.00002 0.847657L1.67852e-05 0.847657L0 384.848H4L9.95915 194.155L15.6667 384.848Z" fill="black"/>
</svg>
