<svg width="385" height="385" viewBox="0 0 385 385" fill="none" xmlns="http://www.w3.org/2000/svg">
<path d="M55.0288 382.264H0.170532V384.264H55.0288V382.264Z" fill="black"/>
<path d="M55.0288 371.939H0.170532V374.102H55.0288V371.939Z" fill="black"/>
<path d="M55.0288 361.616H0.170532V363.939H55.0288V361.616Z" fill="black"/>
<path d="M55.0288 351.289H0.170532V353.776H55.0288V351.289Z" fill="black"/>
<path d="M55.0288 340.965H0.170532V343.612H55.0288V340.965Z" fill="black"/>
<path d="M55.0288 330.642H0.170532V333.453H55.0288V330.642Z" fill="black"/>
<path d="M55.0288 320.317H0.170532V323.292H55.0288V320.317Z" fill="black"/>
<path d="M55.0288 309.995H0.170532V313.129H55.0288V309.995Z" fill="black"/>
<path d="M55.0288 299.667H0.170532V302.965H55.0288V299.667Z" fill="black"/>
<path d="M55.0288 289.343H0.170532V292.801H55.0288V289.343Z" fill="black"/>
<path d="M55.0288 279.02H0.170532V282.642H55.0288V279.02Z" fill="black"/>
<path d="M55.0288 268.696H0.170532V272.481H55.0288V268.696Z" fill="black"/>
<path d="M55.0288 258.372H0.170532V262.318H55.0288V258.372Z" fill="black"/>
<path d="M55.0288 248.048H0.170532V252.157H55.0288V248.048Z" fill="black"/>
<path d="M55.0288 237.721H0.170532V241.99H55.0288V237.721Z" fill="black"/>
<path d="M55.0288 227.398H0.170532V231.831H55.0288V227.398Z" fill="black"/>
<path d="M55.0288 217.074H0.170532V221.67H55.0288V217.074Z" fill="black"/>
<path d="M55.0288 206.749H0.170532V211.506H55.0288V206.749Z" fill="black"/>
<path d="M55.0288 196.427H0.170532V201.347H55.0288V196.427Z" fill="black"/>
<path d="M55.0288 186.099H0.170532V191.179H55.0288V186.099Z" fill="black"/>
<path d="M55.0288 175.775H0.170532V181.019H55.0288V175.775Z" fill="black"/>
<path d="M55.0288 165.452H0.170532V170.856H55.0288V165.452Z" fill="black"/>
<path d="M55.0288 155.129H0.170532V160.696H55.0288V155.129Z" fill="black"/>
<path d="M55.0288 144.805H0.170532V150.536H55.0288V144.805Z" fill="black"/>
<path d="M55.0288 134.477H0.170532V140.368H55.0288V134.477Z" fill="black"/>
<path d="M55.0288 124.154H0.170532V130.208H55.0288V124.154Z" fill="black"/>
<path d="M55.0288 113.831H0.170532V120.045H55.0288V113.831Z" fill="black"/>
<path d="M55.0288 103.507H0.170532V109.885H55.0288V103.507Z" fill="black"/>
<path d="M55.0288 93.1826H0.170532V99.7245H55.0288V93.1826Z" fill="black"/>
<path d="M55.0288 82.8592H0.170532V89.561H55.0288V82.8592Z" fill="black"/>
<path d="M55.0288 72.5326H0.170532V79.3981H55.0288V72.5326Z" fill="black"/>
<path d="M55.0288 62.2081H0.170532V69.2336H55.0288V62.2081Z" fill="black"/>
<path d="M55.0288 51.8847H0.170532V59.0738H55.0288V51.8847Z" fill="black"/>
<path d="M55.0288 41.5612H0.170532V48.914H55.0288V41.5612Z" fill="black"/>
<path d="M55.0288 31.2372H0.170532V38.75H55.0288V31.2372Z" fill="black"/>
<path d="M55.0288 20.9107H0.170532V28.587H55.0288V20.9107Z" fill="black"/>
<path d="M55.0288 10.5867H0.170532V18.4231H55.0288V10.5867Z" fill="black"/>
<path d="M55.0292 0.262695H0.170953V8.26271H55.0292V0.262695Z" fill="black"/>
<path d="M384.171 0.262729H329.313V2.26273H384.171V0.262729Z" fill="black"/>
<path d="M384.171 10.4263H329.313V12.5899H384.171V10.4263Z" fill="black"/>
<path d="M384.171 20.5867H329.313V22.9104H384.171V20.5867Z" fill="black"/>
<path d="M384.171 30.7503H329.313V33.2375H384.171V30.7503Z" fill="black"/>
<path d="M384.171 40.9102H329.313V43.5575H384.171V40.9102Z" fill="black"/>
<path d="M384.171 51.0743H329.313V53.8852H384.171V51.0743Z" fill="black"/>
<path d="M384.171 61.2373H329.313V64.2118H384.171V61.2373Z" fill="black"/>
<path d="M384.171 71.3977H329.313V74.5323H384.171V71.3977Z" fill="black"/>
<path d="M384.171 81.5613H329.313V84.8595H384.171V81.5613Z" fill="black"/>
<path d="M384.171 91.7217H329.313V95.1799H384.171V91.7217Z" fill="black"/>
<path d="M384.171 101.885H329.313V105.507H384.171V101.885Z" fill="black"/>
<path d="M384.171 112.049H329.313V115.834H384.171V112.049Z" fill="black"/>
<path d="M384.171 122.209H329.313V126.154H384.171V122.209Z" fill="black"/>
<path d="M384.171 132.372H329.313V136.481H384.171V132.372Z" fill="black"/>
<path d="M384.171 142.532H329.313V146.801H384.171V142.532Z" fill="black"/>
<path d="M384.171 152.696H329.313V157.129H384.171V152.696Z" fill="black"/>
<path d="M384.171 162.859H329.313V167.456H384.171V162.859Z" fill="black"/>
<path d="M384.171 173.019H329.313V177.776H384.171V173.019Z" fill="black"/>
<path d="M384.171 183.183H329.313V188.103H384.171V183.183Z" fill="black"/>
<path d="M384.171 193.343H329.313V198.423H384.171V193.343Z" fill="black"/>
<path d="M384.171 203.507H329.313V208.75H384.171V203.507Z" fill="black"/>
<path d="M384.171 213.666H329.313V219.07H384.171V213.666Z" fill="black"/>
<path d="M384.171 223.831H329.313V229.398H384.171V223.831Z" fill="black"/>
<path d="M384.171 233.994H329.313V239.725H384.171V233.994Z" fill="black"/>
<path d="M384.171 244.154H329.313V250.045H384.171V244.154Z" fill="black"/>
<path d="M384.171 254.318H329.313V260.372H384.171V254.318Z" fill="black"/>
<path d="M384.171 264.478H329.313V270.692H384.171V264.478Z" fill="black"/>
<path d="M384.171 274.642H329.313V281.02H384.171V274.642Z" fill="black"/>
<path d="M384.171 284.805H329.313V291.347H384.171V284.805Z" fill="black"/>
<path d="M384.171 294.966H329.313V301.668H384.171V294.966Z" fill="black"/>
<path d="M384.171 305.129H329.313V311.995H384.171V305.129Z" fill="black"/>
<path d="M384.171 315.289H329.313V322.315H384.171V315.289Z" fill="black"/>
<path d="M384.171 325.453H329.313V332.642H384.171V325.453Z" fill="black"/>
<path d="M384.171 335.616H329.313V342.969H384.171V335.616Z" fill="black"/>
<path d="M384.171 345.776H329.313V353.289H384.171V345.776Z" fill="black"/>
<path d="M384.171 355.939H329.313V363.616H384.171V355.939Z" fill="black"/>
<path d="M384.171 366.1H329.313V373.937H384.171V366.1Z" fill="black"/>
<path d="M384.171 376.264H329.313V384.264H384.171V376.264Z" fill="black"/>
<path d="M109.887 382.264H55.0288V384.264H109.887V382.264Z" fill="black"/>
<path d="M109.887 371.877H55.0288V374.07H109.887V371.877Z" fill="black"/>
<path d="M109.887 361.489H55.0287V363.874H109.887V361.489Z" fill="black"/>
<path d="M109.887 351.103H55.0288V353.685H109.887V351.103Z" fill="black"/>
<path d="M109.887 340.714H55.0288V343.488H109.887V340.714Z" fill="black"/>
<path d="M109.887 330.329H55.0288V333.297H109.887V330.329Z" fill="black"/>
<path d="M109.887 319.939H55.0288V323.099H109.887V319.939Z" fill="black"/>
<path d="M109.887 309.554H55.0288V312.911H109.887V309.554Z" fill="black"/>
<path d="M109.887 299.165H55.0288V302.714H109.887V299.165Z" fill="black"/>
<path d="M109.887 288.779H55.0288V292.521H109.887V288.779Z" fill="black"/>
<path d="M109.887 278.391H55.0287V282.325H109.887V278.391Z" fill="black"/>
<path d="M109.887 268.004H55.0288V272.132H109.887V268.004Z" fill="black"/>
<path d="M109.887 257.619H55.0288V261.943H109.887V257.619Z" fill="black"/>
<path d="M109.887 247.23H55.0288V251.747H109.887V247.23Z" fill="black"/>
<path d="M109.887 236.845H55.0288V241.554H109.887V236.845Z" fill="black"/>
<path d="M109.887 226.456H55.0288V231.358H109.887V226.456Z" fill="black"/>
<path d="M109.887 216.07H55.0288V221.169H109.887V216.07Z" fill="black"/>
<path d="M109.887 205.681H55.0288V210.972H109.887V205.681Z" fill="black"/>
<path d="M109.887 195.296H55.0288V200.78H109.887V195.296Z" fill="black"/>
<path d="M109.887 184.906H55.0288V190.583H109.887V184.906Z" fill="black"/>
<path d="M109.887 174.521H55.0288V180.394H109.887V174.521Z" fill="black"/>
<path d="M109.887 164.136H55.0288V170.201H109.887V164.136Z" fill="black"/>
<path d="M109.887 153.747H55.0288V160.005H109.887V153.747Z" fill="black"/>
<path d="M109.887 143.362H55.0288V149.813H109.887V143.362Z" fill="black"/>
<path d="M109.887 132.972H55.0288V139.616H109.887V132.972Z" fill="black"/>
<path d="M109.887 122.587H55.0288V129.427H109.887V122.587Z" fill="black"/>
<path d="M109.887 112.197H55.0288V119.23H109.887V112.197Z" fill="black"/>
<path d="M109.887 101.812H55.0288V109.037H109.887V101.812Z" fill="black"/>
<path d="M109.887 91.4233H55.0288V98.8414H109.887V91.4233Z" fill="black"/>
<path d="M109.887 81.0373H55.0288V88.6519H109.887V81.0373Z" fill="black"/>
<path d="M109.887 70.6482H55.0288V78.4555H109.887V70.6482Z" fill="black"/>
<path d="M109.887 60.2628H55.0288V68.2628H109.887V60.2628Z" fill="black"/>
<path d="M219.6 382.264H164.742V384.264H219.6V382.264Z" fill="black"/>
<path d="M219.6 372.052H164.742V374.369H219.6V372.052Z" fill="black"/>
<path d="M219.6 361.841H164.742V364.474H219.6V361.841Z" fill="black"/>
<path d="M219.6 351.63H164.742V354.579H219.6V351.63Z" fill="black"/>
<path d="M219.6 341.42H164.742V344.682H219.6V341.42Z" fill="black"/>
<path d="M219.6 331.212H164.742V334.79H219.6V331.212Z" fill="black"/>
<path d="M219.6 321.002H164.742V324.896H219.6V321.002Z" fill="black"/>
<path d="M219.6 310.791H164.742V315.002H219.6V310.791Z" fill="black"/>
<path d="M219.6 300.58H164.742V305.108H219.6V300.58Z" fill="black"/>
<path d="M219.6 290.369H164.742V295.213H219.6V290.369Z" fill="black"/>
<path d="M219.6 280.157H164.742V285.314H219.6V280.157Z" fill="black"/>
<path d="M219.6 269.946H164.742V275.419H219.6V269.946Z" fill="black"/>
<path d="M219.6 259.736H164.742V265.525H219.6V259.736Z" fill="black"/>
<path d="M219.6 249.525H164.742V255.631H219.6V249.525Z" fill="black"/>
<path d="M219.6 239.315H164.742V245.736H219.6V239.315Z" fill="black"/>
<path d="M219.6 229.107H164.742V235.845H219.6V229.107Z" fill="black"/>
<path d="M219.6 218.896H164.742V225.947H219.6V218.896Z" fill="black"/>
<path d="M219.6 208.685H164.742V216.053H219.6V208.685Z" fill="black"/>
<path d="M219.6 198.474H164.742V206.158H219.6V198.474Z" fill="black"/>
<path d="M219.6 188.262H164.742V196.262H219.6V188.262Z" fill="black"/>
<path d="M274.458 382.264H219.6V384.264H274.458V382.264Z" fill="black"/>
<path d="M274.458 372.263H219.6V374.725H274.458V372.263Z" fill="black"/>
<path d="M274.458 362.263H219.6V365.186H274.458V362.263Z" fill="black"/>
<path d="M274.458 352.264H219.6V355.649H274.458V352.264Z" fill="black"/>
<path d="M274.458 342.263H219.6V346.11H274.458V342.263Z" fill="black"/>
<path d="M274.458 332.263H219.6V336.572H274.458V332.263Z" fill="black"/>
<path d="M274.458 322.264H219.6V327.035H274.458V322.264Z" fill="black"/>
<path d="M274.458 312.263H219.6V317.492H274.458V312.263Z" fill="black"/>
<path d="M274.458 302.263H219.6V307.954H274.458V302.263Z" fill="black"/>
<path d="M274.458 292.264H219.6V298.416H274.458V292.264Z" fill="black"/>
<path d="M274.458 282.263H219.6V288.878H274.458V282.263Z" fill="black"/>
<path d="M274.458 272.263H219.6V279.339H274.458V272.263Z" fill="black"/>
<path d="M274.458 262.264H219.6V269.802H274.458V262.264Z" fill="black"/>
<path d="M274.458 252.263H219.6V260.263H274.458V252.263Z" fill="black"/>
<path d="M329.317 382.264H274.458V384.264H329.317V382.264Z" fill="black"/>
<path d="M329.317 372.835H274.458V375.693H329.317V372.835Z" fill="black"/>
<path d="M329.317 363.404H274.458V367.117H329.317V363.404Z" fill="black"/>
<path d="M329.317 353.976H274.458V358.547H329.317V353.976Z" fill="black"/>
<path d="M329.317 344.551H274.459V349.98H329.317V344.551Z" fill="black"/>
<path d="M329.317 335.121H274.458V341.408H329.317V335.121Z" fill="black"/>
<path d="M329.317 325.692H274.458V332.834H329.317V325.692Z" fill="black"/>
<path d="M329.317 316.264H274.458V324.264H329.317V316.264Z" fill="black"/>
<path d="M164.742 382.264H109.883V384.264H164.742V382.264Z" fill="black"/>
<path d="M164.742 371.943H109.883V374.183H164.742V371.943Z" fill="black"/>
<path d="M164.742 361.623H109.883V364.103H164.742V361.623Z" fill="black"/>
<path d="M164.742 351.303H109.883V354.023H164.742V351.303Z" fill="black"/>
<path d="M164.742 340.983H109.883V343.943H164.742V340.983Z" fill="black"/>
<path d="M164.742 330.664H109.883V333.864H164.742V330.664Z" fill="black"/>
<path d="M164.742 320.343H109.883V323.783H164.742V320.343Z" fill="black"/>
<path d="M164.742 310.022H109.883V313.702H164.742V310.022Z" fill="black"/>
<path d="M164.742 299.703H109.883V303.623H164.742V299.703Z" fill="black"/>
<path d="M164.742 289.383H109.883V293.543H164.742V289.383Z" fill="black"/>
<path d="M164.742 279.063H109.883V283.463H164.742V279.063Z" fill="black"/>
<path d="M164.742 268.743H109.883V273.383H164.742V268.743Z" fill="black"/>
<path d="M164.742 258.423H109.883V263.303H164.742V258.423Z" fill="black"/>
<path d="M164.742 248.103H109.883V253.223H164.742V248.103Z" fill="black"/>
<path d="M164.742 237.783H109.883V243.143H164.742V237.783Z" fill="black"/>
<path d="M164.742 227.463H109.883V233.063H164.742V227.463Z" fill="black"/>
<path d="M164.742 217.143H109.883V222.983H164.742V217.143Z" fill="black"/>
<path d="M164.742 206.822H109.883V212.902H164.742V206.822Z" fill="black"/>
<path d="M164.742 196.503H109.883V202.823H164.742V196.503Z" fill="black"/>
<path d="M164.742 186.183H109.883V192.743H164.742V186.183Z" fill="black"/>
<path d="M164.742 175.863H109.883V182.663H164.742V175.863Z" fill="black"/>
<path d="M164.742 165.543H109.883V172.583H164.742V165.543Z" fill="black"/>
<path d="M164.742 155.223H109.883V162.503H164.742V155.223Z" fill="black"/>
<path d="M164.742 144.904H109.883V152.424H164.742V144.904Z" fill="black"/>
<path d="M164.742 134.584H109.883V142.344H164.742V134.584Z" fill="black"/>
<path d="M164.742 124.263H109.883V132.263H164.742V124.263Z" fill="black"/>
<path d="M329.317 0.262729H274.458V2.26273H329.317V0.262729Z" fill="black"/>
<path d="M329.317 10.456H274.458V12.6487H329.317V10.456Z" fill="black"/>
<path d="M329.317 20.6482H274.458V23.0336H329.317V20.6482Z" fill="black"/>
<path d="M329.317 30.8445H274.458V33.4264H329.317V30.8445Z" fill="black"/>
<path d="M329.317 41.0373H274.458V43.8118H329.317V41.0373Z" fill="black"/>
<path d="M329.317 51.2295H274.458V54.1967H329.317V51.2295Z" fill="black"/>
<path d="M329.317 61.4232H274.458V64.5832H329.317V61.4232Z" fill="black"/>
<path d="M329.317 71.6185H274.458V74.9749H329.317V71.6185Z" fill="black"/>
<path d="M329.317 81.8118H274.458V85.3609H329.317V81.8118Z" fill="black"/>
<path d="M329.317 92.0056H274.458V95.7474H329.317V92.0056Z" fill="black"/>
<path d="M329.317 102.197H274.458V106.131H329.317V102.197Z" fill="black"/>
<path d="M329.317 112.39H274.458V116.517H329.317V112.39Z" fill="black"/>
<path d="M329.317 122.587H274.458V126.91H329.317V122.587Z" fill="black"/>
<path d="M329.317 132.779H274.458V137.295H329.317V132.779Z" fill="black"/>
<path d="M329.317 142.972H274.458V147.681H329.317V142.972Z" fill="black"/>
<path d="M329.317 153.166H274.458V158.068H329.317V153.166Z" fill="black"/>
<path d="M329.317 163.361H274.458V168.46H329.317V163.361Z" fill="black"/>
<path d="M329.317 173.554H274.458V178.845H329.317V173.554Z" fill="black"/>
<path d="M329.317 183.747H274.458V189.231H329.317V183.747Z" fill="black"/>
<path d="M329.317 193.939H274.458V199.615H329.317V193.939Z" fill="black"/>
<path d="M329.317 204.135H274.458V210.008H329.317V204.135Z" fill="black"/>
<path d="M329.317 214.329H274.458V220.394H329.317V214.329Z" fill="black"/>
<path d="M329.317 224.522H274.459V230.78H329.317V224.522Z" fill="black"/>
<path d="M329.317 234.715H274.458V241.165H329.317V234.715Z" fill="black"/>
<path d="M329.317 244.907H274.458V251.55H329.317V244.907Z" fill="black"/>
<path d="M329.317 255.103H274.458V261.943H329.317V255.103Z" fill="black"/>
<path d="M329.317 265.295H274.458V272.328H329.317V265.295Z" fill="black"/>
<path d="M329.317 275.489H274.458V282.714H329.317V275.489Z" fill="black"/>
<path d="M329.317 285.681H274.458V293.1H329.317V285.681Z" fill="black"/>
<path d="M329.317 295.878H274.458V303.492H329.317V295.878Z" fill="black"/>
<path d="M329.317 306.071H274.458V313.878H329.317V306.071Z" fill="black"/>
<path d="M329.317 316.264H274.458V324.264H329.317V316.264Z" fill="black"/>
<path d="M219.6 0.262729H164.742V2.26273H219.6V0.262729Z" fill="black"/>
<path d="M219.6 10.1565H164.742V12.4729H219.6V10.1565Z" fill="black"/>
<path d="M219.6 20.0523H164.742V22.6851H219.6V20.0523Z" fill="black"/>
<path d="M219.6 29.9461H164.742V32.8952H219.6V29.9461Z" fill="black"/>
<path d="M219.6 39.8414H164.742V43.1032H219.6V39.8414Z" fill="black"/>
<path d="M219.6 49.7357H164.742V53.3139H219.6V49.7357Z" fill="black"/>
<path d="M219.6 59.63H164.742V63.5245H219.6V59.63Z" fill="black"/>
<path d="M219.6 69.5248H164.742V73.7357H219.6V69.5248Z" fill="black"/>
<path d="M219.6 79.4186H164.742V83.9458H219.6V79.4186Z" fill="black"/>
<path d="M219.6 89.3139H164.742V94.1575H219.6V89.3139Z" fill="black"/>
<path d="M219.6 99.2123H164.742V104.369H219.6V99.2123Z" fill="black"/>
<path d="M219.6 109.107H164.742V114.579H219.6V109.107Z" fill="black"/>
<path d="M219.6 119.001H164.742V124.79H219.6V119.001Z" fill="black"/>
<path d="M219.6 128.896H164.742V135.002H219.6V128.896Z" fill="black"/>
<path d="M219.6 138.79H164.742V145.212H219.6V138.79Z" fill="black"/>
<path d="M219.6 148.685H164.742V155.424H219.6V148.685Z" fill="black"/>
<path d="M219.6 158.579H164.742V165.63H219.6V158.579Z" fill="black"/>
<path d="M219.6 168.474H164.742V175.842H219.6V168.474Z" fill="black"/>
<path d="M219.6 178.368H164.742V186.052H219.6V178.368Z" fill="black"/>
<path d="M219.6 188.262H164.742V196.262H219.6V188.262Z" fill="black"/>
<path d="M164.742 0.262729H109.883V2.26273H164.742V0.262729Z" fill="black"/>
<path d="M164.742 9.80076H109.883V12.2626H164.742V9.80076Z" fill="black"/>
<path d="M164.742 19.3398H109.883V22.2635H164.742V19.3398Z" fill="black"/>
<path d="M164.742 28.8779H109.883V32.2633H164.742V28.8779Z" fill="black"/>
<path d="M164.742 38.4154H109.883V42.2627H164.742V38.4154Z" fill="black"/>
<path d="M164.742 47.9534H109.883V52.2625H164.742V47.9534Z" fill="black"/>
<path d="M164.742 57.4914H109.883V62.2624H164.742V57.4914Z" fill="black"/>
<path d="M164.742 67.0336H109.883V72.2627H164.742V67.0336Z" fill="black"/>
<path d="M164.742 76.5717H109.883V82.2626H164.742V76.5717Z" fill="black"/>
<path d="M164.742 86.1102H109.883V92.263H164.742V86.1102Z" fill="black"/>
<path d="M164.742 95.6477H109.883V102.262H164.742V95.6477Z" fill="black"/>
<path d="M164.742 105.187H109.883V112.263H164.742V105.187Z" fill="black"/>
<path d="M164.742 114.725H109.883V122.263H164.742V114.725Z" fill="black"/>
<path d="M164.742 124.263H109.883V132.263H164.742V124.263Z" fill="black"/>
<path d="M109.887 0.262729L55.0292 0.262695L55.0288 2.26273H109.887V0.262729Z" fill="black"/>
<path d="M109.887 8.83409H55.0288V11.6923H109.887V8.83409Z" fill="black"/>
<path d="M109.887 17.4044H55.0288V21.1171H109.887V17.4044Z" fill="black"/>
<path d="M109.887 25.9763H55.0288V30.5472H109.887V25.9763Z" fill="black"/>
<path d="M109.887 34.5492H55.0288V39.9783H109.887V34.5492Z" fill="black"/>
<path d="M109.887 43.1216H55.0288V49.4089H109.887V43.1216Z" fill="black"/>
<path d="M109.887 51.692H55.0288V58.8338H109.887V51.692Z" fill="black"/>
<path d="M109.887 60.2628H55.0288V68.2628H109.887V60.2628Z" fill="black"/>
<path d="M274.458 0.262729H219.6V2.26273H274.458V0.262729Z" fill="black"/>
<path d="M274.458 10.3429H219.6V12.583H274.458V10.3429Z" fill="black"/>
<path d="M274.458 20.4227H219.6V22.9027H274.458V20.4227Z" fill="black"/>
<path d="M274.458 30.5029H219.6V33.2229H274.458V30.5029Z" fill="black"/>
<path d="M274.458 40.5831H219.6V43.5431H274.458V40.5831Z" fill="black"/>
<path d="M274.458 50.6633H219.6V53.8633H274.458V50.6633Z" fill="black"/>
<path d="M274.458 60.7425H219.6V64.1825H274.458V60.7425Z" fill="black"/>
<path d="M274.458 70.8227H219.6V74.5027H274.458V70.8227Z" fill="black"/>
<path d="M274.458 80.9029H219.6V84.8229H274.458V80.9029Z" fill="black"/>
<path d="M274.458 90.9832H219.6V95.1432H274.458V90.9832Z" fill="black"/>
<path d="M274.458 101.063H219.6V105.463H274.458V101.063Z" fill="black"/>
<path d="M274.458 111.143H219.6V115.783H274.458V111.143Z" fill="black"/>
<path d="M274.458 121.222H219.6V126.102H274.458V121.222Z" fill="black"/>
<path d="M274.458 131.304H219.6V136.424H274.458V131.304Z" fill="black"/>
<path d="M274.458 141.383H219.6V146.743H274.458V141.383Z" fill="black"/>
<path d="M274.458 151.463H219.6V157.063H274.458V151.463Z" fill="black"/>
<path d="M274.458 161.543H219.6V167.383H274.458V161.543Z" fill="black"/>
<path d="M274.458 171.623H219.6V177.703H274.458V171.623Z" fill="black"/>
<path d="M274.458 181.703H219.6V188.023H274.458V181.703Z" fill="black"/>
<path d="M274.458 191.783H219.6V198.343H274.458V191.783Z" fill="black"/>
<path d="M274.458 201.863H219.6V208.663H274.458V201.863Z" fill="black"/>
<path d="M274.458 211.943H219.6V218.983H274.458V211.943Z" fill="black"/>
<path d="M274.458 222.023H219.6V229.303H274.458V222.023Z" fill="black"/>
<path d="M274.458 232.104H219.6V239.624H274.458V232.104Z" fill="black"/>
<path d="M274.458 242.183H219.6V249.943H274.458V242.183Z" fill="black"/>
<path d="M274.458 252.263H219.6V260.263H274.458V252.263Z" fill="black"/>
</svg>
