<svg
    width="385"
    height="385"
    viewBox="0 0 385 385"
    fill="none"
    xmlns="http://www.w3.org/2000/svg"
>
    <path
        d="M5.58487 0.262695H3.58487V128.263H5.58487V0.262695Z"
        fill="black"
    />
    <path
        d="M14.6846 0.262695H12.3973V128.263H14.6846V0.262695Z"
        fill="black"
    />
    <path
        d="M23.7752 0.262695H21.2043V128.263H23.7752V0.262695Z"
        fill="black"
    />
    <path
        d="M32.8721 0.262695H30.0139V128.263H32.8721V0.262695Z"
        fill="black"
    />
    <path
        d="M41.9633 0.262695H38.8215V128.263H41.9633V0.262695Z"
        fill="black"
    />
    <path d="M51.062 0.262695H47.6329V128.263H51.062V0.262695Z" fill="black" />
    <path
        d="M60.1563 0.262695H56.4435V128.263H60.1563V0.262695Z"
        fill="black"
    />
    <path d="M69.251 0.262695H65.251V128.263H69.251V0.262695Z" fill="black" />
    <path
        d="M78.3497 0.262695H74.0624V128.263H78.3497V0.262695Z"
        fill="black"
    />
    <path d="M87.443 0.262695H82.8721V128.263H87.443V0.262695Z" fill="black" />
    <path
        d="M96.5383 0.262695H91.6801V128.263H96.5383V0.262695Z"
        fill="black"
    />
    <path
        d="M105.633 0.262695H100.491V128.263H105.633V0.262695Z"
        fill="black"
    />
    <path
        d="M114.727 0.262695H109.298V128.263H114.727V0.262695Z"
        fill="black"
    />
    <path
        d="M123.822 0.262695H118.109V128.263H123.822V0.262695Z"
        fill="black"
    />
    <path d="M132.92 0.262695H126.92V128.263H132.92V0.262695Z" fill="black" />
    <path
        d="M142.015 0.262695H135.727V128.263H142.015V0.262695Z"
        fill="black"
    />
    <path d="M151.11 0.262695H144.539V128.263H151.11V0.262695Z" fill="black" />
    <path d="M160.208 0.262695H153.35V128.263H160.208V0.262695Z" fill="black" />
    <path
        d="M169.298 0.262695H162.156V128.263H169.298V0.262695Z"
        fill="black"
    />
    <path
        d="M178.397 0.262695H170.968V128.263H178.397V0.262695Z"
        fill="black"
    />
    <path
        d="M187.487 0.262695H179.775V128.263H187.487V0.262695Z"
        fill="black"
    />
    <path
        d="M196.585 0.262695H188.585V128.263H196.585V0.262695Z"
        fill="black"
    />
    <path
        d="M381.586 0.262695H379.586V128.263H381.586V0.262695Z"
        fill="black"
    />
    <path
        d="M372.778 0.262695H370.491V128.263H372.778V0.262695Z"
        fill="black"
    />
    <path
        d="M363.967 0.262695H361.396V128.263H363.967V0.262695Z"
        fill="black"
    />
    <path
        d="M355.157 0.262695H352.299V128.263H355.157V0.262695Z"
        fill="black"
    />
    <path
        d="M346.346 0.262695H343.204V128.263H346.346V0.262695Z"
        fill="black"
    />
    <path d="M337.54 0.262695H334.111V128.263H337.54V0.262695Z" fill="black" />
    <path
        d="M328.728 0.262695H325.015V128.263H328.728V0.262695Z"
        fill="black"
    />
    <path d="M319.92 0.262695H315.92V128.263H319.92V0.262695Z" fill="black" />
    <path
        d="M311.109 0.262695H306.822V128.263H311.109V0.262695Z"
        fill="black"
    />
    <path
        d="M302.299 0.262695H297.728V128.263H302.299V0.262695Z"
        fill="black"
    />
    <path
        d="M293.491 0.262695H288.633V128.263H293.491V0.262695Z"
        fill="black"
    />
    <path
        d="M284.681 0.262695H279.539V128.263H284.681V0.262695Z"
        fill="black"
    />
    <path
        d="M275.874 0.262695H270.445V128.263H275.874V0.262695Z"
        fill="black"
    />
    <path
        d="M267.062 0.262695H261.349V128.263H267.062V0.262695Z"
        fill="black"
    />
    <path
        d="M258.251 0.262695H252.251V128.263H258.251V0.262695Z"
        fill="black"
    />
    <path
        d="M249.444 0.262695H243.157V128.263H249.444V0.262695Z"
        fill="black"
    />
    <path
        d="M240.633 0.262695H234.062V128.263H240.633V0.262695Z"
        fill="black"
    />
    <path
        d="M231.826 0.262695H224.968V128.263H231.826V0.262695Z"
        fill="black"
    />
    <path
        d="M223.015 0.262695H215.873V128.263H223.015V0.262695Z"
        fill="black"
    />
    <path
        d="M214.203 0.262695H206.774V128.263H214.203V0.262695Z"
        fill="black"
    />
    <path d="M205.393 0.262695H197.68V128.263H205.393V0.262695Z" fill="black" />
    <path d="M5.58487 256.263H3.58487V384.263H5.58487V256.263Z" fill="black" />
    <path d="M14.6846 256.263H12.3973V384.263H14.6846V256.263Z" fill="black" />
    <path d="M23.7752 256.263H21.2043V384.263H23.7752V256.263Z" fill="black" />
    <path d="M32.8721 256.263H30.0139V384.263H32.8721V256.263Z" fill="black" />
    <path d="M41.9633 256.263H38.8215V384.263H41.9633V256.263Z" fill="black" />
    <path d="M51.062 256.263H47.6329V384.263H51.062V256.263Z" fill="black" />
    <path d="M60.1563 256.263H56.4435V384.263H60.1563V256.263Z" fill="black" />
    <path d="M69.251 256.263H65.251V384.263H69.251V256.263Z" fill="black" />
    <path d="M78.3497 256.263H74.0624V384.263H78.3497V256.263Z" fill="black" />
    <path d="M87.443 256.263H82.8721V384.263H87.443V256.263Z" fill="black" />
    <path d="M96.5383 256.263H91.6801V384.263H96.5383V256.263Z" fill="black" />
    <path d="M105.633 256.263H100.491V384.263H105.633V256.263Z" fill="black" />
    <path d="M114.727 256.263H109.298V384.263H114.727V256.263Z" fill="black" />
    <path d="M123.822 256.263H118.109V384.263H123.822V256.263Z" fill="black" />
    <path d="M132.92 256.263H126.92V384.263H132.92V256.263Z" fill="black" />
    <path d="M142.015 256.263H135.727V384.263H142.015V256.263Z" fill="black" />
    <path d="M151.11 256.263H144.539V384.263H151.11V256.263Z" fill="black" />
    <path d="M160.208 256.263H153.35V384.263H160.208V256.263Z" fill="black" />
    <path d="M169.298 256.263H162.156V384.263H169.298V256.263Z" fill="black" />
    <path d="M178.397 256.263H170.968V384.263H178.397V256.263Z" fill="black" />
    <path d="M187.487 256.263H179.775V384.263H187.487V256.263Z" fill="black" />
    <path d="M196.585 256.263H188.585V384.263H196.585V256.263Z" fill="black" />
    <path d="M381.586 256.263H379.586V384.263H381.586V256.263Z" fill="black" />
    <path d="M372.778 256.263H370.491V384.263H372.778V256.263Z" fill="black" />
    <path d="M363.967 256.263H361.396V384.263H363.967V256.263Z" fill="black" />
    <path d="M355.157 256.263H352.299V384.263H355.157V256.263Z" fill="black" />
    <path d="M346.346 256.263H343.204V384.263H346.346V256.263Z" fill="black" />
    <path d="M337.54 256.263H334.111V384.263H337.54V256.263Z" fill="black" />
    <path d="M328.728 256.263H325.015V384.263H328.728V256.263Z" fill="black" />
    <path d="M319.92 256.263H315.92V384.263H319.92V256.263Z" fill="black" />
    <path d="M311.109 256.263H306.822V384.263H311.109V256.263Z" fill="black" />
    <path d="M302.299 256.263H297.728V384.263H302.299V256.263Z" fill="black" />
    <path d="M293.491 256.263H288.633V384.263H293.491V256.263Z" fill="black" />
    <path d="M284.681 256.263H279.539V384.263H284.681V256.263Z" fill="black" />
    <path d="M275.874 256.263H270.445V384.263H275.874V256.263Z" fill="black" />
    <path d="M267.062 256.263H261.349V384.263H267.062V256.263Z" fill="black" />
    <path d="M258.251 256.263H252.251V384.263H258.251V256.263Z" fill="black" />
    <path d="M249.444 256.263H243.157V384.263H249.444V256.263Z" fill="black" />
    <path d="M240.633 256.263H234.062V384.263H240.633V256.263Z" fill="black" />
    <path d="M231.826 256.263H224.968V384.263H231.826V256.263Z" fill="black" />
    <path d="M223.015 256.263H215.873V384.263H223.015V256.263Z" fill="black" />
    <path d="M214.203 256.263H206.774V384.263H214.203V256.263Z" fill="black" />
    <path d="M205.393 256.263H197.68V384.263H205.393V256.263Z" fill="black" />
    <path d="M193.586 128.263H191.586V256.263H193.586V128.263Z" fill="black" />
    <path d="M184.778 128.263H182.491V256.263H184.778V128.263Z" fill="black" />
    <path d="M175.968 128.263H173.397V256.263H175.968V128.263Z" fill="black" />
    <path d="M167.157 128.263H164.298V256.263H167.157V128.263Z" fill="black" />
    <path d="M158.345 128.263H155.204V256.263H158.345V128.263Z" fill="black" />
    <path d="M149.538 128.263H146.109V256.263H149.538V128.263Z" fill="black" />
    <path d="M140.728 128.263H137.015V256.263H140.728V128.263Z" fill="black" />
    <path d="M131.92 128.263H127.92V256.263H131.92V128.263Z" fill="black" />
    <path d="M123.109 128.263H118.821V256.263H123.109V128.263Z" fill="black" />
    <path d="M114.298 128.263H109.727V256.263H114.298V128.263Z" fill="black" />
    <path d="M105.49 128.263H100.632V256.263H105.49V128.263Z" fill="black" />
    <path d="M96.6801 128.263H91.5383V256.263H96.6801V128.263Z" fill="black" />
    <path d="M87.873 128.263H82.4439V256.263H87.873V128.263Z" fill="black" />
    <path d="M79.0624 128.263H73.3497V256.263H79.0624V128.263Z" fill="black" />
    <path d="M70.2519 128.263H64.2519V256.263H70.2519V128.263Z" fill="black" />
    <path d="M61.4438 128.263H55.1565V256.263H61.4438V128.263Z" fill="black" />
    <path d="M52.6325 128.263H46.0616V256.263H52.6325V128.263Z" fill="black" />
    <path d="M43.825 128.263H36.9668V256.263H43.825V128.263Z" fill="black" />
    <path d="M35.0142 128.263H27.8724V256.263H35.0142V128.263Z" fill="black" />
    <path d="M26.2032 128.263H18.7741V256.263H26.2032V128.263Z" fill="black" />
    <path d="M17.3931 128.263H9.68038V256.263H17.3931V128.263Z" fill="black" />
    <path d="M8.58546 128.263H0.585449V256.263H8.58546V128.263Z" fill="black" />
    <path d="M202.684 128.263H200.397V256.263H202.684V128.263Z" fill="black" />
    <path d="M211.775 128.263H209.204V256.263H211.775V128.263Z" fill="black" />
    <path d="M220.873 128.263H218.015V256.263H220.873V128.263Z" fill="black" />
    <path d="M229.964 128.263H226.822V256.263H229.964V128.263Z" fill="black" />
    <path d="M239.062 128.263H235.633V256.263H239.062V128.263Z" fill="black" />
    <path d="M248.157 128.263H244.444V256.263H248.157V128.263Z" fill="black" />
    <path d="M257.252 128.263H253.252V256.263H257.252V128.263Z" fill="black" />
    <path d="M266.349 128.263H262.061V256.263H266.349V128.263Z" fill="black" />
    <path d="M275.444 128.263H270.873V256.263H275.444V128.263Z" fill="black" />
    <path d="M284.538 128.263H279.68V256.263H284.538V128.263Z" fill="black" />
    <path d="M293.633 128.263H288.491V256.263H293.633V128.263Z" fill="black" />
    <path d="M302.728 128.263H297.298V256.263H302.728V128.263Z" fill="black" />
    <path d="M311.823 128.263H306.11V256.263H311.823V128.263Z" fill="black" />
    <path d="M320.919 128.263H314.919V256.263H320.919V128.263Z" fill="black" />
    <path d="M330.015 128.263H323.727V256.263H330.015V128.263Z" fill="black" />
    <path d="M339.11 128.263H332.539V256.263H339.11V128.263Z" fill="black" />
    <path d="M348.208 128.263H341.35V256.263H348.208V128.263Z" fill="black" />
    <path d="M357.299 128.263H350.157V256.263H357.299V128.263Z" fill="black" />
    <path d="M366.396 128.263H358.967V256.263H366.396V128.263Z" fill="black" />
    <path d="M375.487 128.263H367.775V256.263H375.487V128.263Z" fill="black" />
    <path d="M384.586 128.263H376.586V256.263H384.586V128.263Z" fill="black" />
</svg>
