<?xml version="1.0" encoding="UTF-8"?><svg id="a" xmlns="http://www.w3.org/2000/svg" viewBox="0 0 731 844.8"><polygon points="292.1 44.9 292.1 484.7 652.5 674.1 727.8 632.1 727.8 212.8 364.2 3.3 292.1 44.9" style="fill:#ced4db;"/><polygon points="654.3 254.1 727.8 212.8 727.8 632.1 654 674.1 654.3 254.1" style="fill:#09264a; fill-rule:evenodd;"/><path d="M582.8,296.5l-.3,343.9,39.3-22.7h0c.4-.4,.7-.8,.7-1.4V273.4c0-.6-.3-1.1-.8-1.3L326.4,101.5c-.5-.3-1.1-.3-1.5,0h0l-61.7,35.6,297.6,171.8,22.2-12.4Z" style="fill:#5ab552; fill-rule:evenodd; opacity:.3;"/><polygon points="622.3 272.8 582.8 296.5 582.5 640.5 621.7 617.9 622.3 272.8" style="fill:#5ab552; fill-rule:evenodd; opacity:.6;"/><polygon points="292.1 44.9 292.1 44.9 292.1 44.9 292.1 44.9" style="fill:#fff; fill-rule:evenodd;"/><path d="M324,103v127.8l3.1,1.8V105.7l292.3,168.8v339.4l-36.8-21.3v3.6l37.6,21.7c.5,.3,1.1,.3,1.5,0s.8-.8,.8-1.3V273.5c0-.3,0-.5-.2-.8s-.3-.4-.6-.6L326.3,101.7c-.5-.3-1.1-.3-1.5,0s-.8,.8-.8,1.3Z" style="fill:#09264a;"/><path d="M289.1,45V210.6l6.2,3.6V46.8L364.3,6.9l360.5,207.7-.4,416-70,40.4-71.9-41.5v7.1l70.3,40.6c1,.6,2.1,.6,3.1,0l73.1-42.2c1-.5,1.5-1.6,1.5-2.7l.4-419.6c0-.6-.1-1.1-.4-1.5s-.7-.9-1.1-1.1L365.8,.7c-1-.5-2.1-.5-3.1,0l-72.1,41.6c-1,.6-1.5,1.6-1.5,2.7Z" style="fill:#fff;"/><rect x="438.6" y="546.5" height="7.1" style="fill:#fff;"/><path d="M652.5,254.4v398.3c1,0,2.1,0,3.1,0V255.3l58.7-32.9c-.7-.8-1.3-1.6-1.9-2.4l-59,33.1c-.2,.1-.4,.3-.6,.6-.1,.2-.2,.5-.2,.8Z" style="fill:#09264a;"/><path d="M546.4,190.5l107.7,62.2,58.3-32.7c.6,.8,1.3,1.6,1.9,2.4l-59.5,33.3c-.5,.3-1.1,.3-1.5,0l-108.3-62.5c.5-.9,.9-1.8,1.4-2.8Z" style="fill:#09264a;"/><path d="M435.4,129.9c.5-.9,1-1.8,1.5-2.7l-126.6-73.1c-.5,.9-1,1.8-1.6,2.7l126.7,73.2Z" style="fill:#09264a;"/><polygon points="147.1 128.7 219.2 87 582.8 296.5 583.2 717.4 510 759.1 144.1 546.5 147.1 128.7" style="fill:#ced4db;"/><polygon points="509.8 339.5 582.8 296.5 583.2 713.8 510 759.1 509.8 339.5" style="fill:#09264a; fill-rule:evenodd;"/><polygon points="147.1 128.7 147.1 128.7 147.1 128.7 147.1 128.7" style="fill:#fff; fill-rule:evenodd;"/><path d="M476.8,701.4c.4-.3,.7-.8,.7-1.3V357.1c0-.6-.3-1.1-.8-1.3L181.4,185.2c-.5-.3-1.1-.3-1.5,0h0l-39.6,22.9,7,29.5,268.5,155,23.1-12.9-.3,337.6,5.5,3.1,33-19h0Z" style="fill:#5ab552; fill-rule:evenodd; opacity:.3;"/><polygon points="438.4 676.8 438.4 677.4 438.4 676.8 438.4 676.8" style="fill:#fff;"/><polygon points="477.3 356.5 437.2 379.7 438.4 723.4 476.8 701.4 477.3 356.5" style="fill:#5ab552; fill-rule:evenodd; opacity:.6;"/><path d="M475.2,701.6c.5,.3,1.1,.3,1.5,0s.8-.8,.8-1.3V357.3c0-.3,0-.5-.2-.8s-.3-.4-.6-.6L181.3,185.4c-.5-.3-1.1-.3-1.5,0s-.8,.8-.8,1.3v126.7l3.1,1.8v-125.8l292.3,168.8v339.4l-36-20.8v3.6l36.7,21.2Z" style="fill:#09264a;"/><path d="M585.6,295c-.3-.5-.7-.9-1.1-1.1L220.8,84.4c-1-.5-2.1-.5-3.1,0l-72.1,41.6c-1,.6-1.5,1.6-1.5,2.7v164.6l3,1.7,3.2,1.8V130.5l69-39.8,360.4,207.7h.1l-.4,416.1-70,40.4-71-41v7.1l69.5,40.1c1,.6,2.1,.6,3.1,0l73.1-42.2c1-.5,1.5-1.6,1.5-2.7l.4-419.6c0-.6-.1-1.1-.4-1.5Z" style="fill:#fff;"/><rect x="438.4" y="713.8" height="3.6" style="fill:#fff;"/><rect x="148.7" y="294.1" height="3.6" style="fill:#fff;"/><path d="M509.3,337.8l58.9-33c-.3-.4-.6-.7-.9-1.1l-59,33.1c-.1,0-.2,.1-.3,.2l1.3,.8Z" style="fill:#1a4e85;"/><path d="M508,337c-.1,.1-.2,.2-.3,.3-.1,.2-.2,.5-.2,.8v398.3c1,0,2.1,0,3.1,0V339l58.7-32.9c-.4-.5-.7-.9-1.1-1.4l-58.9,33-1.3-.8Z" style="fill:#09264a;"/><path d="M509.3,337.8l58.9-33c-.3-.4-.6-.7-.9-1.1l-58.3,32.7-107.7-62.2c-.2,.3-.3,.7-.5,1l108.4,62.6Z" style="fill:#09264a;"/><path d="M400.9,275.2c-.3,.6-.6,1.2-.9,1.8l108.3,62.5c.5,.3,1,.3,1.5,0l59.5-33.3c-.4-.5-.7-.9-1.1-1.4l-58.9,33-108.4-62.6Z" style="fill:#09264a;"/><path d="M291.4,211.9c.2-.3,.4-.7,.5-1l-126.6-73.1c-.2,.3-.4,.6-.6,1l126.7,73.1Z" style="fill:#09264a;"/><path d="M163.7,140.5l126.7,73.2c.3-.6,.6-1.2,.9-1.7l-126.7-73.1c-.3,.6-.7,1.1-1,1.7Z" style="fill:#09264a;"/><polygon points="3.2 211.9 74.8 171.1 438.7 379.7 438.6 798.7 365 841.7 3.2 633.4 3.2 211.9" style="fill:#ced4db;"/><polygon points="438.7 379.7 438.6 798.7 365 841.7 365.2 421 438.7 379.7" style="fill:#09264a; fill-rule:evenodd;"/><path d="M333.1,439.7c.1,.2,.2,.5,.2,.8v343c0,.6-.3,1.1-.8,1.3s-1.1,.3-1.5,0L35.6,614.3c-.5-.3-.8-.8-.8-1.3V269.9c0-.6,.3-1.1,.8-1.3s1.1-.3,1.5,0l295.4,170.5c.2,.1,.4,.3,.6,.6Zm-2.9,341.1V441.4L38,272.6v339.4l292.3,168.8Z" style="fill:#09264a;"/><path d="M441.5,378.2c.3,.5,.4,1,.4,1.5l-.4,419.6c0,1.1-.6,2.1-1.5,2.7l-73.1,42.2c-1,.6-2.1,.6-3.1,0L1.5,635.1c-1-.5-1.5-1.6-1.5-2.7V211.9c0-1.1,.6-2.1,1.5-2.7l72.1-41.6c1-.5,2.1-.6,3.1,0l363.6,209.5c.5,.3,.9,.7,1.1,1.1Zm-6.2,419.4l.4-416L75.2,173.8,6.2,213.7v417l359.1,207.3,70-40.4Z" style="fill:#fff;"/><polygon points="363.9 420.2 365.2 421 363.9 420.2 363.9 420.2" style="fill:#1a4e85;"/><path d="M423.2,386.9l-59,33.1c-.1,0-.2,.1-.3,.2l1.3,.8,58.9-33c-.3-.4-.6-.7-.9-1.1Z" style="fill:#1a4e85;"/><path d="M363.9,420.2c-.1,.1-.2,.2-.3,.3-.1,.2-.2,.5-.2,.8v398.3c1,0,2.1,0,3.1,0V422.2l58.7-32.9c-.4-.5-.7-.9-1.1-1.4l-58.9,33-1.3-.8Z" style="fill:#09264a;"/><polygon points="365.2 421 424.1 388 424.1 388 365.2 421" style="fill:#1a4e85;"/><polygon points="256.8 358.4 365.2 421 256.8 358.4 256.8 358.4" style="fill:#1a4e85;"/><path d="M423.2,386.9l-58.3,32.7-107.7-62.2c-.2,.3-.3,.7-.5,1l108.4,62.6,58.9-33c-.3-.4-.6-.7-.9-1.1Z" style="fill:#09264a;"/><path d="M256.8,358.4c-.3,.6-.6,1.2-.9,1.8l108.3,62.5c.5,.3,1,.3,1.5,0l59.5-33.3c-.4-.5-.7-.9-1.1-1.4l-58.9,33-108.4-62.6Z" style="fill:#09264a;"/><polygon points="365.2 421 424.1 388 424.1 388 365.2 421" style="fill:#09264a;"/><path d="M21.2,221.1c-.2,.3-.4,.6-.6,1l126.5,73v-1.3L21.2,221.1Z" style="fill:#09264a;"/><path d="M147.1,295.1L20.6,222c-.3,.6-.7,1.1-1,1.7l126.7,73.2c.3-.6,.6-1.2,.9-1.7h-.1Z" style="fill:#09264a;"/><rect x="147.2" y="295" height=".2" style="fill:#1a4e85;"/></svg>