<?xml version="1.0" encoding="utf-8"?>
<!-- Generator: Adobe Illustrator 26.2.1, SVG Export Plug-In . SVG Version: 6.00 Build 0)  -->
<svg version="1.1" id="Light" xmlns="http://www.w3.org/2000/svg" xmlns:xlink="http://www.w3.org/1999/xlink" x="0px" y="0px"
	 viewBox="0 0 593 777.6" style="enable-background:new 0 0 593 777.6;" xml:space="preserve">
<style type="text/css">
	.st0{fill-rule:evenodd;clip-rule:evenodd;fill:url(#SVGID_1_);}
	.st1{fill:none;stroke:#1A4E85;stroke-width:3;stroke-linejoin:round;}
	.st2{fill-rule:evenodd;clip-rule:evenodd;fill:#FFFFFF;}
	.st3{fill:#1A4E85;}
	.st4{fill-rule:evenodd;clip-rule:evenodd;fill:#FFFFFF;stroke:#1A4E85;stroke-width:7;stroke-linejoin:round;}
	.st5{fill:none;stroke:#1A4E85;stroke-width:6;stroke-linecap:round;stroke-linejoin:round;}
</style>
<linearGradient id="SVGID_1_" gradientUnits="userSpaceOnUse" x1="889.746" y1="-74.2906" x2="461.3061" y2="489.7094" gradientTransform="matrix(1 0 0 -1 -306 566.8)">
	<stop  offset="0" style="stop-color:#BBDEFB"/>
	<stop  offset="1" style="stop-color:#FFFFFF"/>
</linearGradient>
<path class="st0" d="M590,513.8c0-183.7-114.1-398.4-254.8-479.6C265.9-5.8,203.1-6,157.2,26L88.1,64.8L103,95.5
	c-8,18.7-13.7,38.2-17.1,58.2l311.5,571.5c4.9,1.2,9.7,2.2,14.5,3l14.3,29.3l67-38.1l15.2-8.9C558.6,678.8,590,610.1,590,513.8z"/>
<path class="st1" d="M453.1,719.3l-0.5-0.9L554,659.8l0.6,1L453.1,719.3z"/>
<path class="st1" d="M488.5,573.5l-0.6-1L589.4,514l0.5,0.9L488.5,573.5z"/>
<path class="st1" d="M454.2,386.8l-0.5-1l101.4-58.5l0.6,0.9L454.2,386.8z"/>
<path class="st1" d="M360.3,211.1l-0.6-0.9l101.5-58.6l0.5,1L360.3,211.1z"/>
<path class="st1" d="M233.2,94l-0.5-0.9l101.4-58.6l0.6,1L233.2,94z"/>
<path class="st2" d="M257.8,78.4C398.6,159.6,512.6,374.3,512.6,558s-114,266.7-254.8,185.4S3,447.5,3,263.8S117.1-2.9,257.8,78.4z"
	/>
<path class="st3" d="M439.3,279c-48.2-90.8-112.4-162.5-180.7-201.9c-32.1-18.6-63.5-28.9-92.9-31v3.1c28.8,2,59.8,12.2,91.4,30.5
	l0,0c140.1,80.8,254,295.4,254,478.3c0,39.5-5.4,75.1-15.6,105.4l2.7,1.5c10.6-30.9,15.9-66.8,15.9-106.9
	C514.1,468.9,487.6,369.8,439.3,279z"/>
<path class="st1" d="M3,264.9v-1.1L512.6,558v1.1L3,264.9z"/>
<path class="st1" d="M36.9,118.2l0.5-0.8l441.3,587.3l-0.4,0.7L36.9,118.2z"/>
<path class="st1" d="M130.1,50h0.7l254.8,723h-0.7L130.1,50z"/>
<path class="st1" d="M257.4,78.7l0.8,0.5v665l-0.8-0.5V78.7z"/>
<path class="st1" d="M384.9,196.5l0.7,1L130.8,626.4l-0.7-1L384.9,196.5z"/>
<path class="st1" d="M478.3,371.9l0.4,1.2L37.4,450.9l-0.5-1.2L478.3,371.9z"/>
<path class="st2" d="M257.8,148c111.3,64.2,201.5,234,201.5,379.2s-90.2,210.9-201.5,146.6S56.3,439.8,56.3,294.6
	S146.6,83.7,257.8,148z"/>
<path class="st3" d="M59.1,272.6l-3.9-2.1c-0.5,7.8-0.9,15.8-0.9,24.1c0,52.8,11.8,110.1,33.8,165.7c0.4-0.9,1.1-1.7,2-2.2l1.3-0.6
	c-20.9-53.4-33.1-109.8-33.1-162.9C58.3,287.1,58.6,279.7,59.1,272.6z"/>
<path class="st3" d="M258.8,146.2c-49.8-28.8-98-32.7-135.4-11.1c-21.5,12.4-38.5,32.7-50.2,59l3.1,2.9c11.4-26.2,28-46.2,49.1-58.4
	c15.5-8.8,33.1-13.4,50.9-13.2c25.1,0,52.5,8.1,80.5,24.3c41.3,23.8,79.7,62.4,111.7,108.9l2.5-1c0.3-0.4,0.5-0.9,0.8-1.4
	C338.7,208,299.7,169.8,258.8,146.2z"/>
<path class="st3" d="M283.7,687.5v-3.1c-8.6-3.6-16.9-7.7-24.9-12.3c-40.7-23.5-78.6-61.3-110.3-107c-0.3,0.4-0.6,0.8-0.8,1.2
	c-0.6,0.7-1.3,1.3-2.1,1.8c32.7,47,71.1,84.3,111.2,107.5c8.3,4.8,17,9,25.9,12.7L283.7,687.5z"/>
<path class="st3" d="M426.3,358.3l-0.3,0.2l-3.4,1.7c21.9,54.5,34.7,112.5,34.7,167c0,74.5-24.4,131.4-67,156
	c-15.2,8.8-32.3,13.1-50.6,13.2c0.4,1.3,0.7,2.7,1.1,4c18.1,0,35.8-4.8,51.5-13.8c43.9-25.3,69-83.4,69-159.4
	C461.3,473.4,449,414.9,426.3,358.3z"/>
<path class="st4" d="M366.6,330.8c-17.2-32.3-37.9-55.5-62.2-69.5c-16-9.2-30.7-12.6-44.2-10.2c-13.5,2.4-24.2,10.2-32,23.3
	s-11.7,30-11.7,50.9c0.1,12.9,1.6,25.8,4.5,38.4l-80.9,58.9c-2.4,1.7-3.5,4.8-3.5,9.1v50.8c0,4.6,1.2,9.1,3.5,13.1
	c1.8,3.9,4.8,7.2,8.5,9.5l55.9,32.3c3.3,1.9,6.2,2,8.5,0.3s3.5-4.7,3.5-9v-26.1l20,11.5c3.3,1.9,6.1,2.1,8.5,0.4s3.5-4.7,3.5-9.1
	v-26.1l18.4,10.7c3.7,2.1,6.7,2.1,9,0l12-10.7c5.2,4.3,10.7,8.1,16.5,11.5c24.3,14,45.1,14.8,62.2,2.3
	c17.1-12.5,25.7-34.6,25.7-66.3C392.3,395.1,383.7,363.1,366.6,330.8z M328.4,327.3c6.6,3.8,12.3,10.2,17,18.9
	c4.4,8,6.8,17,6.9,26.2c0,8.7-2.3,14.8-6.9,18.2s-10.4,3.1-17-0.7s-12.4-10.2-17-18.9c-4.5-8-6.9-17-7-26.2c0-8.7,2.3-14.8,7-18.2
	S321.7,323.5,328.4,327.3z"/>
<path class="st5" d="M335.2,34.2C265.9-5.8,203.1-6,157.2,26L88.1,64.8l0,0C35.9,95.7,3,165.2,3,263.8
	c0,183.7,114.1,398.4,254.8,479.6c66.8,38.6,127.6,40.1,173.1,11.5l74.9-42.7l0,0c51.7-31,84.2-100.4,84.2-198.4
	C590,330.1,475.9,115.4,335.2,34.2z"/>
</svg>
