<?xml version="1.0" encoding="utf-8"?>
<!-- Generator: Adobe Illustrator 26.2.1, SVG Export Plug-In . SVG Version: 6.00 Build 0)  -->
<svg version="1.1" id="Dark" xmlns="http://www.w3.org/2000/svg" xmlns:xlink="http://www.w3.org/1999/xlink" x="0px" y="0px"
	 viewBox="0 0 1040.8 1079.6" style="enable-background:new 0 0 1040.8 1079.6;" xml:space="preserve">
<style type="text/css">
	.st0{fill:#FFFFFF;}
	.st1{fill-rule:evenodd;clip-rule:evenodd;fill:url(#SVGID_1_);}
	.st2{fill-rule:evenodd;clip-rule:evenodd;fill:url(#SVGID_00000015325931113671118150000017506415190926326419_);}
	.st3{fill-rule:evenodd;clip-rule:evenodd;fill:url(#SVGID_00000149360570365251602250000005596737416232006539_);}
	.st4{fill-rule:evenodd;clip-rule:evenodd;fill:#CED4DB;}
	.st5{fill:#09264A;}
	.st6{fill:none;stroke:#FFFFFF;stroke-width:6;stroke-miterlimit:10;}
	.st7{fill-rule:evenodd;clip-rule:evenodd;fill:url(#SVGID_00000136380731587674928170000013237057321856512420_);}
	.st8{fill-rule:evenodd;clip-rule:evenodd;fill:#09264A;}
	.st9{fill:none;stroke:#FFFFFF;stroke-width:6;stroke-linecap:round;stroke-linejoin:round;}
	.st10{fill-rule:evenodd;clip-rule:evenodd;fill:url(#SVGID_00000013891824051762336610000002480144365548368016_);}
	.st11{opacity:0.3;fill-rule:evenodd;clip-rule:evenodd;fill:#858585;enable-background:new    ;}
	.st12{fill:#CED4DB;}
	.st13{opacity:0.3;fill:#858585;enable-background:new    ;}
	.st14{fill:none;}
	.st15{fill:#CED4DB;stroke:#09264A;stroke-miterlimit:10;}
	.st16{fill-rule:evenodd;clip-rule:evenodd;fill:#BEC6CC;}
	.st17{fill-rule:evenodd;clip-rule:evenodd;fill:#1976D2;}
	.st18{fill-rule:evenodd;clip-rule:evenodd;fill:#02C2FF;}
	.st19{fill-rule:evenodd;clip-rule:evenodd;fill:#5AB552;}
</style>
<path class="st0" d="M1037.9,480.7c0-55.2-34.6-121.3-80.6-158.4c3.2-7.7,5-17.1,5-27.9c0-47.3-33.8-105.1-75.5-129.3
	c-15.6-9-30-12-41.9-9.8C823.2,99.9,782.4,47.7,735.9,20.8C698-1.2,664-1.9,641,14.7L576.2,52l34.4,25.3c-0.5,4.4-0.7,8.8-0.6,13.2
	c0,2.4,0.1,4.9,0.2,7.3c-44.1-7.9-75.6,21.4-75.6,77.3c0,70.9,50.7,157.8,113.3,194l273.5,158.4l17.1,56.9l71.6-41l0,0
	C1027.2,532.9,1037.9,511.3,1037.9,480.7z"/>
<linearGradient id="SVGID_1_" gradientUnits="userSpaceOnUse" x1="1111.4829" y1="-142.6128" x2="993.7099" y2="-297.6573" gradientTransform="matrix(1 0 0 1 -168.2 471.43)">
	<stop  offset="0" style="stop-color:#09264A"/>
	<stop  offset="1" style="stop-color:#CED4DB"/>
</linearGradient>
<path class="st1" d="M887.7,362.3l69.8-40.6l-0.2-0.2c3.2-7.7,5-17.1,5-27.9c0-47.3-33.8-105.1-75.5-129.3c-15.6-9-30-12-41.9-9.9
	c-0.1-0.1-0.1-0.3-0.2-0.3L775,194.8L887.7,362.3z"/>
<linearGradient id="SVGID_00000008134683504746646980000015005446669505555858_" gradientUnits="userSpaceOnUse" x1="1182.8802" y1="64.2128" x2="1059.5486" y2="-98.1329" gradientTransform="matrix(1 0 0 1 -168.2 471.43)">
	<stop  offset="0" style="stop-color:#09264A"/>
	<stop  offset="1" style="stop-color:#CED4DB"/>
</linearGradient>
<path style="fill-rule:evenodd;clip-rule:evenodd;fill:url(#SVGID_00000008134683504746646980000015005446669505555858_);" d="
	M938.5,583.5l71.6-41c17.2-10.5,27.8-32.1,27.8-62.7c0-55.1-34.5-121.1-80.4-158.2l-94.1,54.8l50.8,145.9l7.2,4.2L938.5,583.5z"/>
<linearGradient id="SVGID_00000134933981127672143200000004988704661335153051_" gradientUnits="userSpaceOnUse" x1="955.2315" y1="-277.3344" x2="818.9545" y2="-456.7307" gradientTransform="matrix(1 0 0 1 -168.2 471.43)">
	<stop  offset="0" style="stop-color:#09264A"/>
	<stop  offset="1" style="stop-color:#CED4DB"/>
</linearGradient>
<path style="fill-rule:evenodd;clip-rule:evenodd;fill:url(#SVGID_00000134933981127672143200000004988704661335153051_);" d="
	M844.8,154.4c-21.8-55.5-62.4-107.6-109-134.6C698-2.1,664-2.8,641,13.8l-64.8,37.3l34.4,25.3c-0.5,4.4-0.7,8.8-0.6,13.2
	c0,1.4,0,2.9,0.1,4.3L728,219.8L844.8,154.4z"/>
<path class="st4" d="M886.8,363.2c3.2-7.7,5-17.1,5-27.9c0-47.3-33.8-105.1-75.5-129.3c-15.5-9-30-12-41.9-9.8
	C752.7,140.9,712,88.6,665.4,61.6c-69.4-40.3-125.9-9-125.9,69.8c0,2.4,0.1,4.9,0.2,7.3c-44.1-7.9-75.6,21.4-75.6,77.3
	c0,70.9,50.7,157.8,113.3,194l289.4,167.5c55.6,32.2,100.6,7.2,100.6-55.8C967.2,466.4,932.6,400.4,886.8,363.2z"/>
<path class="st5" d="M719.9,107c0.2-0.4,0.4-0.8,0.6-1.1c-16.8-18.8-35.4-34.6-54.5-45.6C644.5,48,623.8,42,605.4,42.6
	c0,1-0.1,2-0.1,3c17.9-0.7,38.1,5.2,59.2,17.4c19,11,37.4,26.6,54,45.2C718.8,107.7,719.3,107.3,719.9,107z"/>
<path class="st5" d="M773.4,197.9l1.2-0.2c12.1-2.2,26.2,1.1,40.9,9.6c9.7,5.8,18.6,12.8,26.4,20.8c0.4-0.9,1.3-1.6,2.3-1.9
	c-8.1-8.3-17.2-15.5-27.2-21.4c-14.8-8.6-29.2-12.1-41.6-10.2c-5.5-13.7-12-27-19.5-39.8c-0.6,0.8-1.5,1.3-2.5,1.6
	c7.5,13,14.1,26.5,19.6,40.4L773.4,197.9z"/>
<path class="st5" d="M957.5,562c0.5,0.2,1.1,0.4,1.5,0.7c0.5,0,0.9,0.2,1.3,0.4c5.6-11.3,8.5-25.3,8.5-41.4
	c0-54.2-33.7-120.8-80.2-158.9c3.1-7.9,4.7-17.1,4.7-27.5c0-16.8-4.3-35-11.6-52.5c-0.9,0.4-1.9,0.7-2.9,0.7
	c7.3,17.3,11.5,35.2,11.5,51.8c0,10.4-1.7,19.6-4.9,27.4l-0.4,1l0.9,0.7c46.4,37.4,80,103.6,80,157.2
	C965.8,537.4,962.9,551.1,957.5,562z"/>
<path class="st6" d="M1037.9,480.7c0-55.2-34.6-121.3-80.6-158.4c3.2-7.7,5-17.1,5-27.9c0-47.3-33.8-105.1-75.5-129.3
	c-15.6-9-30-12-41.9-9.8C823.2,99.9,782.4,47.7,735.9,20.8C698-1.2,664-1.9,641,14.7l-64.1,36.9c-23.1,12.5-37.4,40.1-37.4,79.8
	c0,2.4,0.1,4.9,0.2,7.3c-44.1-7.9-75.6,21.4-75.6,77.3c0,70.9,50.7,157.8,113.3,194l289.4,167.5c31,17.9,58.6,18.1,77.1,3.9l66.3-38
	l0,0C1027.2,532.9,1037.9,511.3,1037.9,480.7z"/>
<path class="st4" d="M679.4,423.7c-2.7,15.5-2.7,32.7,0,51.3l-27.8,2.2c-1.6-0.2-3.2,0.8-3.7,2.3c-0.7,1.8-0.8,3.8-0.4,5.7
	c7.5,30.2,19.6,60.2,36.5,89.9c1.2,2.1,2.8,4,4.7,5.6c1.4,1.4,3.3,2.2,5.3,2.3l27.8-2.2c11.7,17.7,25.3,34.2,40.4,49.1v35.9
	c0,2.3,0.6,4.5,1.8,6.4c1,2.2,2.5,4.2,4.3,5.7c24.3,19.9,48.5,34,72.8,42.2c1.5,0.6,3.2,0.2,4.3-0.8c1.2-1.2,1.7-2.9,1.6-4.6V679
	c15.1,2.8,28.5,2.1,40.4-2.3l27.8,34.4c1.3,1.8,3.2,3.1,5.3,3.7c1.5,0.5,3.2,0.3,4.7-0.4c16.7-10.4,28.9-26.2,36.5-47.8
	c0.4-2,0.2-4.1-0.4-6.1c-0.7-2.4-2-4.6-3.7-6.4l-27.4-34.5c2.7-15.5,2.7-32.7,0-51.3l27.8-2.2c1.6,0.1,3.1-0.8,3.7-2.3
	c0.7-1.8,0.8-3.8,0.4-5.7c-7.5-30.2-19.6-60.2-36.5-89.9c-1.2-2.1-2.8-4-4.7-5.6c-1.4-1.4-3.3-2.2-5.3-2.3l-27.8,2.2
	c-11.7-17.8-25.2-34.2-40.4-49.1v-35.9c-0.1-2.2-0.7-4.4-1.6-6.4c-1-2.2-2.5-4.2-4.3-5.7c-24.3-19.9-48.6-34-72.8-42.2
	c-1.5-0.7-3.2-0.4-4.3,0.8c-1.2,1.2-1.8,2.9-1.8,4.6v35.9c-15.1-2.8-28.5-2.1-40.4,2.3l-28.1-34.4c-1.3-1.7-3.2-3-5.3-3.7
	c-1.5-0.6-3.2-0.5-4.7,0.4c-16.7,10.4-28.9,26.2-36.5,47.8c-0.5,2-0.3,4.1,0.4,6.1c0.7,2.4,2,4.6,3.7,6.4L679.4,423.7z M751.7,491
	c0-16.1,5.1-26.9,15.5-32.4c10.4-5.5,22.8-4,37.5,4.4s27.1,21.4,37.5,38.9c10.4,17.5,15.5,34.2,15.5,50.5s-5.1,26.9-15.5,32.4
	s-22.8,4-37.5-4.4c-14.7-8.4-27.1-21.4-37.5-38.9S751.7,507.2,751.7,491z"/>
<linearGradient id="SVGID_00000000191288949590464150000008431989106475000202_" gradientUnits="userSpaceOnUse" x1="866.337" y1="-270.2186" x2="942.2217" y2="-138.774" gradientTransform="matrix(1 0 0 1 -168.2 763.43)">
	<stop  offset="0" style="stop-color:#09264A"/>
	<stop  offset="1" style="stop-color:#CED4DB"/>
</linearGradient>
<path style="fill-rule:evenodd;clip-rule:evenodd;fill:url(#SVGID_00000000191288949590464150000008431989106475000202_);" d="
	M815.1,600.9l-76.5,35.7L657,516.9l81.1-40.2l29.1,64.8L815.1,600.9z"/>
<polygon class="st8" points="866,605.1 897.2,603 929.9,583.3 930.1,619.9 866,656.4 868,634 "/>
<path class="st8" d="M782.4,408.4l64.3-37c0,0,2.3,41.4,0.7,42.1c-1.6,0.7-63,37.6-63,37.6L782.4,408.4z"/>
<path class="st8" d="M863.4,750.4l73.2-44.1l17.8-22.5l6.6-24.5l-86.9,48.9L863.4,750.4z"/>
<path class="st4" d="M861.1,659.2l68.5-39.6l29.6,40.3l-73.3,42.2L861.1,659.2z"/>
<path class="st8" d="M782.2,755.8l55.8-32.1l-5.7-13.7c0,0-27.1-28.2-30.2-22.9c-3,5.3-24.8,27-24.8,27l-9.1,13.8L782.2,755.8z"/>
<path class="st8" d="M585.7,514.5l36.6-21.3l8.9,52.2l-40-21.5L585.7,514.5z"/>
<path class="st4" d="M615.6,460.4c-2.7,15.5-2.7,32.7,0,51.3l-27.8,2.2c-1.6-0.2-3.2,0.8-3.7,2.3c-0.7,1.8-0.8,3.8-0.4,5.7
	c7.5,30.2,19.6,60.2,36.5,89.9c1.2,2.1,2.8,4,4.7,5.6c1.4,1.4,3.3,2.2,5.3,2.3l27.8-2.2c11.7,17.7,25.3,34.2,40.4,49.1v35.9
	c0,2.2,0.6,4.5,1.6,6.4c1,2.2,2.5,4.2,4.3,5.7c24.3,20,48.5,34,72.8,42.2c1.5,0.6,3.2,0.2,4.3-0.8c1.1-1.2,1.8-2.9,1.8-4.6v-35.9
	c15.1,2.8,28.5,2.1,40.4-2.3l27.8,34.4c1.3,1.8,3.2,3.1,5.3,3.7c1.5,0.6,3.2,0.5,4.7-0.4c16.7-10.4,28.9-26.2,36.5-47.8
	c0.4-2,0.2-4.1-0.4-6.1c-0.7-2.4-2-4.6-3.7-6.4L866,656.4c2.7-15.5,2.7-32.7,0-51.3l27.8-2.2c1.6,0.1,3.1-0.8,3.7-2.3
	c0.7-1.8,0.8-3.8,0.4-5.7c-7.5-30.2-19.6-60.2-36.5-89.9c-1.2-2.1-2.8-4-4.7-5.6c-1.4-1.4-3.3-2.2-5.3-2.3l-27.8,2.2
	c-11.7-17.8-25.2-34.2-40.4-49.1v-35.9c-0.1-2.2-0.7-4.4-1.8-6.4c-1-2.2-2.5-4.2-4.3-5.7c-24.3-19.9-48.6-34-72.8-42.2
	c-1.5-0.7-3.2-0.4-4.3,0.8c-1.2,1.2-1.8,2.9-1.6,4.6v35.9c-15.1-2.8-28.5-2.1-40.4,2.3L630,369.2c-1.3-1.7-3.2-3-5.3-3.7
	c-1.5-0.6-3.2-0.5-4.7,0.4c-16.7,10.4-28.9,26.2-36.5,47.8c-0.5,2-0.3,4.1,0.4,6.1c0.7,2.4,2,4.6,3.7,6.4L615.6,460.4z M688,527.9
	c0-16.1,5.1-26.9,15.5-32.4c10.4-5.5,22.8-4,37.5,4.4c14.7,8.4,27.1,21.4,37.5,38.9c10.4,17.5,15.5,34.2,15.5,50.5
	c0,16.2-5.1,26.9-15.5,32.4c-10.4,5.5-22.8,4-37.5-4.4c-14.7-8.4-27.1-21.4-37.5-38.9S688,544,688,527.9z"/>
<path class="st4" d="M384,208.1l14.9,2.1l38.1-21l43.2,23.9l11,21.1l4.7,38.2c0,0,36.4,50.1,37.1,50.9c0.6,0.8-24.1,49.8-24.1,49.8
	l-62.1-71.8c0,0-66.3-49.3-67.3-49.7s-7.3-33.2-7.3-33.2L384,208.1z"/>
<path class="st5" d="M863,504.4c-1.2-2.3-2.9-4.3-4.9-6c-1.7-1.6-4-2.6-6.3-2.7h-0.2l-26.9,2.2c-11.4-17.4-24.7-33.5-39.6-48v-35.3
	c-0.1-2.4-0.7-4.8-1.8-7c-1.1-2.4-2.7-4.6-4.7-6.3c-24.3-20-49.1-34.2-73.3-42.3c-2-0.8-4.4-0.4-6,1.2c-1.4,1.5-2.2,3.5-2.1,5.6
	v33.9c-14.1-2.3-27-1.6-38.5,2.3l-24.1-29.8c-0.4,0.9-1.2,1.7-2.1,2.1l24.7,30.4c0.4,0.5,1.1,0.7,1.8,0.5c11.7-4.2,24.9-5,39.6-2.2
	c0.4,0.1,0.8-0.1,1.2-0.4c0.2-0.4,0.4-0.8,0.5-1.2v-36c-0.2-1.2,0.3-2.5,1.2-3.4c0.7-0.8,1.9-1,2.8-0.5
	c24.1,8.1,48.4,22.1,72.4,41.8c1.7,1.5,3.1,3.3,4,5.4c0.9,1.8,1.4,3.7,1.5,5.7v35.9c0,0.4,0.2,0.8,0.5,1.1
	c15.2,14.7,28.8,31,40.3,48.7c0.3,0.5,0.8,0.7,1.4,0.7l27.6-2.1c1.6,0.1,3.2,0.8,4.3,2c1.7,1.5,3.2,3.2,4.3,5.1
	c3.8,6.9,7.4,13.8,10.9,20.7c0.6-0.8,1.5-1.4,2.6-1.5C870.3,518,866.7,511.1,863,504.4z"/>
<path class="st5" d="M612.5,492.1c0.2,6,0.8,12.2,1.6,18.6l-26.1,2.1c-2.2-0.3-4.4,1.1-5,3.3c-0.8,2.1-0.9,4.4-0.4,6.5
	c0.6,2.3,1.2,4.6,1.8,6.9c1,0.1,2,0.2,3,0.3c-0.8-2.7-1.5-5.5-2.2-8.2c-0.5-1.6-0.3-3.3,0.4-4.8c0.2-0.9,1.2-1.5,2.1-1.3h0.4
	l27.8-2.2c0.8-0.1,1.4-0.8,1.4-1.6c-0.9-6.7-1.5-13.2-1.8-19.5C614.6,492.2,613.6,492.1,612.5,492.1z"/>
<path class="st5" d="M825.1,712.5c-0.4-0.5-1.1-0.7-1.8-0.5c-11.7,4.2-24.9,5-39.6,2.2c-0.4-0.1-0.9,0-1.2,0.4
	c-0.3,0.3-0.5,0.7-0.5,1.2v27.5c0.5-0.3,1.1-0.5,1.8-0.4h1.1v-25.6c14,2.3,27,1.6,38.5-2.3l4.6,5.7c0.3-1,1.1-1.9,2.1-2.2
	L825.1,712.5z"/>
<path class="st5" d="M895.2,690.1l-27.5-33.9c2.5-15.1,2.5-31.7,0.1-49.6l26.1-2.1c2.2,0.2,4.3-1.1,5-3.3c0.8-2.1,0.9-4.4,0.4-6.5
	c-1.9-7.8-4.2-15.5-6.8-23.4c-0.9,0.5-1.9,0.7-2.9,0.6c2.6,7.8,4.9,15.5,6.8,23.4c0.4,1.6,0.2,3.3-0.4,4.8c-0.3,0.9-1.2,1.4-2.1,1.3
	h-0.4l-27.8,2.2c-0.4,0-0.8,0.2-1.1,0.6c-0.3,0.2-0.5,0.7-0.4,1.1c2.6,18.4,2.6,35.5,0,50.8c-0.1,0.4,0,0.9,0.4,1.2l27.9,34.5
	c1.5,1.7,2.6,3.8,3.3,6c0.6,1.7,0.7,3.4,0.4,5.1c-3.1,8.9-7.3,17.3-12.6,25.1c1,0,2,0.5,2.8,1.2c5.4-7.8,9.7-16.4,12.7-25.4
	c0-0.1,0-0.1,0.1-0.2c0.5-2.3,0.4-4.6-0.4-6.8C898.3,694.3,897,692,895.2,690.1z"/>
<path class="st5" d="M692.9,550.9c-2.3-7.5-3.5-15.2-3.5-23c0-15.4,5-25.9,14.7-31.1c9.7-5.1,22-3.7,36,4.4l3.2,2
	c0-0.1,0.1-0.2,0.1-0.4c-0.1-1,0.1-1.9,0.7-2.7l-2.5-1.5c-15-8.6-28.2-10.2-38.9-4.4c-10.8,5.7-16.4,17.1-16.4,33.7l0,0
	c0,8.1,1.2,16.1,3.6,23.8C690.9,551.2,691.9,550.9,692.9,550.9z"/>
<path class="st5" d="M795.5,588.8c-1,0.4-2,0.5-3,0.4c0,15.4-5,25.9-14.7,31.1c-9.7,5.1-22,3.7-36-4.4c-12.3-7.1-23-17.5-32.4-31.2
	c-0.8,0.7-1.8,1.2-2.8,1.3c9.6,14.3,20.8,25.1,33.5,32.5c9.1,5.1,17.4,7.8,25,7.8c4.8,0,9.6-1.2,13.9-3.4
	c10.9-5.7,16.4-17.1,16.4-33.7C795.5,589.1,795.5,589,795.5,588.8z"/>
<path class="st9" d="M957.9,654.2l-27.8-34.4c2-12.4,2.5-24.9,1.5-37.4l29.5-17.4l0.6-1.1c0.7-1.8,0.8-3.8,0.4-5.7
	c-7.5-30.2-19.6-60.2-36.5-89.9c-1.2-2.1-2.8-4-4.7-5.6c-1.4-1.4-3.3-2.2-5.3-2.3l-27.8,2.2c-11.7-17.8-25.2-34.2-40.4-49.1v-35.9
	c-0.1-2.2-0.7-4.4-1.8-6.4c-1-2.2-2.5-4.2-4.3-5.7c-24.3-20.1-48.6-34.2-72.8-42.2c-1.5-0.7-3.2-0.4-4.3,0.8L712,354.4l-17.9-22
	c-1.3-1.7-3.2-3-5.3-3.7c-1.5-0.6-3.1-0.5-4.6,0.2l-63.7,36.9l0,0c-16.7,10.4-28.9,26.2-36.5,47.8c-0.5,2-0.3,4.1,0.4,6.1
	c0.7,2.4,2,4.6,3.7,6.4l27.8,34.4c-2,12.4-2.5,25-1.5,37.5L586,514.7c-0.7,0.3-1.3,1-1.5,1.8c-0.7,1.8-0.8,3.8-0.4,5.7
	c7.5,30.2,19.6,60.2,36.5,89.9c1.2,2.1,2.8,4,4.7,5.6c1.4,1.4,3.3,2.2,5.3,2.3l27.8-2.2c11.7,17.7,25.3,34.2,40.4,49.1v35.9
	c0,2.3,0.6,4.5,1.8,6.4c1,2.2,2.5,4.2,4.3,5.7c24.3,19.9,48.5,34,72.8,42.2c1.5,0.6,3.2,0.2,4.3-0.8l0.4-0.4l51.8-29.9l17.8,22
	c1.3,1.8,3.2,3.1,5.3,3.7c1.5,0.6,3.2,0.5,4.7-0.4l1.8-1.1l65.5-38c15-10.4,26.1-25.5,33-45.6c0.4-2,0.2-4.1-0.4-6.1
	C960.7,658.3,959.5,656.2,957.9,654.2z M778.4,538.7c6.5,11.2,11.2,22,13.6,32.6c-9.9-8.5-18.2-18.6-24.8-29.9
	c-6.7-11.2-11.2-22-13.6-32.6C763.5,517.3,771.9,527.4,778.4,538.7z"/>
<path class="st4" d="M377.8,258c-1.8,11.5-1.8,23.2,0,34.7l-18.9,1.5c-1.1-0.1-2.2,0.5-2.5,1.6c-0.5,1.2-0.6,2.5-0.2,3.8
	c5.4,21.3,13.7,41.8,24.7,60.9c0.8,1.4,1.9,2.7,3.1,3.8c1,0.9,2.3,1.5,3.6,1.6l18.9-1.5c7.9,12,17.1,23.1,27.4,33.2v24.3
	c0,1.5,0.4,3,1.1,4.4c0.7,1.5,1.7,2.8,2.9,3.9c16.5,13.5,32.9,23,49.4,28.5c1,0.4,2.1,0.2,2.9-0.5c0.8-0.8,1.2-2,1.1-3.1v-24.3
	c10.2,1.9,19.3,1.4,27.4-1.5l18.9,23.3c0.9,1.2,2.2,2.1,3.6,2.6c1,0.4,2.1,0.3,3.1-0.2c11.4-7,19.6-17.8,24.7-32.4
	c0.3-1.4,0.2-2.8-0.2-4.1c-0.5-1.6-1.3-3.1-2.5-4.4l-18.8-23.3c1.8-11.5,1.8-23.2,0-34.7l18.9-1.5c1.1,0.1,2.1-0.6,2.5-1.6
	c0.4-1.2,0.5-2.5,0.2-3.8c-5.4-21.3-13.7-41.8-24.7-60.9c-0.8-1.4-1.9-2.7-3.1-3.8c-1-0.9-2.2-1.5-3.6-1.6l-18.9,1.5
	c-7.9-12-17.1-23.2-27.4-33.2v-24.3c0-1.5-0.4-3-1.1-4.4c-0.7-1.5-1.7-2.8-2.9-3.9c-16.5-13.5-32.9-23-49.4-28.5
	c-1-0.4-2.1-0.2-2.9,0.5c-0.8,0.8-1.2,2-1.1,3.1V218c-10.2-1.9-19.3-1.4-27.4,1.5l-18.9-23.3c-0.9-1.2-2.2-2.1-3.6-2.6
	c-1-0.4-2.2-0.4-3.1,0.2c-11.4,7-19.6,17.8-24.7,32.4c-0.3,1.4-0.2,2.8,0.2,4.1c0.5,1.6,1.3,3.1,2.5,4.4L377.8,258z M426.7,303.6
	c0-11,3.5-18.3,10.5-21.9c7-3.7,15.5-2.7,25.4,3c9.9,5.7,18.3,14.5,25.4,26.3c7.1,11.8,10.6,23.2,10.6,34.1s-3.5,18.2-10.5,21.9
	s-15.5,2.7-25.4-3s-18.3-14.5-25.4-26.3S426.7,314.5,426.7,303.6z"/>
<path class="st8" d="M511.5,476.1l42.7-26.4l14.9-32.8l-64,28.4L511.5,476.1z"/>
<path class="st4" d="M337.8,218.6l43.1-24.9l22.4,38.9c0,0-27.2,35.9-28.6,35.2s-29.1-10.5-29.1-10.5L337.8,218.6z"/>
<path class="st8" d="M361.2,246.3l32.4-18.7l13.2,25.4l-29.4,11.3l-15.5-16.9"/>
<path class="st8" d="M448.1,276.1l43.3-24.9l-1.1-28.7L447,247.4L448.1,276.1z"/>
<path class="st8" d="M504.2,415.7l43.3-24.9l0.9-27l-47.6,26.5l5.2,12.5"/>
<path class="st4" d="M498.4,420.4l48.4-28l20.8,26.9l-52.4,30.3L498.4,420.4z"/>
<linearGradient id="SVGID_00000080922880686976224930000011630055150740967347_" gradientUnits="userSpaceOnUse" x1="557.6737" y1="-455.6392" x2="608.1242" y2="-368.2684" gradientTransform="matrix(1 0 0 1 -168.2 763.43)">
	<stop  offset="0" style="stop-color:#09264A"/>
	<stop  offset="1" style="stop-color:#CED4DB"/>
</linearGradient>
<path style="fill-rule:evenodd;clip-rule:evenodd;fill:url(#SVGID_00000080922880686976224930000011630055150740967347_);" d="
	M474.5,375.2l-69.1,40L355,327.7l64.4-31.1L474.5,375.2z"/>
<path class="st8" d="M447.4,482.9l37.7-21.8l-3.9-9.3c0,0-18.4-19.1-20.5-15.5s-16.8,18.3-16.8,18.3l-6.1,9.3L447.4,482.9z"/>
<path class="st8" d="M314.3,319.5l24.8-14.3l6,35.4L318,326L314.3,319.5z"/>
<path class="st4" d="M334.6,282.9c-1.8,11.5-1.8,23.2,0,34.7l-18.9,1.5c-1.1-0.1-2.2,0.5-2.5,1.6c-0.5,1.2-0.6,2.5-0.2,3.8
	c5.4,21.3,13.7,41.8,24.7,60.9c0.8,1.4,1.9,2.7,3.1,3.8c1,0.9,2.3,1.5,3.6,1.6l18.9-1.5c7.9,12,17.1,23.1,27.4,33.2v24.3
	c0,1.5,0.4,3,1.1,4.4c0.7,1.5,1.7,2.8,2.9,3.9c16.5,13.5,32.9,23,49.4,28.5c1,0.4,2.1,0.2,2.9-0.5c0.8-0.8,1.2-2,1.1-3.1v-24.3
	c10.2,1.9,19.3,1.4,27.4-1.5l18.9,23.3c0.9,1.2,2.2,2.1,3.6,2.6c1,0.4,2.1,0.3,3.1-0.2c11.4-7,19.6-17.8,24.7-32.4
	c0.3-1.4,0.2-2.8-0.2-4.1c-0.5-1.6-1.3-3.1-2.5-4.4l-18.9-23.3c1.8-11.5,1.8-23.2,0-34.7l18.9-1.5c1.1,0.1,2.1-0.6,2.5-1.6
	c0.4-1.2,0.5-2.5,0.2-3.8c-5.4-21.3-13.7-41.8-24.7-60.9c-0.8-1.4-1.9-2.7-3.1-3.8c-1-0.9-2.2-1.5-3.6-1.6l-18.9,1.5
	c-7.9-12-17.1-23.2-27.4-33.2v-24.3c0-1.5-0.4-3-1.1-4.4c-0.7-1.5-1.7-2.8-2.9-3.9c-16.5-13.5-32.9-23-49.4-28.5
	c-1-0.4-2.1-0.2-2.9,0.5c-0.8,0.8-1.2,2-1.1,3.1v24.3c-10.2-1.9-19.3-1.4-27.4,1.5l-18.9-23.3c-0.9-1.2-2.2-2.1-3.6-2.6
	c-1-0.4-2.2-0.4-3.1,0.2c-11.4,7-19.6,17.8-24.7,32.4c-0.3,1.4-0.2,2.8,0.2,4.1c0.5,1.6,1.3,3.1,2.5,4.4L334.6,282.9z M383.6,328.5
	c0-11,3.5-18.3,10.5-21.9c7-3.7,15.5-2.7,25.4,3c9.9,5.7,18.3,14.5,25.4,26.3s10.6,23.2,10.6,34.1s-3.5,18.2-10.5,21.9
	s-15.5,2.7-25.4-3c-9.9-5.7-18.3-14.5-25.4-26.3S383.6,339.5,383.6,328.5z"/>
<path class="st5" d="M524.8,364.4c-5.5-18.1-13-35.6-22.3-52.1c-0.9-1.6-2-2.9-3.4-4.1c-1.2-1.2-2.8-1.9-4.5-2h-0.2l-18,1.4
	c-7.8-11.7-16.7-22.5-26.7-32.3v-23.7c-0.1-1.7-0.5-3.4-1.3-4.9c-0.8-1.7-1.9-3.2-3.3-4.5c-16.5-13.5-33.3-23.2-49.8-28.8
	c-1.6-0.6-3.4-0.3-4.6,0.9c-1.1,1.1-1.6,2.6-1.5,4.1v22.5c-9.3-1.5-17.8-1-25.4,1.6l-15-18.6l-0.6,0.7c-0.5,0.5-1.1,0.9-1.7,1.2
	l15.7,19.4c0.4,0.5,1.1,0.7,1.7,0.5c7.8-2.8,16.7-3.3,26.6-1.5c0.4,0.1,0.9,0,1.2-0.3c0.3-0.3,0.5-0.8,0.5-1.2v-24.4
	c0-0.7,0.2-1.3,0.6-1.9c0.4-0.3,0.9-0.4,1.4-0.2c16.2,5.5,32.7,15,48.9,28.2c1.1,0.9,2,2.1,2.6,3.5c0.5,1.2,0.9,2.4,1,3.7v24.3
	c0,0.4,0.2,0.8,0.5,1.1c10.2,9.9,19.4,21,27.2,32.9c0.3,0.4,0.8,0.7,1.4,0.7l18.7-1.5c1,0.1,1.9,0.5,2.6,1.2c1.1,1,2.1,2.1,2.8,3.4
	c9.3,16.3,16.7,33.6,22.1,51.6C522.8,364.8,523.8,364.5,524.8,364.4z"/>
<path class="st5" d="M476,453.4c-0.1-0.2-0.2-0.5-0.2-0.7h-0.7c-7.8,2.8-16.7,3.3-26.6,1.5c-0.4-0.1-0.9,0-1.2,0.3
	c-0.3,0.3-0.5,0.7-0.5,1.2v19.6l3-0.7v-17.1c9.3,1.5,17.8,1,25.4-1.6l0.5,0.6l0.4-0.7C475.8,455.1,475.7,454.2,476,453.4z"/>
<path class="st5" d="M527.1,443c-0.5-1.8-1.4-3.5-2.7-4.9L506,415.3c1-6.4,1.4-12.8,1.2-19.3H507c-0.7,0.3-1.5,0.5-2.3,0.5h-0.5
	c0.2,6.4-0.3,12.7-1.3,19c-0.1,0.4,0,0.9,0.3,1.2l18.9,23.4c1,1.1,1.7,2.5,2.2,3.9c0.3,1,0.4,2.1,0.2,3.2
	c-1.8,5.1-4.2,10.1-7.1,14.7l1.4,1.1l1.2,0.3c3-4.8,5.5-10,7.4-15.3c0-0.1,0-0.1,0.1-0.2C527.7,446.2,527.5,444.6,527.1,443z"/>
<path class="st5" d="M393.4,305.3c-7.5,4-11.3,11.8-11.3,23.3l0,0c0.1,8.1,1.8,16,5,23.4l1.2-0.5c0.4-0.5,0.9-0.8,1.4-1.1
	c-2.9-6.9-4.5-14.4-4.6-21.9c0-10.4,3.2-17.2,9.7-20.6s14.6-2.4,23.9,3l0,0c0.1-1,0.4-2,0.9-2.9
	C409.6,302.3,400.8,301.4,393.4,305.3z"/>
<path class="st5" d="M456.7,366h-3c0.1,1.3,0.1,2.5,0.1,3.8c0,10.4-3.2,17.2-9.7,20.6s-14.6,2.4-23.9-3c-3.8-2.2-7.3-4.8-10.5-7.8
	c-0.6,0.8-1.4,1.5-2.3,1.9l0,0c3.5,3.2,7.3,6.1,11.4,8.5c6.2,3.6,11.9,5.4,17.2,5.4c3.4,0,6.7-0.8,9.7-2.4
	c7.5-4,11.3-11.8,11.3-23.3L456.7,366z"/>
<path class="st9" d="M566.3,414.1l-18.8-23.3c1.3-8.4,1.7-16.9,1-25.3l19.9-11.8c0.2-0.2,0.3-0.4,0.4-0.7c0.4-1.2,0.5-2.5,0.2-3.8
	c-5.4-21.3-13.7-41.8-24.7-60.9c-0.8-1.4-1.9-2.7-3.1-3.8c-1-0.9-2.2-1.5-3.6-1.6l-18.9,1.5c-7.9-12-17.1-23.2-27.4-33.2v-24.3
	c0-1.5-0.4-3-1.1-4.4c-0.7-1.5-1.7-2.8-2.9-3.9c-16.5-13.5-32.9-23-49.4-28.5c-1-0.4-2.1-0.2-2.9,0.5l-35.3,20.6l-12.1-14.9
	c-0.9-1.2-2.2-2.1-3.6-2.6c-1-0.4-2.1-0.4-3.1,0.1l-43.2,24.9l0,0c-11.4,7-19.6,17.8-24.7,32.4c-0.3,1.4-0.2,2.8,0.2,4.1
	c0.5,1.6,1.3,3.1,2.5,4.4l18.9,23.3c-1.4,8.4-1.7,16.9-1,25.4l-19.3,11.2c-0.5,0.3-0.8,0.7-1,1.2c-0.5,1.2-0.6,2.5-0.2,3.8
	c5.4,21.3,13.7,41.8,24.7,60.9c0.8,1.4,1.9,2.7,3.1,3.8c1,0.9,2.3,1.5,3.6,1.6l18.9-1.5c7.9,12,17.1,23.1,27.4,33.2v24.3
	c0,1.5,0.4,3,1.1,4.4c0.7,1.5,1.7,2.8,2.9,3.9c16.5,13.5,32.9,23,49.4,28.5c1,0.4,2.1,0.2,2.9-0.5l0.3-0.2l35.1-20.2l12,14.8
	c0.9,1.2,2.2,2.1,3.6,2.6c1,0.4,2.1,0.3,3.1-0.2l1.2-0.8l44.3-25.7c10.2-7,17.6-17.3,22.3-30.8c0.3-1.4,0.2-2.8-0.2-4.1
	C568.3,416.9,567.4,415.4,566.3,414.1z"/>
<path class="st0" d="M454.8,359.5c-4.4-17.2-13.9-32.7-27.2-44.4c1.9,8.2,5.2,16,9.6,23.2C441.8,346.3,447.7,353.5,454.8,359.5"/>
<path class="st11" d="M235,709.3l67.3-73.4l86.4,36.9l-63.2,36.6L235,709.3L235,709.3z"/>
<path class="st11" d="M153.4,759.3l44.6-73.4l75,36.9l-63.2,36.6L153.4,759.3L153.4,759.3z"/>
<path class="st11" d="M69.5,807.1l21.9-73.4l63.7,36.9l-63.2,36.6L69.5,807.1L69.5,807.1z"/>
<polygon class="st12" points="171.5,391.2 235,391.2 235,712.7 171.5,678.7 "/>
<polygon class="st5" points="235,391.2 298.5,391.2 298.5,676.6 235,712.8 "/>
<path class="st4" d="M171.5,391l63.2-36.6l63.7,36.9l-63.2,36.6L171.5,391z"/>
<polygon class="st12" points="89.9,520.6 153.4,543.3 153.4,762.8 89.9,725.4 "/>
<polygon class="st5" points="153.4,525.3 216.9,525.3 216.9,726.6 153.4,762.8 "/>
<path class="st4" d="M89.8,525.1l63.2-36.6l63.7,36.9L153.5,562L89.8,525.1z"/>
<polygon class="st12" points="6,653.3 69.5,653.3 69.5,810.5 6,775.4 "/>
<polygon class="st5" points="69.5,657.1 133.1,657.1 133.1,774.3 69.5,810.5 "/>
<path class="st4" d="M5.9,656.9l63.2-36.6l63.7,36.9l-63.2,36.6L5.9,656.9z"/>
<path class="st0" d="M234.7,354.5l63.5,36.7l-0.2,282l-63.2,36.6l-0.7-0.4l-17.2-9.9v23.6l-63.7,36.7l-0.7-0.4l-19.6-11.3v22.7
	l-63.7,36.7L6,770.9V656.8l63-36.5l20.9,12.1V525.3l0,0l63.1-36.8l18.5,10.7v-108L234.7,354.5 M234.7,348.5c-1.1,0-2.1,0.3-3,0.8
	L168.5,386c-1.8,1.1-3,3.1-3,5.2v97.7l-9.5-5.5c-1.9-1.1-4.1-1.1-6,0L86.9,520c-1.9,1.1-3,3.1-3,5.2l0,0V622L72,615.2
	c-1.9-1.1-4.1-1.1-6,0L3,651.6c-1.9,1.1-3,3.1-3,5.2v114.1c0,2.1,1.1,4.1,3,5.2l63.2,36.5c1.9,1.1,4.1,1.1,6,0l63.7-36.7
	c1.9-1.1,3-3.1,3-5.2v-12.3l10.6,6.1l0.7,0.4c1.9,1.1,4.1,1.1,6,0l63.7-36.7c1.9-1.1,3-3.1,3-5.2v-13.2l8.2,4.7l0.7,0.4
	c1.9,1.1,4.1,1.1,6,0l63.2-36.6c1.9-1.1,3-3,3-5.2l0.2-282c0-2.1-1.1-4.1-3-5.2l-63.5-36.7C236.8,348.8,235.7,348.5,234.7,348.5
	L234.7,348.5z"/>
<path class="st13" d="M849.2,914.3L506,715.8c-4.8-2.8-12.8-2.6-18,0.4L268.6,844c-5.2,3-5.5,7.6-0.7,10.4l228.2,167.9l36.2,55.2
	l43.6-0.8h0.7c3.1-0.1,6.1-0.9,8.8-2.3l263.2-149.6C853.7,921.7,854,917,849.2,914.3z"/>
<path class="st5" d="M397.1,741l-18.6,10.8L197.4,856.4l-20.4-1.3v17.5l0.3,0.2c0.7,1.4,1.7,2.6,3.1,3.4l343.2,198.4
	c4.8,2.8,12.8,2.6,18-0.4l195-112.7l0,0l7-4c0.6-0.3,1.1-0.7,1.6-1.1l23.4-14L397.1,741z"/>
<polygon class="st12" points="180.1,849.2 531.3,1058.2 531.3,1077.5 177.3,872.9 "/>
<path class="st14" d="M397.1,741l-18.6,10.8L197.4,856.4l-20.4-1.3v17.5l0.3,0.2c0.7,1.4,1.7,2.6,3.1,3.4l343.2,198.4
	c4.8,2.8,12.8,2.6,18-0.4l195-112.7l0,0l7-4c0.6-0.3,1.1-0.7,1.6-1.1l23.4-14L397.1,741z"/>
<polygon class="st4" points="397.1,725.6 757.5,934.1 736.5,946.2 376.1,737.8 "/>
<path class="st4" d="M401.1,733.3l343.2,198.4c4.8,2.8,4.5,7.4-0.7,10.4l-202,116.8c-5.2,3-13.2,3.2-18,0.4L180.4,860.9
	c-4.8-2.8-4.5-7.4,0.7-10.4l202-116.8C388.2,730.8,396.3,730.6,401.1,733.3z"/>
<path class="st14" d="M660.4,952.1l-14.1-8.1l0,0c-1.8-0.9-3.9-0.8-5.6,0.1l-6.4,3.7l16.7,9.7c1.8,0.9,3.9,0.8,5.6-0.1l3.5-2
	C661.8,954.5,661.9,953,660.4,952.1z"/>
<path class="st15" d="M477.3,944.9l-100-57.8c-1.8-0.9-3.9-0.8-5.6,0.1L309.8,923c-1.6,0.9-1.7,2.4-0.2,3.3l100,57.8
	c1.8,0.9,3.9,0.8,5.6-0.1l61.9-35.8C478.7,947.2,478.8,945.7,477.3,944.9z"/>
<path class="st5" d="M768.5,903.1V666.8c0-6.3-3.9-13.6-8.6-16.3l-342.4-198c-2.1-1.2-4.1-1.3-5.6-0.5h-0.1l-11.6,6.6l8.8,19.9V737
	l359.7,205.9L768.5,903.1L768.5,903.1z"/>
<path class="st12" d="M766.4,658.2c-1.6-3.3-3.9-6.2-6.5-7.7l-342.4-198c-2.1-1.2-4.1-1.3-5.6-0.5h-0.1l-11.6,6.6l4.5,10.1
	l342.9,199.4L766.4,658.2z"/>
<path class="st4" d="M397.5,703.1l358.6,207.3v25.5L397.5,732.1V703.1z"/>
<path class="st4" d="M406.1,458.7l341.4,197.7c4.8,2.8,8.6,10.1,8.6,16.3v244.8c0,6.3-3.9,9.1-8.6,6.3L406.1,726.1
	c-4.8-2.8-8.6-10.1-8.6-16.3V465C397.5,458.7,401.4,455.9,406.1,458.7z"/>
<path class="st4" d="M404.3,466.3l347.3,200.8v256.1L404.3,722.4V466.3z"/>
<path class="st16" d="M427.5,509.4l33.6,19.4v192.5l-33.6-19.4V509.4z M494.6,548.2l33.6,19.4v192.5l-33.6-19.4V548.2z M561.7,587
	l33.6,19.4v192.5l-33.6-19.4V587z M628.8,625.8l33.6,19.4v192.5l-33.6-19.4V625.8z M696,664.6l33.6,19.4v192.5L696,857.1V664.6z"/>
<path class="st17" d="M427.5,654.4c1.7,1.2,2.7,3.1,2.7,5.1s-1.2,2.8-2.7,2c-1.7-1.2-2.7-3.1-2.7-5.1
	C424.8,654.5,426,653.6,427.5,654.4z"/>
<path class="st17" d="M494.9,651c1.7,1.2,2.7,3.1,2.7,5.1s-1.2,2.8-2.7,2c-1.7-1.2-2.7-3.1-2.7-5.1C492.2,651,493.4,650.1,494.9,651
	z"/>
<path class="st17" d="M561.8,746.2c1.7,1.2,2.7,3.1,2.7,5.1s-1.2,2.8-2.7,2c-1.7-1.2-2.7-3.1-2.7-5.1
	C559.1,746.3,560.3,745.4,561.8,746.2z"/>
<path class="st17" d="M628.7,749.5c1.7,1.2,2.7,3.1,2.7,5.1s-1.2,2.8-2.7,2c-1.7-1.2-2.7-3.1-2.7-5.1S627.2,748.7,628.7,749.5z"/>
<path class="st17" d="M696.1,703.6c1.7,1.2,2.7,3.1,2.7,5.1s-1.2,2.8-2.7,2c-1.7-1.2-2.7-3.1-2.7-5.1
	C693.4,703.6,694.6,702.7,696.1,703.6z"/>
<path class="st17" d="M427.4,659.2l-0.9-3.1l67.4-3.5l0.9,3.1L427.4,659.2z"/>
<path class="st17" d="M562.4,748.2l-1.2,1.7l-67.4-95.6l1.2-1.7L562.4,748.2z"/>
<path class="st17" d="M627.7,751.2l0.8,3.1l-67.4-3.6l-0.8-3.1L627.7,751.2z"/>
<path class="st17" d="M695.3,705l1.5,2.9l-67.9,46.3l-1.5-2.9L695.3,705z"/>
<path class="st18" d="M427.5,696.9c1.7,1.2,2.7,3.1,2.7,5.1s-1.2,2.8-2.7,2c-1.7-1.2-2.7-3.1-2.7-5.1S426,696,427.5,696.9z"/>
<path class="st18" d="M494.9,594.4c1.7,1.2,2.7,3.1,2.7,5.1s-1.2,2.8-2.7,2c-1.7-1.2-2.7-3.1-2.7-5.1
	C492.2,594.4,493.4,593.5,494.9,594.4z"/>
<path class="st18" d="M561.8,703.8c1.7,1.2,2.7,3.1,2.7,5.1s-1.2,2.8-2.7,2c-1.7-1.2-2.7-3.1-2.7-5.1S560.3,702.9,561.8,703.8z"/>
<path class="st18" d="M628.7,728.3c1.7,1.2,2.7,3.1,2.7,5.1s-1.2,2.8-2.7,2c-1.7-1.2-2.7-3.1-2.7-5.1S627.2,727.4,628.7,728.3z"/>
<path class="st18" d="M696.1,739c1.7,1.2,2.7,3.1,2.7,5.1s-1.2,2.8-2.7,2c-1.7-1.2-2.7-3.1-2.7-5.1C693.4,739,694.6,738.1,696.1,739
	z"/>
<path class="st18" d="M427.9,700.7l-1.8-2.6l67.4-101.8l1.8,2.6L427.9,700.7z"/>
<path class="st18" d="M561.9,705.6l-1.4,1.4l-66.9-109.4l1.4-1.4L561.9,705.6z"/>
<path class="st18" d="M629,729.9l0.4,3l-68-24.4l-0.4-3L629,729.9z"/>
<path class="st18" d="M696.9,741.3l0.7,3.1l-68.1-10.5l-0.7-3.1L696.9,741.3z"/>
<path class="st19" d="M427.5,640.3c1.7,1.2,2.7,3.1,2.7,5.1s-1.2,2.8-2.7,2c-1.7-1.2-2.7-3.1-2.7-5.1S426,639.4,427.5,640.3z"/>
<path class="st19" d="M494.9,622.7c1.7,1.2,2.7,3.1,2.7,5.1s-1.2,2.8-2.7,2c-1.7-1.2-2.7-3.1-2.7-5.1
	C492.2,622.7,493.4,621.8,494.9,622.7z"/>
<path class="st19" d="M561.8,668.4c1.7,1.2,2.7,3.1,2.7,5.1s-1.2,2.8-2.7,2c-1.7-1.2-2.7-3.1-2.7-5.1S560.3,667.5,561.8,668.4z"/>
<path class="st19" d="M628.7,671.7c1.7,1.2,2.7,3.1,2.7,5.1s-1.2,2.8-2.7,2c-1.7-1.2-2.7-3.1-2.7-5.1S627.2,670.8,628.7,671.7z"/>
<path class="st19" d="M696.1,682.4c1.7,1.2,2.7,3.1,2.7,5.1s-1.2,2.8-2.7,2c-1.7-1.2-2.7-3.1-2.7-5.1
	C693.4,682.4,694.6,681.5,696.1,682.4z"/>
<path class="st19" d="M428.1,644.6l-1.2-3.1l67.4-17.6l1.2,3.1L428.1,644.6z"/>
<path class="st19" d="M561.3,670.3l-0.2,2.7l-66.3-45.4l0.2-2.7L561.3,670.3z"/>
<path class="st19" d="M628.2,673l0.8,3.1l-66.3-2.3l-0.8-3.1L628.2,673z"/>
<path class="st19" d="M696.3,684l0.7,3.1l-67.4-10l-0.7-3.1L696.3,684z"/>
<path class="st8" d="M627.6,595.4l2.7,1.6v256.1l-2.7-1.6V595.4z"/>
<path class="st15" d="M402.7,759.5l14.1,8.1c1.8,0.9,3.9,0.8,5.6-0.1l5.8-3.4c1.6-0.9,1.7-2.4,0.2-3.3l-14.1-8.1
	c-1.8-0.9-3.9-0.8-5.6,0.1l-5.8,3.4C401.3,757.1,401.2,758.6,402.7,759.5z"/>
<path class="st15" d="M379.3,773l14.1,8.1c1.8,0.9,3.9,0.8,5.6-0.1l15.2-8.8c1.6-0.9,1.7-2.4,0.2-3.3l-14.1-8.1
	c-1.8-0.9-3.9-0.8-5.6,0.1l-15.2,8.8C377.9,770.6,377.8,772.1,379.3,773z"/>
<path class="st15" d="M356,786.5l24.9,14.4c1.8,0.9,3.9,0.8,5.6-0.1l15.2-8.8c1.6-0.9,1.7-2.4,0.2-3.3L377,774.3
	c-1.8-0.9-3.9-0.8-5.6,0.1l-15.2,8.8C354.6,784.1,354.5,785.6,356,786.5z"/>
<path class="st15" d="M424.3,772l14.1,8.1c1.8,0.9,3.9,0.8,5.6-0.1l5.8-3.4c1.6-0.9,1.7-2.4,0.2-3.3l-14.1-8.1
	c-1.8-0.9-3.9-0.8-5.6,0.1l-5.8,3.4C422.9,769.6,422.8,771.1,424.3,772z"/>
<path class="st15" d="M436,781.4l-14.1-8.1c-1.8-0.9-3.9-0.8-5.6,0.1l-15.2,8.8c-1.6,0.9-1.7,2.4-0.2,3.3l14.1,8.1
	c1.8,0.9,3.9,0.8,5.6-0.1l15.2-8.8C437.4,783.8,437.5,782.3,436,781.4z"/>
<path class="st15" d="M445.9,784.5l14,8.1c1.8,0.9,3.9,0.8,5.6-0.1l5.8-3.4c1.6-0.9,1.7-2.4,0.2-3.3l-14.1-8.1
	c-1.8-0.9-3.9-0.8-5.6,0.1l-5.8,3.4C444.5,782.1,444.4,783.6,445.9,784.5z"/>
<path class="st15" d="M457.6,793.9l-14.1-8.1c-1.8-0.9-3.9-0.8-5.6,0.1l-15.2,8.8c-1.6,0.9-1.7,2.4-0.2,3.3l14.1,8.1
	c1.8,0.9,3.9,0.8,5.6-0.1l15.2-8.8C459,796.3,459.1,794.8,457.6,793.9z"/>
<path class="st15" d="M467.5,797l14.1,8.1c1.8,0.9,3.9,0.8,5.6-0.1l5.8-3.4c1.6-0.9,1.7-2.4,0.2-3.3l-14.1-8.1
	c-1.8-0.9-3.9-0.8-5.6,0.1l-5.8,3.4C466.1,794.6,466,796.1,467.5,797z"/>
<path class="st15" d="M479.2,806.4l-14.1-8.1c-1.8-0.9-3.9-0.8-5.6,0.1l-15.2,8.8c-1.6,0.9-1.7,2.4-0.2,3.3l14.1,8.1
	c1.8,0.9,3.9,0.8,5.6-0.1l15.2-8.8C480.6,808.8,480.7,807.3,479.2,806.4z"/>
<path class="st15" d="M489.1,809.5l14.1,8.1c1.8,0.9,3.9,0.8,5.6-0.1l5.8-3.4c1.6-0.9,1.7-2.4,0.2-3.3l-14.1-8.1
	c-1.8-0.9-3.9-0.8-5.6,0.1l-5.8,3.4C487.7,807.1,487.6,808.6,489.1,809.5z"/>
<path class="st15" d="M500.8,818.9l-14.1-8.1c-1.8-0.9-3.9-0.8-5.6,0.1l-15.2,8.8c-1.6,0.9-1.7,2.4-0.2,3.3l14.1,8.1
	c1.8,0.9,3.9,0.8,5.6-0.1l15.2-8.8C502.2,821.3,502.3,819.8,500.8,818.9z"/>
<path class="st15" d="M510.7,822l14.1,8.1c1.8,0.9,3.9,0.8,5.6-0.1l5.8-3.4c1.6-0.9,1.7-2.4,0.2-3.3l-14.1-8.1
	c-1.8-0.9-3.9-0.8-5.6,0.1l-5.8,3.4C509.3,819.6,509.3,821.1,510.7,822z"/>
<path class="st15" d="M522.5,831.4l-14.1-8.1c-1.8-0.9-3.9-0.8-5.6,0.1l-15.2,8.8c-1.6,0.9-1.7,2.4-0.2,3.3l14.1,8.1
	c1.8,0.9,3.9,0.8,5.6-0.1l15.2-8.8C523.9,833.8,524,832.3,522.5,831.4z"/>
<path class="st15" d="M532.4,834.5l14.1,8.1c1.8,0.9,3.9,0.8,5.6-0.1l5.8-3.4c1.6-0.9,1.7-2.4,0.2-3.3l-14.1-8.1
	c-1.8-0.9-3.9-0.8-5.6,0.1l-5.8,3.4C531,832.1,530.9,833.6,532.4,834.5z"/>
<path class="st15" d="M544.1,843.9l-14.1-8.1c-1.8-0.9-3.9-0.8-5.6,0.1l-15.2,8.8c-1.6,0.9-1.7,2.4-0.2,3.3l14.1,8.1
	c1.8,0.9,3.9,0.8,5.6-0.1l15.2-8.8C545.5,846.3,545.6,844.8,544.1,843.9z"/>
<path class="st15" d="M554,847l14.1,8.1c1.8,0.9,3.9,0.8,5.6-0.1l5.8-3.4c1.6-0.9,1.7-2.4,0.2-3.3l-14.1-8.1
	c-1.8-0.9-3.9-0.8-5.6,0.1l-5.8,3.4C552.6,844.6,552.5,846.1,554,847z"/>
<path class="st15" d="M565.7,856.4l-14.1-8.1c-1.8-0.9-3.9-0.8-5.6,0.1l-15.2,8.8c-1.6,0.9-1.7,2.4-0.2,3.3l14.1,8.1
	c1.8,0.9,3.9,0.8,5.6-0.1l15.2-8.8C567.1,858.8,567.2,857.3,565.7,856.4z"/>
<path class="st15" d="M575.6,859.5l14,8.1c1.8,0.9,3.9,0.8,5.6-0.1l5.8-3.4c1.6-0.9,1.7-2.4,0.2-3.3l-14.1-8.1
	c-1.8-0.9-3.9-0.8-5.6,0.1l-5.8,3.4C574.2,857.1,574.1,858.6,575.6,859.5z"/>
<path class="st15" d="M587.3,868.9l-14.1-8.1c-1.8-0.9-3.9-0.8-5.6,0.1l-15.2,8.8c-1.6,0.9-1.7,2.4-0.2,3.3l14.1,8.1
	c1.8,0.9,3.9,0.8,5.6-0.1l15.2-8.8C588.7,871.3,588.8,869.8,587.3,868.9z"/>
<path class="st15" d="M597.2,872l14.1,8.1c1.8,0.9,3.9,0.8,5.6-0.1l5.8-3.4c1.6-0.9,1.7-2.4,0.2-3.3l-14.1-8.1
	c-1.8-0.9-3.9-0.8-5.6,0.1l-5.8,3.4C595.8,869.6,595.7,871.1,597.2,872z"/>
<path class="st15" d="M608.9,881.4l-14.1-8.1c-1.8-0.9-3.9-0.8-5.6,0.1l-15.2,8.8c-1.6,0.9-1.7,2.4-0.2,3.3l14.1,8.1
	c1.8,0.9,3.9,0.8,5.6-0.1l15.2-8.8C610.3,883.8,610.4,882.3,608.9,881.4z"/>
<path class="st15" d="M618.8,884.5l14.1,8.1c1.8,0.9,3.9,0.8,5.6-0.1l5.8-3.4c1.6-0.9,1.7-2.4,0.2-3.3l-14.1-8.1
	c-1.8-0.9-3.9-0.8-5.6,0.1l-5.8,3.4C617.4,882.1,617.3,883.6,618.8,884.5z"/>
<path class="st15" d="M630.5,893.9l-14.1-8.1c-1.8-0.9-3.9-0.8-5.6,0.1l-15.2,8.8c-1.6,0.9-1.7,2.4-0.2,3.3l14.1,8.1
	c1.8,0.9,3.9,0.8,5.6-0.1l15.2-8.8C631.9,896.3,632,894.8,630.5,893.9z"/>
<path class="st15" d="M640.4,897l14.1,8.1c1.8,0.9,3.9,0.8,5.6-0.1l5.8-3.4c1.6-0.9,1.7-2.4,0.2-3.3l-14.1-8.1
	c-1.8-0.9-3.9-0.8-5.6,0.1l-5.8,3.4C639,894.6,639,896.1,640.4,897z"/>
<path class="st15" d="M652.2,906.4l-14.1-8.1c-1.8-0.9-3.9-0.8-5.6,0.1l-15.2,8.8c-1.6,0.9-1.7,2.4-0.2,3.3l14.1,8.1
	c1.8,0.9,3.9,0.8,5.6-0.1l15.2-8.8C653.6,908.8,653.7,907.3,652.2,906.4z"/>
<path class="st15" d="M662.1,909.5l14.1,8.1c1.8,0.9,3.9,0.8,5.6-0.1l5.8-3.4c1.6-0.9,1.7-2.4,0.2-3.3l-14.1-8.1
	c-1.8-0.9-3.9-0.8-5.6,0.1l-5.8,3.4C660.7,907.1,660.6,908.6,662.1,909.5z"/>
<path class="st15" d="M695.4,931.4l-35.7-20.6c-1.8-0.9-3.9-0.8-5.6,0.1l-15.2,8.8c-1.6,0.9-1.7,2.4-0.2,3.3l35.7,20.6
	c1.8,0.9,3.9,0.8,5.6-0.1l15.2-8.8C696.8,933.8,696.9,932.3,695.4,931.4z"/>
<path class="st15" d="M709.4,923.3l-14.1-8.1c-1.8-0.9-3.9-0.8-5.6,0.1l-5.8,3.4c-1.6,0.9-1.7,2.4-0.2,3.3l14.1,8.1
	c1.8,0.9,3.9,0.8,5.6-0.1l5.8-3.4C710.8,925.7,710.9,924.2,709.4,923.3z"/>
<path class="st15" d="M388.4,805.2l14.1,8.1c1.8,0.9,3.9,0.8,5.6-0.1l15.2-8.8c1.6-0.9,1.7-2.4,0.2-3.3l-14.1-8.1
	c-1.8-0.9-3.9-0.8-5.6,0.1l-15.2,8.8C387,802.9,386.9,804.4,388.4,805.2z"/>
<path class="st15" d="M445.1,813.7l-14.1-8.1c-1.8-0.9-3.9-0.8-5.6,0.1l-15.2,8.8c-1.6,0.9-1.7,2.4-0.2,3.3l14.1,8.1
	c1.8,0.9,3.9,0.8,5.6-0.1l15.2-8.8C446.5,816,446.6,814.6,445.1,813.7z"/>
<path class="st15" d="M466.7,826.2l-14.1-8.1c-1.8-0.9-3.9-0.8-5.6,0.1l-15.2,8.8c-1.6,0.9-1.7,2.4-0.2,3.3l14.1,8.1
	c1.8,0.9,3.9,0.8,5.6-0.1l15.2-8.8C468.1,828.5,468.2,827.1,466.7,826.2z"/>
<path class="st15" d="M488.3,838.7l-14.1-8.1c-1.8-0.9-3.9-0.8-5.6,0.1l-15.2,8.8c-1.6,0.9-1.7,2.4-0.2,3.3l14.1,8.1
	c1.8,0.9,3.9,0.8,5.6-0.1l15.2-8.8C489.7,841,489.8,839.6,488.3,838.7z"/>
<path class="st15" d="M509.9,851.2l-14.1-8.1c-1.8-0.9-3.9-0.8-5.6,0.1L475,852c-1.6,0.9-1.7,2.4-0.2,3.3l14.1,8.1
	c1.8,0.9,3.9,0.8,5.6-0.1l15.2-8.8C511.3,853.5,511.4,852.1,509.9,851.2z"/>
<path class="st15" d="M531.5,863.7l-14.1-8.1c-1.8-0.9-3.9-0.8-5.6,0.1l-15.2,8.8c-1.6,0.9-1.7,2.4-0.2,3.3l14.1,8.1
	c1.8,0.9,3.9,0.8,5.6-0.1l15.2-8.8C532.9,866,533,864.6,531.5,863.7z"/>
<path class="st15" d="M553.2,876.2l-14.1-8.1c-1.8-0.9-3.9-0.8-5.6,0.1l-15.2,8.8c-1.6,0.9-1.7,2.4-0.2,3.3l14.1,8.1
	c1.8,0.9,3.9,0.8,5.6-0.1l15.2-8.8C554.6,878.5,554.6,877.1,553.2,876.2z"/>
<path class="st15" d="M574.8,888.7l-14.1-8.1c-1.8-0.9-3.9-0.8-5.6,0.1l-15.2,8.8c-1.6,0.9-1.7,2.4-0.2,3.3l14.1,8.1
	c1.8,0.9,3.9,0.8,5.6-0.1l15.2-8.8C576.2,891,576.3,889.6,574.8,888.7z"/>
<path class="st15" d="M561.3,905.2l14.1,8.1c1.8,0.9,3.9,0.8,5.6-0.1l15.2-8.8c1.6-0.9,1.7-2.4,0.2-3.3l-14.1-8.1
	c-1.8-0.9-3.9-0.8-5.6,0.1l-15.2,8.8C559.9,902.9,559.8,904.4,561.3,905.2z"/>
<path class="st15" d="M602.6,925.7l15.2-8.8c1.6-0.9,1.7-2.4,0.2-3.3l-14.1-8.1c-1.8-0.9-3.9-0.8-5.6,0.1l-15.2,8.8
	c-1.6,0.9-1.7,2.4-0.2,3.3l14.1,8.1C598.8,926.7,600.9,926.7,602.6,925.7z"/>
<path class="st15" d="M639.6,926.2l-14.1-8.1c-1.8-0.9-3.9-0.8-5.6,0.1l-15.2,8.8c-1.6,0.9-1.7,2.4-0.2,3.3l14.1,8.1
	c1.8,0.9,3.9,0.8,5.6-0.1l15.2-8.8C641,928.5,641.1,927.1,639.6,926.2z"/>
<path class="st15" d="M353.4,841.7l-14.1-8.1c-1.8-0.9-3.9-0.8-5.6,0.1l-15.2,8.8c-1.6,0.9-1.7,2.4-0.2,3.3l14.1,8.1
	c1.8,0.9,3.9,0.8,5.6-0.1l15.2-8.8C354.8,844,354.9,842.6,353.4,841.7z"/>
<path class="st15" d="M331.8,829.2l-24.9-14.4c-1.8-0.9-3.9-0.8-5.6,0.1l-15.2,8.8c-1.6,0.9-1.7,2.4-0.2,3.3l24.9,14.4
	c1.8,0.9,3.9,0.8,5.6-0.1l15.2-8.8C333.2,831.5,333.3,830.1,331.8,829.2z"/>
<path class="st15" d="M375,854.2l-14.1-8.1c-1.8-0.9-3.9-0.8-5.6,0.1l-15.2,8.8c-1.6,0.9-1.7,2.4-0.2,3.3l14.1,8.1
	c1.8,0.9,3.9,0.8,5.6-0.1l15.2-8.8C376.4,856.5,376.5,855.1,375,854.2z"/>
<path class="st15" d="M396.6,866.7l-14.1-8.1c-1.8-0.9-3.9-0.8-5.6,0.1l-15.2,8.8c-1.6,0.9-1.7,2.4-0.2,3.3l14.1,8.1
	c1.8,0.9,3.9,0.8,5.6-0.1l15.2-8.8C398,869,398.1,867.6,396.6,866.7z"/>
<path class="st15" d="M418.3,879.2l-14.1-8.1c-1.8-0.9-3.9-0.8-5.6,0.1l-15.2,8.8c-1.6,0.9-1.7,2.4-0.2,3.3l14,8.1
	c1.8,0.9,3.9,0.8,5.6-0.1l15.2-8.8C419.7,881.5,419.8,880.1,418.3,879.2z"/>
<path class="st15" d="M439.9,891.7l-14.1-8.1c-1.8-0.9-3.9-0.8-5.6,0.1l-15.2,8.8c-1.6,0.9-1.7,2.4-0.2,3.3l14.1,8.1
	c1.8,0.9,3.9,0.8,5.6-0.1l15.2-8.8C441.3,894,441.4,892.6,439.9,891.7z"/>
<path class="st15" d="M461.5,904.2l-14.1-8.1c-1.8-0.9-3.9-0.8-5.6,0.1l-15.2,8.8c-1.6,0.9-1.7,2.4-0.2,3.3l14.1,8.1
	c1.8,0.9,3.9,0.8,5.6-0.1l15.2-8.8C462.9,906.5,463,905.1,461.5,904.2z"/>
<path class="st15" d="M483.1,916.7l-14.1-8.1c-1.8-0.9-3.9-0.8-5.6,0.1l-15.2,8.8c-1.6,0.9-1.7,2.4-0.2,3.3l14.1,8.1
	c1.8,0.9,3.9,0.8,5.6-0.1l15.2-8.8C484.5,919,484.6,917.6,483.1,916.7z"/>
<path class="st15" d="M504.7,929.2l-14.1-8.1c-1.8-0.9-3.9-0.8-5.6,0.1l-15.2,8.8c-1.6,0.9-1.7,2.4-0.2,3.3l14.1,8.1
	c1.8,0.9,3.9,0.8,5.6-0.1l15.2-8.8C506.1,931.5,506.2,930.1,504.7,929.2z"/>
<path class="st15" d="M526.4,941.7l-14.1-8.1c-1.8-0.9-3.9-0.8-5.6,0.1l-15.2,8.8c-1.6,0.9-1.7,2.4-0.2,3.3l14.1,8.1
	c1.8,0.9,3.9,0.8,5.6-0.1l15.2-8.8C527.7,944,527.8,942.6,526.4,941.7z"/>
<path class="st15" d="M548,954.2l-14.1-8.1c-1.8-0.9-3.9-0.8-5.6,0.1l-15.2,8.8c-1.6,0.9-1.7,2.4-0.2,3.3l14.1,8.1
	c1.8,0.9,3.9,0.8,5.6-0.1l15.2-8.8C549.4,956.5,549.5,955.1,548,954.2z"/>
<path class="st15" d="M569.6,966.7l-14.1-8.1c-1.8-0.9-3.9-0.8-5.6,0.1l-15.2,8.8c-1.6,0.9-1.7,2.4-0.2,3.3l14.1,8.1
	c1.8,0.9,3.9,0.8,5.6-0.1l15.2-8.8C571,969,571.1,967.6,569.6,966.7z"/>
<path class="st15" d="M602,985.4L577.1,971c-1.8-0.9-3.9-0.8-5.6,0.1l-15.2,8.8c-1.6,0.9-1.7,2.4-0.2,3.3l24.9,14.4
	c1.8,0.9,3.9,0.8,5.6-0.1l15.2-8.8C603.4,987.8,603.5,986.3,602,985.4z"/>
<path class="st15" d="M672.1,944.9l-24.9-14.4c-1.8-0.9-3.9-0.8-5.6,0.1l-15.2,8.8c-1.6,0.9-1.7,2.4-0.2,3.3l8.1,4.7l-20.4,11.8
	c-1.6,0.9-1.7,2.4-0.2,3.3l14.1,8.1c1.8,0.9,3.9,0.8,5.6-0.1l26.8-15.5l0,0l11.7-6.7C673.5,947.3,673.5,945.8,672.1,944.9z"/>
<path class="st15" d="M332.6,800l35.7,20.6c1.8,0.9,3.9,0.8,5.6-0.1l15.2-8.8c1.6-0.9,1.7-2.4,0.2-3.3l-35.7-20.6
	c-1.8-0.9-3.9-0.8-5.6,0.1l-15.2,8.8C331.2,797.7,331.1,799.1,332.6,800z"/>
<path class="st15" d="M375.9,825l14.1,8.1c1.8,0.9,3.9,0.8,5.6-0.1l15.2-8.8c1.6-0.9,1.7-2.4,0.2-3.3l-14.1-8.1
	c-1.8-0.9-3.9-0.8-5.6,0.1l-15.2,8.8C374.5,822.7,374.4,824.1,375.9,825z"/>
<path class="st15" d="M397.5,837.5l14.1,8.1c1.8,0.9,3.9,0.8,5.6-0.1l15.2-8.8c1.6-0.9,1.7-2.4,0.2-3.3l-14.1-8.1
	c-1.8-0.9-3.9-0.8-5.6,0.1l-15.2,8.8C396.1,835.2,396,836.6,397.5,837.5z"/>
<path class="st15" d="M419.1,850l14.1,8.1c1.8,0.9,3.9,0.8,5.6-0.1l15.2-8.8c1.6-0.9,1.7-2.4,0.2-3.3l-14.1-8.1
	c-1.8-0.9-3.9-0.8-5.6,0.1l-15.2,8.8C417.7,847.6,417.6,849.1,419.1,850z"/>
<path class="st15" d="M440.7,862.5l14.1,8.1c1.8,0.9,3.9,0.8,5.6-0.1l15.2-8.8c1.6-0.9,1.7-2.4,0.2-3.3l-14.1-8.1
	c-1.8-0.9-3.9-0.8-5.6,0.1l-15.2,8.8C439.3,860.1,439.2,861.6,440.7,862.5z"/>
<path class="st15" d="M462.3,875l14.1,8.1c1.8,0.9,3.9,0.8,5.6-0.1l15.2-8.8c1.6-0.9,1.7-2.4,0.2-3.3l-14.1-8.1
	c-1.8-0.9-3.9-0.8-5.6,0.1l-15.2,8.8C460.9,872.7,460.8,874.1,462.3,875z"/>
<path class="st15" d="M483.9,887.5l14.1,8.1c1.8,0.9,3.9,0.8,5.6-0.1l15.2-8.8c1.6-0.9,1.7-2.4,0.2-3.3l-14-8.1
	c-1.8-0.9-3.9-0.8-5.6,0.1l-15.2,8.8C482.5,885.1,482.4,886.6,483.9,887.5z"/>
<path class="st15" d="M505.6,900l14.1,8.1c1.8,0.9,3.9,0.8,5.6-0.1l15.2-8.8c1.6-0.9,1.7-2.4,0.2-3.3l-14.1-8.1
	c-1.8-0.9-3.9-0.8-5.6,0.1l-15.2,8.8C504.2,897.6,504.1,899.1,505.6,900z"/>
<path class="st15" d="M527.2,912.5l14.1,8.1c1.8,0.9,3.9,0.8,5.6-0.1l15.2-8.8c1.6-0.9,1.7-2.4,0.2-3.3l-14.1-8.1
	c-1.8-0.9-3.9-0.8-5.6,0.1l-15.2,8.8C525.8,910.1,525.7,911.6,527.2,912.5z"/>
<path class="st15" d="M548.8,925l14.1,8.1c1.8,0.9,3.9,0.8,5.6-0.1l15.2-8.8c1.6-0.9,1.7-2.4,0.2-3.3l-14.1-8.1
	c-1.8-0.9-3.9-0.8-5.6,0.1l-15.2,8.8C547.4,922.6,547.3,924.1,548.8,925z"/>
<path class="st15" d="M605.3,936.7c1.6-0.9,1.7-2.4,0.2-3.3l-14.1-8.1c-1.8-0.9-3.9-0.8-5.6,0.1l-15.2,8.8c-1.6,0.9-1.7,2.4-0.2,3.3
	l14.1,8.1c1.8,0.9,3.9,0.8,5.6-0.1L605.3,936.7z"/>
<path class="st15" d="M592,950l14.1,8.1c1.8,0.9,3.9,0.8,5.6-0.1l15.2-8.8c1.6-0.9,1.7-2.4,0.2-3.3l-14.1-8.1
	c-1.8-0.9-3.9-0.8-5.6,0.1l-15.2,8.8C590.6,947.6,590.5,949.1,592,950z"/>
<path class="st15" d="M309.3,813.5l19.5,11.3c1.8,0.9,3.9,0.8,5.6-0.1l15.2-8.8c1.6-0.9,1.7-2.4,0.2-3.3l-19.5-11.3
	c-1.8-0.9-3.9-0.8-5.6,0.1l-15.2,8.8C307.9,811.2,307.8,812.6,309.3,813.5z"/>
<path class="st15" d="M357.9,841.6l14.1,8.1c1.8,0.9,3.9,0.8,5.6-0.1l15.2-8.8c1.6-0.9,1.7-2.4,0.2-3.3l-14.1-8.1
	c-1.8-0.9-3.9-0.8-5.6,0.1l-15.2,8.8C356.5,839.3,356.4,840.7,357.9,841.6z"/>
<path class="st15" d="M371.3,825.1l-14.1-8.1c-1.8-0.9-3.9-0.8-5.6,0.1l-15.2,8.8c-1.6,0.9-1.7,2.4-0.2,3.3l14.1,8.1
	c1.8,0.9,3.9,0.8,5.6-0.1l15.2-8.8C372.7,827.4,372.8,825.9,371.3,825.1z"/>
<path class="st15" d="M379.5,854.1l14.1,8.1c1.8,0.9,3.9,0.8,5.6-0.1l15.2-8.8c1.6-0.9,1.7-2.4,0.2-3.3l-14.1-8.1
	c-1.8-0.9-3.9-0.8-5.6,0.1l-15.2,8.8C378.1,851.8,378,853.2,379.5,854.1z"/>
<path class="st15" d="M401.1,866.6l14.1,8.1c1.8,0.9,3.9,0.8,5.6-0.1l15.2-8.8c1.6-0.9,1.7-2.4,0.2-3.3l-14.1-8.1
	c-1.8-0.9-3.9-0.8-5.6,0.1l-15.2,8.8C399.7,864.3,399.6,865.7,401.1,866.6z"/>
<path class="st15" d="M422.8,879.1l14.1,8.1c1.8,0.9,3.9,0.8,5.6-0.1l15.2-8.8c1.6-0.9,1.7-2.4,0.2-3.3l-14.1-8.1
	c-1.8-0.9-3.9-0.8-5.6,0.1l-15.2,8.8C421.4,876.8,421.3,878.2,422.8,879.1z"/>
<path class="st15" d="M444.4,891.6l14.1,8.1c1.8,0.9,3.9,0.8,5.6-0.1l15.2-8.8c1.6-0.9,1.7-2.4,0.2-3.3l-14.1-8.1
	c-1.8-0.9-3.9-0.8-5.6,0.1l-15.2,8.8C443,889.3,442.9,890.7,444.4,891.6z"/>
<path class="st15" d="M466,904.1l14.1,8.1c1.8,0.9,3.9,0.8,5.6-0.1l15.2-8.8c1.6-0.9,1.7-2.4,0.2-3.3l-14.1-8.1
	c-1.8-0.9-3.9-0.8-5.6,0.1l-15.2,8.8C464.6,901.8,464.5,903.2,466,904.1z"/>
<path class="st15" d="M487.6,916.6l14.1,8.1c1.8,0.9,3.9,0.8,5.6-0.1l15.2-8.8c1.6-0.9,1.7-2.4,0.2-3.3l-14.1-8.1
	c-1.8-0.9-3.9-0.8-5.6,0.1l-15.2,8.8C486.2,914.3,486.1,915.7,487.6,916.6z"/>
<path class="st15" d="M509.2,929.1l14.1,8.1c1.8,0.9,3.9,0.8,5.6-0.1l15.2-8.8c1.6-0.9,1.7-2.4,0.2-3.3l-14.1-8.1
	c-1.8-0.9-3.9-0.8-5.6,0.1l-15.2,8.8C507.8,926.8,507.7,928.2,509.2,929.1z"/>
<path class="st15" d="M530.8,941.6l14.1,8.1c1.8,0.9,3.9,0.8,5.6-0.1l15.2-8.8c1.6-0.9,1.7-2.4,0.2-3.3l-14.1-8.1
	c-1.8-0.9-3.9-0.8-5.6,0.1l-15.2,8.8C529.4,939.3,529.4,940.7,530.8,941.6z"/>
<path class="st15" d="M552.5,954.1l14.1,8.1c1.8,0.9,3.9,0.8,5.6-0.1l15.2-8.8c1.6-0.9,1.7-2.4,0.2-3.3l-14.1-8.1
	c-1.8-0.9-3.9-0.8-5.6,0.1l-15.2,8.8C551.1,951.8,551,953.2,552.5,954.1z"/>
<path class="st15" d="M625.4,971.9l-30.3-17.5c-1.8-0.9-3.9-0.8-5.6,0.1l-15.2,8.8c-1.6,0.9-1.7,2.4-0.2,3.3l30.3,17.5
	c1.8,0.9,3.9,0.8,5.6-0.1l15.2-8.8C626.8,974.3,626.8,972.8,625.4,971.9z"/>
<path class="st0" d="M532,1079.6h-0.7c-3.2,0-6.3-0.8-9.1-2.4L178.9,878.8c-2-1.1-3.5-2.8-4.4-4.9l-0.2-0.5l-0.2-18.5v-0.3
	c0.8-2.9,2.7-5.3,5.4-6.6l214.6-124l0.4-258.9c0-4,1.3-7.2,3.7-8.9l0.9-0.6h0.3l10.9-6c2.5-1.4,5.6-1.2,8.6,0.5L761.3,648
	c3.4,2.2,6.1,5.3,7.7,9c1.5,3.1,2.4,6.5,2.4,9.9l0,0l-0.3,277.6L543,1077.1C539.6,1078.8,535.8,1079.7,532,1079.6z M180.3,872.2
	c0.4,0.6,1,1.1,1.6,1.4L525.1,1072c1.9,1,4.1,1.5,6.3,1.5h0.6c2.8,0,5.6-0.6,8.1-1.9l225.1-130.8l0.3-274.1c0-2.5-0.7-5-1.8-7.3
	c-1.1-2.6-3-4.8-5.3-6.4L416,455c-0.8-0.6-1.8-0.8-2.7-0.5l-11.4,6.3h-0.1c-0.6,0.5-1.3,1.8-1.3,4.1l-0.4,262.4L182.6,853.1
	c-1.1,0.5-2,1.3-2.5,2.4L180.3,872.2z"/>
</svg>
